<svg width="51" height="48" viewBox="0 0 51 48" fill="none" xmlns="http://www.w3.org/2000/svg">
<mask id="mask0_7004_9750" style="mask-type:alpha" maskUnits="userSpaceOnUse" x="0" y="0" width="165" height="48">
<path d="M15.3257 0.808864L21.5299 0.639007C24.9408 0.545293 29.6156 0.416436 31.9183 0.34615C34.2211 0.281722 36.1026 0.357865 36.1026 0.516007C36.1026 0.67415 32.2242 5.75228 18.8578 22.7731L12.3304 23.2124C8.74057 23.4525 4.44091 23.6458 2.77298 23.6517C0.141245 23.6517 -0.210807 23.517 0.0893032 22.6267C0.273987 22.0644 3.78297 16.9218 15.3257 0.808864Z" fill="white"/>
<path d="M32.8995 14.3857C35.1041 11.2638 37.6782 7.59728 38.6189 6.22671C39.5654 4.85614 40.483 3.73157 40.6735 3.72572C40.8582 3.71986 41.4584 4.575 42.0124 5.62928C42.5665 6.68357 44.5865 10.0514 50 18.6731L49.6768 23.9445C49.4921 26.8438 49.1458 30.1414 48.8977 31.2659C48.6091 32.6072 46.416 35.7994 36.6797 47.6659H29.1769L28.8941 20.0495L32.8995 14.3857Z" fill="white"/>
<path d="M4.06577 36.2445C2.02848 33.3452 0.325929 30.7974 0.291301 30.5807C0.256673 30.3698 4.33702 30.159 18.4999 30.0418L18.9386 32.8532C19.1752 34.3937 19.3714 38.3589 19.3656 47.6659L12.1514 47.6776L9.9641 44.5968C8.76365 42.9041 6.10883 39.1438 4.06577 36.2445Z" fill="white"/>
</mask>
<g mask="url(#mask0_7004_9750)">
<rect x="-0.605469" width="51" height="49.668" fill="url(#paint0_linear_7004_9750)"/>
</g>
<defs>
<linearGradient id="paint0_linear_7004_9750" x1="-0.605469" y1="0" x2="53.1209" y2="3.14877" gradientUnits="userSpaceOnUse">
<stop/>
<stop offset="1"/>
</linearGradient>
</defs>
</svg>
