<svg width="72" height="72" viewBox="0 0 72 72" fill="none" xmlns="http://www.w3.org/2000/svg">
<g clip-path="url(#clip0_2674_448)">
<path d="M56.1227 60.2147L63.14 63.6439C64.8833 64.4957 66.9926 63.7382 67.68 61.9237C69.6891 56.6201 71.2689 50.2837 71.8041 43.7601C72.4151 36.314 71.6599 28.7006 68.7035 22.1125L68.6994 22.1143C68.5679 21.8305 68.4344 21.5474 68.2987 21.2652C67.2815 19.3139 65.3761 16.9205 62.5702 15.3369C59.4075 13.552 55.0139 12.7442 49.2484 14.9038C48.0252 15.362 46.78 15.954 45.5312 16.6603C47.0997 19.3288 48.2234 22.9278 48.3126 27.6733C48.3933 31.9623 47.6975 36.024 46.6315 39.6426L57.1558 43.5501C59.2936 44.3439 60.6933 46.4571 60.2941 48.7023C59.7324 51.8611 58.7428 54.9355 57.3594 57.8501C56.9853 58.6381 56.574 59.4293 56.1227 60.2147Z" fill="#FDFDFD"/>
<path d="M21.8652 57.3686C22.7281 57.1088 23.6393 56.7331 24.5957 56.2106C28.6457 53.9979 31.7087 50.3846 33.8862 46.8399C35.3391 44.4748 36.4214 42.1019 37.1526 40.1195C37.443 39.3323 38.3118 38.9052 39.0985 39.1973L55.9179 45.442C57.392 45.9893 58.3207 47.4714 58.0029 49.0114C57.5233 51.335 56.6845 54.1116 55.3586 56.9051C53.2786 61.287 50.0374 65.6341 45.1875 68.3819C41.1801 70.6523 37.0816 71.8235 33.2503 71.9995C29.0759 71.2932 26.3373 69.4813 24.5926 67.0616C22.7454 64.4997 21.9241 61.1329 21.8652 57.3686Z" fill="#FDFDFD"/>
<path d="M32.0031 0.322354C42.3172 -0.88462 49.9809 1.39728 55.798 5.50473C58.8889 7.68718 61.4846 10.4037 63.686 13.4328L63.6624 13.4194C59.9076 11.3004 54.828 10.4605 48.4728 12.841C39.9413 16.0368 30.744 25.0421 25.8474 34.2257C22.6714 40.1824 19.5394 49.3163 19.6578 57.3778C19.7171 61.4186 20.595 65.2918 22.8011 68.3514C23.5691 69.4166 24.4875 70.3684 25.5672 71.1872C17.7107 69.2328 7.82516 63.791 2.49764 51.2475C-2.15156 40.3011 0.0590149 28.184 6.08264 18.4449C12.1155 8.69106 21.8578 1.50958 32.0031 0.322354Z" fill="#FDFDFD"/>
</g>
<defs>
<clipPath id="clip0_2674_448">
<rect width="72.0006" height="71.9995" fill="white"/>
</clipPath>
</defs>
</svg>
