<svg width="582" height="236" viewBox="0 0 582 236" fill="none" xmlns="http://www.w3.org/2000/svg">
<path d="M110.764 121.032C112.428 121.096 114.604 121.16 117.292 121.224C119.98 121.288 122.668 121.32 125.356 121.32C128.428 121.32 131.404 121.288 134.284 121.224C137.164 121.16 139.212 121.128 140.428 121.128C148.364 121.128 154.284 122.536 158.188 125.352C162.156 128.168 164.14 131.784 164.14 136.2C164.14 138.44 163.468 140.712 162.124 143.016C160.78 145.32 158.7 147.368 155.884 149.16C153.068 150.952 149.42 152.264 144.94 153.096V153.288C150.956 153.736 155.724 154.824 159.244 156.552C162.764 158.28 165.292 160.36 166.828 162.792C168.364 165.224 169.132 167.752 169.132 170.376C169.132 174.408 168.076 177.8 165.964 180.552C163.852 183.304 160.812 185.416 156.844 186.888C152.876 188.296 148.14 189 142.636 189C141.1 189 138.892 188.968 136.012 188.904C133.132 188.776 129.644 188.712 125.548 188.712C122.732 188.712 119.98 188.744 117.292 188.808C114.604 188.808 112.428 188.872 110.764 189V187.08C112.812 186.952 114.348 186.696 115.372 186.312C116.396 185.928 117.068 185.16 117.388 184.008C117.772 182.856 117.964 181.128 117.964 178.824V131.208C117.964 128.84 117.772 127.112 117.388 126.024C117.068 124.872 116.364 124.104 115.276 123.72C114.252 123.272 112.748 123.016 110.764 122.952V121.032ZM139.18 122.952C136.684 122.952 135.052 123.496 134.284 124.584C133.58 125.672 133.228 127.88 133.228 131.208V178.824C133.228 181.064 133.388 182.76 133.708 183.912C134.092 185.064 134.732 185.832 135.628 186.216C136.588 186.6 137.996 186.792 139.852 186.792C144.46 186.792 147.82 185.352 149.932 182.472C152.108 179.528 153.196 175.368 153.196 169.992C153.196 165.064 151.948 161.256 149.452 158.568C147.02 155.88 142.956 154.536 137.26 154.536H129.1C129.1 154.536 129.1 154.28 129.1 153.768C129.1 153.192 129.1 152.904 129.1 152.904H137.356C140.364 152.904 142.668 152.2 144.268 150.792C145.868 149.32 146.988 147.4 147.628 145.032C148.268 142.6 148.588 140.008 148.588 137.256C148.588 132.52 147.852 128.968 146.38 126.6C144.908 124.168 142.508 122.952 139.18 122.952ZM193.232 113.832V180.072C193.232 182.76 193.68 184.584 194.576 185.544C195.536 186.504 197.136 186.984 199.376 186.984V189C198.16 188.936 196.336 188.872 193.904 188.808C191.472 188.68 189.008 188.616 186.512 188.616C184.016 188.616 181.488 188.68 178.928 188.808C176.432 188.872 174.544 188.936 173.264 189V186.984C175.504 186.984 177.072 186.504 177.968 185.544C178.928 184.584 179.408 182.76 179.408 180.072V125.352C179.408 122.472 178.96 120.36 178.064 119.016C177.232 117.608 175.632 116.904 173.264 116.904V114.888C175.312 115.08 177.296 115.176 179.216 115.176C181.84 115.176 184.336 115.08 186.704 114.888C189.072 114.632 191.248 114.28 193.232 113.832ZM227.291 138.024C231.963 138.024 236.059 138.888 239.579 140.616C243.099 142.344 245.851 145.128 247.835 148.968C249.819 152.808 250.811 157.896 250.811 164.232C250.811 170.568 249.819 175.656 247.835 179.496C245.851 183.272 243.099 186.024 239.579 187.752C236.059 189.48 231.963 190.344 227.291 190.344C222.747 190.344 218.683 189.48 215.099 187.752C211.579 186.024 208.795 183.272 206.747 179.496C204.763 175.656 203.771 170.568 203.771 164.232C203.771 157.896 204.763 152.808 206.747 148.968C208.795 145.128 211.579 142.344 215.099 140.616C218.683 138.888 222.747 138.024 227.291 138.024ZM227.291 139.944C224.731 139.944 222.587 141.864 220.859 145.704C219.131 149.48 218.267 155.656 218.267 164.232C218.267 172.808 219.131 178.984 220.859 182.76C222.587 186.536 224.731 188.424 227.291 188.424C229.915 188.424 232.059 186.536 233.723 182.76C235.451 178.984 236.315 172.808 236.315 164.232C236.315 155.656 235.451 149.48 233.723 145.704C232.059 141.864 229.915 139.944 227.291 139.944ZM281.764 138.024C284.26 138.024 286.532 138.312 288.58 138.888C290.692 139.4 292.42 140.072 293.764 140.904C295.428 141.928 296.708 143.208 297.604 144.744C298.564 146.216 299.044 147.944 299.044 149.928C299.044 152.168 298.34 154.024 296.932 155.496C295.524 156.904 293.7 157.608 291.46 157.608C289.22 157.608 287.428 156.968 286.084 155.688C284.74 154.408 284.068 152.68 284.068 150.504C284.068 148.456 284.708 146.76 285.988 145.416C287.268 144.008 288.74 143.08 290.404 142.632C289.892 141.992 289.124 141.448 288.1 141C287.076 140.552 285.924 140.328 284.644 140.328C282.66 140.328 280.9 140.904 279.364 142.056C277.892 143.208 276.644 144.808 275.62 146.856C274.596 148.904 273.796 151.304 273.22 154.056C272.708 156.808 272.452 159.816 272.452 163.08C272.452 168.008 273.06 171.88 274.276 174.696C275.556 177.512 277.156 179.496 279.076 180.648C281.06 181.8 283.108 182.376 285.22 182.376C286.436 182.376 287.748 182.184 289.156 181.8C290.628 181.416 292.1 180.648 293.572 179.496C295.108 178.344 296.516 176.712 297.796 174.6L299.428 175.176C298.724 177.544 297.572 179.912 295.972 182.28C294.372 184.648 292.292 186.6 289.732 188.136C287.172 189.608 284.036 190.344 280.324 190.344C276.164 190.344 272.388 189.448 268.996 187.656C265.668 185.8 262.98 182.984 260.932 179.208C258.948 175.368 257.956 170.44 257.956 164.424C257.956 158.664 258.98 153.832 261.028 149.928C263.14 145.96 265.988 142.984 269.572 141C273.156 139.016 277.22 138.024 281.764 138.024ZM323.917 113.832V180.072C323.917 182.76 324.333 184.584 325.165 185.544C326.061 186.504 327.565 186.984 329.677 186.984V189C328.461 188.936 326.669 188.872 324.301 188.808C321.997 188.68 319.629 188.616 317.197 188.616C314.701 188.616 312.173 188.68 309.613 188.808C307.117 188.872 305.229 188.936 303.949 189V186.984C306.189 186.984 307.757 186.504 308.653 185.544C309.613 184.584 310.093 182.76 310.093 180.072V125.352C310.093 122.472 309.645 120.36 308.749 119.016C307.917 117.608 306.317 116.904 303.949 116.904V114.888C305.997 115.08 307.981 115.176 309.901 115.176C312.525 115.176 315.021 115.08 317.389 114.888C319.757 114.632 321.933 114.28 323.917 113.832ZM355.213 139.368V141.288C353.229 141.672 351.245 142.504 349.261 143.784C347.277 145.064 345.261 146.696 343.213 148.68L335.821 156.36L336.781 154.536L353.197 181.992C353.901 183.144 354.637 184.168 355.405 185.064C356.173 185.96 357.101 186.6 358.189 186.984V189C357.229 188.936 355.789 188.872 353.869 188.808C351.949 188.68 350.029 188.616 348.109 188.616C345.741 188.616 343.373 188.68 341.005 188.808C338.637 188.872 336.877 188.936 335.725 189V186.984C337.005 186.984 337.869 186.696 338.317 186.12C338.765 185.48 338.701 184.68 338.125 183.72L328.621 166.536C327.853 165.32 327.085 164.552 326.317 164.232C325.613 163.848 324.653 163.624 323.437 163.56V161.736C324.781 161.608 325.933 161.384 326.893 161.064C327.917 160.744 328.845 160.136 329.677 159.24L336.973 152.136C339.149 150.088 340.237 148.264 340.237 146.664C340.237 145.064 339.533 143.784 338.125 142.824C336.781 141.864 334.989 141.352 332.749 141.288V139.368C334.541 139.432 336.493 139.496 338.605 139.56C340.717 139.624 342.509 139.656 343.981 139.656C345.261 139.656 346.605 139.656 348.013 139.656C349.485 139.592 350.861 139.56 352.141 139.56C353.421 139.496 354.445 139.432 355.213 139.368ZM448.598 121.032V122.952C447.19 123.464 445.718 124.584 444.182 126.312C442.646 127.976 441.302 130.664 440.15 134.376L423.254 189.192C422.742 189.128 422.198 189.096 421.622 189.096C421.046 189.096 420.47 189.096 419.894 189.096C419.318 189.096 418.742 189.096 418.166 189.096C417.59 189.096 417.046 189.128 416.534 189.192L396.374 128.136C395.734 126.152 394.934 124.808 393.974 124.104C393.078 123.4 392.118 123.016 391.094 122.952V121.032C392.886 121.096 394.998 121.16 397.43 121.224C399.926 121.288 402.39 121.32 404.822 121.32C407.638 121.32 410.262 121.288 412.694 121.224C415.19 121.16 417.174 121.096 418.646 121.032V122.952C416.726 123.016 415.19 123.24 414.038 123.624C412.95 124.008 412.31 124.744 412.118 125.832C411.99 126.92 412.31 128.648 413.078 131.016L426.71 172.68L424.502 176.616L435.35 142.152C436.886 137.288 437.622 133.48 437.558 130.728C437.494 127.976 436.758 126.024 435.35 124.872C433.942 123.656 431.926 123.016 429.302 122.952V121.032C431.478 121.096 433.526 121.16 435.446 121.224C437.366 121.288 439.286 121.32 441.206 121.32C442.678 121.32 444.022 121.288 445.238 121.224C446.518 121.16 447.638 121.096 448.598 121.032ZM380.054 121.032V122.952C378.774 123.144 377.878 123.624 377.366 124.392C376.854 125.096 376.63 126.056 376.694 127.272C376.822 128.424 377.11 129.672 377.558 131.016L392.246 173.64L389.654 177.096L401.942 141.192L403.286 143.784L388.214 189.192C387.702 189.128 387.158 189.096 386.582 189.096C386.006 189.096 385.43 189.096 384.854 189.096C384.278 189.096 383.702 189.096 383.126 189.096C382.55 189.096 382.006 189.128 381.494 189.192L359.99 129.096C359.158 126.728 358.166 125.128 357.014 124.296C355.926 123.464 354.902 123.016 353.942 122.952V121.032C355.862 121.096 358.134 121.16 360.758 121.224C363.382 121.288 365.878 121.32 368.246 121.32C370.806 121.32 373.078 121.288 375.062 121.224C377.11 121.16 378.774 121.096 380.054 121.032ZM460.065 114.6C462.753 114.6 464.865 115.272 466.401 116.616C468.001 117.896 468.801 119.688 468.801 121.992C468.801 124.296 468.001 126.12 466.401 127.464C464.865 128.744 462.753 129.384 460.065 129.384C457.377 129.384 455.233 128.744 453.633 127.464C452.097 126.12 451.329 124.296 451.329 121.992C451.329 119.688 452.097 117.896 453.633 116.616C455.233 115.272 457.377 114.6 460.065 114.6ZM467.553 138.312V180.072C467.553 182.76 468.001 184.584 468.897 185.544C469.857 186.504 471.457 186.984 473.697 186.984V189C472.545 188.936 470.753 188.872 468.321 188.808C465.889 188.68 463.425 188.616 460.929 188.616C458.433 188.616 455.905 188.68 453.345 188.808C450.785 188.872 448.865 188.936 447.585 189V186.984C449.825 186.984 451.393 186.504 452.289 185.544C453.249 184.584 453.729 182.76 453.729 180.072V149.832C453.729 146.952 453.281 144.84 452.385 143.496C451.553 142.088 449.953 141.384 447.585 141.384V139.368C449.633 139.56 451.617 139.656 453.537 139.656C456.225 139.656 458.721 139.56 461.025 139.368C463.393 139.112 465.569 138.76 467.553 138.312ZM497.451 113.832V180.072C497.451 182.76 497.899 184.584 498.795 185.544C499.755 186.504 501.355 186.984 503.595 186.984V189C502.379 188.936 500.555 188.872 498.123 188.808C495.691 188.68 493.227 188.616 490.731 188.616C488.235 188.616 485.707 188.68 483.147 188.808C480.651 188.872 478.763 188.936 477.483 189V186.984C479.723 186.984 481.291 186.504 482.187 185.544C483.147 184.584 483.627 182.76 483.627 180.072V125.352C483.627 122.472 483.179 120.36 482.283 119.016C481.451 117.608 479.851 116.904 477.483 116.904V114.888C479.531 115.08 481.515 115.176 483.435 115.176C486.059 115.176 488.555 115.08 490.923 114.888C493.291 114.632 495.467 114.28 497.451 113.832ZM527.826 113.832V180.072C527.826 182.76 528.274 184.584 529.17 185.544C530.13 186.504 531.73 186.984 533.97 186.984V189C532.754 188.936 530.93 188.872 528.498 188.808C526.066 188.68 523.602 188.616 521.106 188.616C518.61 188.616 516.082 188.68 513.522 188.808C511.026 188.872 509.138 188.936 507.858 189V186.984C510.098 186.984 511.666 186.504 512.562 185.544C513.522 184.584 514.002 182.76 514.002 180.072V125.352C514.002 122.472 513.554 120.36 512.658 119.016C511.826 117.608 510.226 116.904 507.858 116.904V114.888C509.906 115.08 511.89 115.176 513.81 115.176C516.434 115.176 518.93 115.08 521.298 114.888C523.666 114.632 525.842 114.28 527.826 113.832Z" fill="#F0F0F0"/>
<rect width="11.9402" height="11.9402" transform="matrix(0.86601 0.500028 3.18351e-05 1 460.841 110)" fill="#6E6E6E"/>
<rect width="11.9402" height="11.9402" transform="matrix(0.86601 -0.500028 -3.18351e-05 1 450.501 115.97)" fill="#5A5A5A"/>
<rect width="11.9402" height="11.9402" transform="matrix(0.866041 0.499972 -0.866041 0.499972 460.841 121.939)" fill="#AAAAAA"/>
<rect x="0.21651" y="0.375007" width="11.4402" height="11.4402" transform="matrix(0.86601 0.500028 3.18351e-05 1 450.529 115.86)" fill="#AF69EF" stroke="#0A0A0A" stroke-width="0.5"/>
<path d="M470.965 116.343L470.964 127.783L461.057 133.504L461.057 122.063L470.965 116.343Z" fill="#AF69EF" stroke="#0A0A0A" stroke-width="0.5"/>
<rect x="0.433021" width="11.4402" height="11.4402" transform="matrix(0.866041 -0.499972 0.866041 0.499972 450.558 116.186)" fill="#AF69EF" stroke="#0A0A0A" stroke-width="0.5"/>
<g opacity="0.88">
<g filter="url(#filter0_d_86_451)">
<path d="M515.502 223.785C514.136 223.629 512.645 223.445 511.037 223.244C506.476 222.819 500.929 222.568 494.621 222C474.875 220.219 447.018 217.77 414.774 215.395C350.282 210.646 267.963 207.5 197 207.5C126.044 207.5 78.9618 212.14 49 217.5C34.3447 220.121 22.7189 222.186 16 224C12.2959 225 10.113 225.986 8.50001 226.5C4.91648 227.641 4.5 224.5 4.5 224.5C4.5 224.5 12.2575 222.395 15.7041 221.5C22.5972 219.709 33 217.5 48.1553 215C78.3048 210.026 125.956 205.5 197 205.5C268.037 205.5 350.315 210.009 414.823 214.759C447.08 217.135 474.866 219.615 494.621 221.396C500.954 221.968 506.471 222.674 511.037 223.244C512.652 223.395 514.144 223.568 515.502 223.785Z" fill="#AF69EF"/>
<path d="M523.932 224.567C522.527 224.427 520.48 224.287 517.784 224.027C512.392 223.507 504.498 222.287 494.621 221.396C474.866 219.615 447.08 217.135 414.823 214.759C350.315 210.009 268.037 205.5 197 205.5C125.956 205.5 78.3048 210.026 48.1553 215C33 217.5 22.5972 219.709 15.7041 221.5C12.2575 222.395 4.5 224.5 4.5 224.5C4.5 224.5 4.91648 227.641 8.50001 226.5C10.113 225.986 12.2959 225 16 224C22.7189 222.186 34.3447 220.121 49 217.5C78.9618 212.14 126.044 207.5 197 207.5C267.963 207.5 350.282 210.646 414.774 215.395C447.018 217.77 474.875 220.219 494.621 222C504.493 222.89 512.5 223 517.784 224.224C520.421 224.834 522.523 224.441 523.927 224.58" stroke="#AF69EF" stroke-linecap="round" stroke-linejoin="round"/>
</g>
<path d="M24.9903 138.5C22.3237 141.277 22.457 143.922 25.5237 145.906C27.3903 147.096 27.7903 148.022 26.9903 149.741C25.9237 151.592 27.5237 152.65 36.5903 156.75C45.5237 160.718 47.657 161.247 48.5903 159.792C49.1237 158.734 50.857 158.205 52.7237 158.469C56.457 159.263 59.5237 155.957 58.3237 152.518C57.9237 151.063 55.657 149.08 53.257 148.154C50.857 147.228 45.1237 144.583 40.3237 142.335C27.7903 136.384 27.257 136.251 24.9903 138.5Z" fill="#AF69EF"/>
<path d="M49.5 143.5C50.9666 144.029 53.0048 141.657 55.8047 135.441C58.2047 130.151 60.6047 126.845 61.8047 126.845C67.1383 126.844 89.6716 116.926 95.0049 112.297C100.605 107.403 115.804 87.0372 113.671 87.3017L100.49 93.1992L101.411 94.9824L103.458 93.9999L105.839 98.9579L100.881 101.339L98.5 96.3798L100.51 95.415L99.5762 93.6074L90.876 97.4999L89.4746 98.1689L90.4111 99.9824L92.458 98.9999L94.8389 103.958L89.8809 106.339L87.5 101.38L89.5098 100.415L88.5723 98.5995L62.0713 111.239C59.538 116.529 54.7292 125.834 52.0625 131.256C46.603 142.35 46.8333 142.441 49.4902 143.495L49.5 143.5Z" fill="#AF69EF"/>
<path d="M20.6951 157.862C19.2284 160.242 14.1618 165.929 9.36176 170.425C1.09509 178.228 0.695093 178.889 2.16176 182.328C2.96176 184.312 3.76176 194.23 3.76176 205.339C3.89509 215.919 3.5 225 5 225.5C5.5 225.666 6 223.735 6.5 222.235C6.83333 221.235 8.82843 214.068 12.2951 205.868C17.3618 194.23 18.4284 190.527 17.3618 188.808C15.4951 186.031 17.7618 182.063 21.4951 181.534C25.3618 181.005 29.0951 185.634 27.3618 188.94C26.5618 190.527 24.8284 191.982 23.6284 192.379C22.1618 192.908 18.2951 199.785 13.7618 209.704C9.62843 218.829 6 225.235 6.56176 226.235C7 226.735 10.8284 222.267 15.6284 217.242C20.4284 212.349 28.5618 205.736 33.6284 202.43L42.9618 196.479L43.4951 183.254C43.8951 175.98 44.6951 168.706 45.2284 167.119C46.1618 164.342 45.2284 163.681 35.7618 159.316C29.8951 156.671 24.8284 154.291 24.2951 154.026C23.8951 153.762 22.2951 155.481 20.6951 157.862Z" fill="#AF69EF"/>
<path d="M39.666 138.953C41.2701 139.571 44.7334 133.399 53 117C53.8229 115.349 54.1125 112.594 54.9287 111L48.4756 96.3854L68.875 65.4997L63.5996 60.0934L76.208 42.9343C75.7666 42.4119 75.5 41.7371 75.5 40.9997C75.5 39.3429 76.8432 37.9997 78.5 37.9997C80.1569 37.9997 81.5 39.3428 81.5 40.9997C81.4999 42.6565 80.1568 43.9997 78.5 43.9997C78.1885 43.9997 77.888 43.9521 77.6055 43.864L65.8887 59.6979L69.834 64.0231L75.4766 55.9245C74.8719 55.2955 74.5 54.4411 74.5 53.4997C74.5 51.5667 76.067 49.9997 78 49.9997C79.933 49.9997 81.5 51.5667 81.5 53.4997C81.4999 55.4326 79.9329 56.9997 78 56.9997C77.6234 56.9997 77.2608 56.9398 76.9209 56.8298L58.875 84.3747L62.5381 85.9431L92.4102 44.1501C91.8494 43.605 91.5 42.8435 91.5 41.9997C91.5 40.3428 92.8432 38.9997 94.5 38.9997C96.1569 38.9997 97.5 40.3428 97.5 41.9997C97.4999 43.6565 96.1568 44.9997 94.5 44.9997C94.2189 44.9997 93.9475 44.9587 93.6895 44.8864L63.2285 87.9997L58.2285 85.9997L51.4707 96.4997L56.875 108C73.1588 76.5319 87.4416 57.0478 109.137 36.5182C117.003 29.1127 120.603 25.0129 119.004 25.0124C117.671 25.0125 114.203 26.8633 111.403 28.9792C108.47 31.2272 105.937 32.6819 105.67 32.4177C104.472 31.3571 111.138 19.4573 114.204 17.0768C119.538 12.9771 139.404 7.02605 146.337 7.68719C149.137 7.95169 148.204 10.9937 140.737 26.7311C133.937 41.1462 133.404 41.8081 127.804 44.0563C121.404 46.569 112.338 53.5775 112.337 55.4294C112.337 57.6775 113.271 58.9997 120.737 59.3972C124.47 59.3972 124.604 59.6618 121.804 65.0837C118.203 72.0926 98.6034 67.8615 95.4033 66.1423C94.6033 64.8198 104.871 51.0656 117.004 37.1794C121.004 32.683 123.936 28.5826 123.403 28.0534C121.934 26.6023 104.469 44.5868 93.9365 58.3395C85.1362 69.8461 63.875 108 63.875 108L81.8311 99.195L80.96 97.4323L78.8975 98.3786L76.6035 93.3796L81.6025 91.0866L83.8965 96.0847L81.8691 97.0153L82.7285 98.7546L91.8691 94.2722L90.96 92.4323L88.8975 93.3786L86.6035 88.3796L91.6025 86.0856L93.8965 91.0847L91.8691 92.0153L92.7676 93.8317L101.908 89.3493L100.961 87.4323L98.8984 88.3786L96.6045 83.3796L101.604 81.0856L103.897 86.0847L101.869 87.0153L102.806 88.9089L115.875 82.4997C115.875 82.4997 134.07 53.3144 133.403 53.0495C132.869 52.9175 128.737 53.5786 124.204 54.6364C119.671 55.6943 115.937 56.0904 115.937 55.4294C115.938 54.8999 120.738 52.3876 126.737 50.0075C139.004 44.9821 138.071 46.1715 150.471 18.0026C157.271 2.39745 158.204 -0.247223 156.337 0.0172729C155.67 0.149567 153.537 0.545776 151.271 0.810242C141.004 2.0005 126.737 5.83578 117.537 9.53876L107.375 14.9997L103.403 23.9538C97.0035 39.2944 96.0702 38.7658 99.4033 21.8386L100.204 18.0026L93.8037 22.4997C77.8037 33.6088 51.004 64.4228 52.4707 69.9772C52.8707 71.036 53.4033 76.0609 53.9365 81.0856L53.9453 81.1677C54.1006 82.6281 54.253 84.0607 53.375 84.4997C52.375 84.9987 51.0035 81.4821 50.0703 78.5729L48.3369 73.2829L45.5371 82.4089C42.3372 92.1952 41.8033 105.156 43.9365 114.677C45.1365 119.703 44.8702 121.026 41.2705 128.167C36.6042 137.291 37.2664 138.027 39.666 138.953Z" fill="#AF69EF"/>
</g>
<defs>
<filter id="filter0_d_86_451" x="0" y="205" width="528.432" height="30.2498" filterUnits="userSpaceOnUse" color-interpolation-filters="sRGB">
<feFlood flood-opacity="0" result="BackgroundImageFix"/>
<feColorMatrix in="SourceAlpha" type="matrix" values="0 0 0 0 0 0 0 0 0 0 0 0 0 0 0 0 0 0 127 0" result="hardAlpha"/>
<feOffset dy="4"/>
<feGaussianBlur stdDeviation="2"/>
<feComposite in2="hardAlpha" operator="out"/>
<feColorMatrix type="matrix" values="0 0 0 0 0 0 0 0 0 0 0 0 0 0 0 0 0 0 0.25 0"/>
<feBlend mode="normal" in2="BackgroundImageFix" result="effect1_dropShadow_86_451"/>
<feBlend mode="normal" in="SourceGraphic" in2="effect1_dropShadow_86_451" result="shape"/>
</filter>
</defs>
</svg>
