<svg width="49" height="49" viewBox="0 0 49 49" fill="none" xmlns="http://www.w3.org/2000/svg">
<circle cx="24.498" cy="24.5" r="24.5" fill="#2B2B2B"/>
<path d="M22.6063 5.68693C22.926 5.6553 23.2633 5.62719 23.3617 5.62016C23.4566 5.61314 23.9274 5.60611 24.4052 5.60259C24.8866 5.59908 25.5085 5.61314 25.7931 5.63071C26.0812 5.65179 26.5731 5.70099 26.8928 5.73964C27.2126 5.7783 27.7185 5.8556 28.0172 5.91183C28.3158 5.96805 28.8218 6.0805 29.1415 6.15781C29.4613 6.23864 30.0691 6.41785 30.4943 6.56193C30.9194 6.70249 31.5448 6.93442 31.8821 7.08201C32.2194 7.22609 32.7043 7.44747 32.9538 7.57398C33.2032 7.69697 33.6249 7.92187 33.8849 8.07297C34.1449 8.22056 34.6262 8.52277 34.9565 8.74064C35.2868 8.95852 35.7436 9.28181 35.9754 9.45751C36.2073 9.63673 36.5938 9.94948 36.8363 10.1568C37.0787 10.3606 37.553 10.8069 37.8904 11.1478C38.2277 11.4851 38.6598 11.9455 38.846 12.1668C39.0358 12.3882 39.3239 12.7432 39.489 12.9575C39.6542 13.1719 39.9458 13.5725 40.1355 13.8536C40.3253 14.1347 40.5993 14.5599 40.7434 14.8024C40.8909 15.0449 41.1264 15.4701 41.2739 15.7512C41.4215 16.0323 41.6218 16.4435 41.7237 16.6648C41.822 16.8862 41.9802 17.2587 42.0715 17.4906C42.1664 17.7226 42.3069 18.1021 42.3877 18.334C42.4685 18.5659 42.6091 19.0228 42.704 19.3531C42.7953 19.6834 42.9288 20.2176 42.9956 20.5479C43.0659 20.8782 43.1607 21.4229 43.2099 21.7602C43.2591 22.0976 43.3188 22.5825 43.3434 22.832C43.3715 23.1061 43.3891 23.7773 43.3891 24.5012C43.3891 25.2391 43.368 25.8928 43.3434 26.1704C43.3153 26.4199 43.2661 26.8556 43.2275 27.1367C43.1888 27.4179 43.108 27.8817 43.0518 28.1734C42.9956 28.4615 42.8832 28.9535 42.8023 29.2627C42.725 29.572 42.5775 30.078 42.4756 30.3872C42.3737 30.6965 42.2015 31.1709 42.0961 31.4414C41.9872 31.712 41.7904 32.1689 41.6569 32.4605C41.5234 32.7487 41.3056 33.1844 41.1755 33.4269C41.0455 33.6694 40.8418 34.0243 40.7258 34.2176C40.6099 34.4108 40.3569 34.8044 40.1601 35.0961C39.9634 35.3842 39.6647 35.8059 39.4925 36.0273C39.3204 36.2487 39.0042 36.6387 38.7863 36.8882C38.5685 37.1377 38.0906 37.6367 37.7287 37.9952C37.3633 38.3536 36.9065 38.7788 36.7133 38.9404C36.5201 39.1021 36.123 39.4113 35.8349 39.6292C35.5433 39.8471 35.1006 40.1598 34.8511 40.3215C34.6016 40.4866 34.18 40.7432 33.92 40.8978C33.66 41.0489 33.1294 41.323 32.743 41.5127C32.3565 41.699 31.8119 41.945 31.5308 42.0539C31.2497 42.1663 30.7437 42.3491 30.4064 42.4615C30.0691 42.574 29.4683 42.7426 29.0713 42.841C28.6742 42.9394 28.0734 43.0659 27.7361 43.1222C27.3988 43.1819 26.8999 43.2522 26.6293 43.2803C26.3588 43.3119 25.8282 43.3541 25.4523 43.3752C25.0482 43.3998 24.4614 43.4033 24.0293 43.3927C23.6252 43.3787 23.0525 43.3471 22.7644 43.319C22.4728 43.2908 22.0546 43.2416 21.8333 43.2135C21.6119 43.1819 21.1833 43.1081 20.8846 43.0519C20.586 42.9921 20.087 42.8832 19.7778 42.8024C19.4686 42.7251 18.9381 42.5705 18.6008 42.458C18.2635 42.3456 17.74 42.1558 17.4413 42.0363C17.1426 41.9168 16.5489 41.6463 16.1237 41.4389C15.6986 41.2281 15.1364 40.9259 14.8764 40.7713C14.6164 40.6131 14.2299 40.3707 14.0156 40.2301C13.8012 40.086 13.4218 39.8154 13.1723 39.6292C12.9193 39.4394 12.5328 39.1337 12.3115 38.9475C12.0901 38.7647 11.5806 38.2868 11.1836 37.8897C10.7866 37.4927 10.3263 37.0112 10.1612 36.818C9.99602 36.6247 9.69737 36.2522 9.49709 35.9921C9.29682 35.7321 8.96303 35.2647 8.75573 34.9555C8.55194 34.6463 8.26031 34.1789 8.11274 33.9189C7.96166 33.6588 7.73327 33.2301 7.60327 32.9701C7.47327 32.71 7.26597 32.2673 7.14651 31.9861C7.02353 31.705 6.84083 31.2482 6.73893 30.967C6.63704 30.6859 6.49649 30.2678 6.42622 30.0358C6.35595 29.8039 6.22946 29.3295 6.14162 28.9816C6.0573 28.6337 5.94135 28.0715 5.88513 27.7341C5.8254 27.3968 5.75513 26.9048 5.72702 26.6448C5.6954 26.3847 5.65323 25.8611 5.63215 25.4851C5.60756 25.0915 5.60053 24.4801 5.61458 24.0444C5.62513 23.6297 5.66026 23.0288 5.68837 22.709C5.71999 22.3892 5.77621 21.9148 5.81486 21.6548C5.85351 21.3948 5.93432 20.952 5.99054 20.6709C6.05027 20.3897 6.15216 19.947 6.21892 19.6869C6.28568 19.4269 6.42974 18.9455 6.53866 18.6151C6.64406 18.2848 6.82326 17.7893 6.93569 17.5082C7.04813 17.2271 7.23786 16.7843 7.35732 16.5243C7.4803 16.2642 7.6876 15.8426 7.82111 15.5931C7.95814 15.3436 8.14788 15.0027 8.24626 14.8375C8.34464 14.6724 8.55897 14.335 8.7241 14.082C8.88924 13.829 9.18438 13.4108 9.38115 13.1508C9.57791 12.8907 9.84494 12.5499 9.97494 12.3953C10.1049 12.2406 10.4001 11.9033 10.6355 11.6433C10.8709 11.3867 11.2785 10.9756 11.5385 10.7331C11.7985 10.4906 12.1955 10.1392 12.4169 9.95651C12.6382 9.77026 13.0282 9.46805 13.2777 9.28181C13.5307 9.09556 13.9383 8.80741 14.1912 8.64577C14.4442 8.4806 14.8623 8.22408 15.1223 8.07297C15.3823 7.92538 15.8813 7.66534 16.2291 7.49315C16.577 7.32448 17.097 7.08904 17.3886 6.97307C17.6767 6.85711 18.1229 6.69195 18.3724 6.6041C18.6219 6.51976 19.0365 6.38974 19.2859 6.31595C19.5354 6.24567 19.9711 6.13322 20.2522 6.06996C20.5333 6.0032 21.0462 5.9048 21.3941 5.84506C21.7419 5.78884 22.2865 5.71504 22.6063 5.68693Z" fill="white"/>
<path fill-rule="evenodd" clip-rule="evenodd" d="M20.3051 15.0403C19.9465 15.399 19.8782 15.7007 19.9306 16.6988L19.9944 17.919L20.9039 17.9847L21.8134 18.0506V17.2892V16.528L26.7888 16.5362L31.7643 16.5445L30.6943 17.4949L29.6243 18.4452L22.9521 18.4495C17.1758 18.4534 16.2349 18.4992 15.9436 18.7902C15.6521 19.0819 15.6074 20.0316 15.6074 25.944C15.6074 31.8563 15.6521 32.806 15.9436 33.0977C16.2355 33.3894 17.1946 33.4339 23.2033 33.4339H30.1266L30.8383 32.8535C31.9791 31.9235 34.9597 29.2808 35.1316 29.0469C35.3802 28.7084 35.3224 28.3557 34.9591 27.9921C34.6683 27.7015 33.7551 27.6559 28.2181 27.6559H21.8134V24.339V21.022H20.8504H19.8874V24.8262C19.8874 27.9232 19.9492 28.7191 20.2206 29.1062C20.5504 29.5772 20.6094 29.5819 26.153 29.5819H31.7525L30.6885 30.5353L29.6243 31.4887L23.5789 31.4983L17.5334 31.5079V25.944V20.38H23.9018H30.2702L32.6222 18.3355C35.3481 15.9661 35.6068 15.5858 34.888 15.0037C34.4258 14.6297 33.9244 14.6021 27.5676 14.6021C20.9749 14.6021 20.7286 14.6168 20.3051 15.0403Z" fill="#FF3F4B"/>
<path fill-rule="evenodd" clip-rule="evenodd" d="M20.3051 15.0403C19.9465 15.399 19.8782 15.7007 19.9306 16.6988L19.9944 17.919L20.9039 17.9847L21.8134 18.0506V17.2892V16.528L26.7888 16.5362L31.7643 16.5445L30.6943 17.4949L29.6243 18.4452L22.9521 18.4495C17.1758 18.4534 16.2349 18.4992 15.9436 18.7902C15.6521 19.0819 15.6074 20.0316 15.6074 25.944C15.6074 31.8563 15.6521 32.806 15.9436 33.0977C16.2355 33.3894 17.1946 33.4339 23.2033 33.4339H30.1266L30.8383 32.8535C31.9791 31.9235 34.9597 29.2808 35.1316 29.0469C35.3802 28.7084 35.3224 28.3557 34.9591 27.9921C34.6683 27.7015 33.7551 27.6559 28.2181 27.6559H21.8134V24.339V21.022H20.8504H19.8874V24.8262C19.8874 27.9232 19.9492 28.7191 20.2206 29.1062C20.5504 29.5772 20.6094 29.5819 26.153 29.5819H31.7525L30.6885 30.5353L29.6243 31.4887L23.5789 31.4983L17.5334 31.5079V25.944V20.38H23.9018H30.2702L32.6222 18.3355C35.3481 15.9661 35.6068 15.5858 34.888 15.0037C34.4258 14.6297 33.9244 14.6021 27.5676 14.6021C20.9749 14.6021 20.7286 14.6168 20.3051 15.0403Z" fill="#FF3F4B"/>
</svg>
