<svg width="49" height="49" viewBox="0 0 49 49" fill="none" xmlns="http://www.w3.org/2000/svg">
<circle cx="24.498" cy="24.5" r="24.5" fill="#2B2B2B"/>
<path d="M22.6063 5.68693C22.926 5.6553 23.2633 5.62719 23.3617 5.62016C23.4566 5.61314 23.9274 5.60611 24.4052 5.60259C24.8866 5.59908 25.5085 5.61314 25.7931 5.63071C26.0812 5.65179 26.5731 5.70099 26.8928 5.73964C27.2126 5.7783 27.7185 5.8556 28.0172 5.91183C28.3158 5.96805 28.8218 6.0805 29.1415 6.15781C29.4613 6.23864 30.0691 6.41785 30.4943 6.56193C30.9194 6.70249 31.5448 6.93442 31.8821 7.08201C32.2194 7.22609 32.7043 7.44747 32.9538 7.57398C33.2032 7.69697 33.6249 7.92187 33.8849 8.07297C34.1449 8.22056 34.6262 8.52277 34.9565 8.74064C35.2868 8.95852 35.7436 9.28181 35.9754 9.45751C36.2073 9.63673 36.5938 9.94948 36.8363 10.1568C37.0787 10.3606 37.553 10.8069 37.8904 11.1478C38.2277 11.4851 38.6598 11.9455 38.846 12.1668C39.0358 12.3882 39.3239 12.7432 39.489 12.9575C39.6542 13.1719 39.9458 13.5725 40.1355 13.8536C40.3253 14.1347 40.5993 14.5599 40.7434 14.8024C40.8909 15.0449 41.1264 15.4701 41.2739 15.7512C41.4215 16.0323 41.6218 16.4435 41.7237 16.6648C41.822 16.8862 41.9802 17.2587 42.0715 17.4906C42.1664 17.7226 42.3069 18.1021 42.3877 18.334C42.4685 18.5659 42.6091 19.0228 42.704 19.3531C42.7953 19.6834 42.9288 20.2176 42.9956 20.5479C43.0659 20.8782 43.1607 21.4229 43.2099 21.7602C43.2591 22.0976 43.3188 22.5825 43.3434 22.832C43.3715 23.1061 43.3891 23.7773 43.3891 24.5012C43.3891 25.2391 43.368 25.8928 43.3434 26.1704C43.3153 26.4199 43.2661 26.8556 43.2275 27.1367C43.1888 27.4179 43.108 27.8817 43.0518 28.1734C42.9956 28.4615 42.8832 28.9535 42.8023 29.2627C42.725 29.572 42.5775 30.078 42.4756 30.3872C42.3737 30.6965 42.2015 31.1709 42.0961 31.4414C41.9872 31.712 41.7904 32.1689 41.6569 32.4605C41.5234 32.7487 41.3056 33.1844 41.1755 33.4269C41.0455 33.6694 40.8418 34.0243 40.7258 34.2176C40.6099 34.4108 40.3569 34.8044 40.1601 35.0961C39.9634 35.3842 39.6647 35.8059 39.4925 36.0273C39.3204 36.2487 39.0042 36.6387 38.7863 36.8882C38.5685 37.1377 38.0906 37.6367 37.7287 37.9952C37.3633 38.3536 36.9065 38.7788 36.7133 38.9404C36.5201 39.1021 36.123 39.4113 35.8349 39.6292C35.5433 39.8471 35.1006 40.1598 34.8511 40.3215C34.6016 40.4866 34.18 40.7432 33.92 40.8978C33.66 41.0489 33.1294 41.323 32.743 41.5127C32.3565 41.699 31.8119 41.945 31.5308 42.0539C31.2497 42.1663 30.7437 42.3491 30.4064 42.4615C30.0691 42.574 29.4683 42.7426 29.0713 42.841C28.6742 42.9394 28.0734 43.0659 27.7361 43.1222C27.3988 43.1819 26.8999 43.2522 26.6293 43.2803C26.3588 43.3119 25.8282 43.3541 25.4523 43.3752C25.0482 43.3998 24.4614 43.4033 24.0293 43.3927C23.6252 43.3787 23.0525 43.3471 22.7644 43.319C22.4728 43.2908 22.0546 43.2416 21.8333 43.2135C21.6119 43.1819 21.1833 43.1081 20.8846 43.0519C20.586 42.9921 20.087 42.8832 19.7778 42.8024C19.4686 42.7251 18.9381 42.5705 18.6008 42.458C18.2635 42.3456 17.74 42.1558 17.4413 42.0363C17.1426 41.9168 16.5489 41.6463 16.1237 41.4389C15.6986 41.2281 15.1364 40.9259 14.8764 40.7713C14.6164 40.6131 14.2299 40.3707 14.0156 40.2301C13.8012 40.086 13.4218 39.8154 13.1723 39.6292C12.9193 39.4394 12.5328 39.1337 12.3115 38.9475C12.0901 38.7647 11.5806 38.2868 11.1836 37.8897C10.7866 37.4927 10.3263 37.0112 10.1612 36.818C9.99602 36.6247 9.69737 36.2522 9.49709 35.9921C9.29682 35.7321 8.96303 35.2647 8.75573 34.9555C8.55194 34.6463 8.26031 34.1789 8.11274 33.9189C7.96166 33.6588 7.73327 33.2301 7.60327 32.9701C7.47327 32.71 7.26597 32.2673 7.14651 31.9861C7.02353 31.705 6.84083 31.2482 6.73893 30.967C6.63704 30.6859 6.49649 30.2678 6.42622 30.0358C6.35595 29.8039 6.22946 29.3295 6.14162 28.9816C6.0573 28.6337 5.94135 28.0715 5.88513 27.7341C5.8254 27.3968 5.75513 26.9048 5.72702 26.6448C5.6954 26.3847 5.65323 25.8611 5.63215 25.4851C5.60756 25.0915 5.60053 24.4801 5.61458 24.0444C5.62513 23.6297 5.66026 23.0288 5.68837 22.709C5.71999 22.3892 5.77621 21.9148 5.81486 21.6548C5.85351 21.3948 5.93432 20.952 5.99054 20.6709C6.05027 20.3897 6.15216 19.947 6.21892 19.6869C6.28568 19.4269 6.42974 18.9455 6.53866 18.6151C6.64406 18.2848 6.82326 17.7893 6.93569 17.5082C7.04813 17.2271 7.23786 16.7843 7.35732 16.5243C7.4803 16.2642 7.6876 15.8426 7.82111 15.5931C7.95814 15.3436 8.14788 15.0027 8.24626 14.8375C8.34464 14.6724 8.55897 14.335 8.7241 14.082C8.88924 13.829 9.18438 13.4108 9.38115 13.1508C9.57791 12.8907 9.84494 12.5499 9.97494 12.3953C10.1049 12.2406 10.4001 11.9033 10.6355 11.6433C10.8709 11.3867 11.2785 10.9756 11.5385 10.7331C11.7985 10.4906 12.1955 10.1392 12.4169 9.95651C12.6382 9.77026 13.0282 9.46805 13.2777 9.28181C13.5307 9.09556 13.9383 8.80741 14.1912 8.64577C14.4442 8.4806 14.8623 8.22408 15.1223 8.07297C15.3823 7.92538 15.8813 7.66534 16.2291 7.49315C16.577 7.32448 17.097 7.08904 17.3886 6.97307C17.6767 6.85711 18.1229 6.69195 18.3724 6.6041C18.6219 6.51976 19.0365 6.38974 19.2859 6.31595C19.5354 6.24567 19.9711 6.13322 20.2522 6.06996C20.5333 6.0032 21.0462 5.9048 21.3941 5.84506C21.7419 5.78884 22.2865 5.71504 22.6063 5.68693Z" fill="#1E1E1E"/>
<path d="M12.8793 18.8824C12.9384 18.7904 12.9974 18.6481 13.0059 18.5728C13.0059 18.4892 13.0312 18.5561 13.0481 18.7151C13.0649 18.874 13.0396 19.0497 12.9974 19.0915C12.9468 19.1334 12.8793 19.1417 12.8455 19.1083C12.8033 19.0748 12.8286 18.966 12.8793 18.8824Z" fill="#9C6540"/>
<path d="M12.8455 23.3999C12.8708 23.1907 12.9215 22.8896 12.9637 22.7306C13.0143 22.4964 13.0396 22.6135 13.0734 23.3162C13.0987 23.8014 13.1156 24.2615 13.0987 24.3368C13.0818 24.4205 13.0312 24.4874 12.989 24.4874C12.9384 24.4874 12.8793 24.3285 12.854 24.136C12.8286 23.9353 12.8202 23.609 12.8455 23.3999Z" fill="#9C6540"/>
<path d="M18.5577 14.9649C18.8615 14.8562 19.2918 14.7391 19.5281 14.7056C19.756 14.6638 20.237 14.647 20.583 14.6554C20.929 14.6721 21.2413 14.6805 21.275 14.6889C21.3172 14.6889 21.3425 14.7558 21.3425 14.8227C21.3425 14.9231 21.2581 14.9398 20.9037 14.9064C20.6252 14.8813 20.2623 14.9147 19.9501 14.99C19.6716 15.0653 19.2918 15.1908 19.1062 15.2828C18.9205 15.3665 18.583 15.6007 17.95 16.1612L18.0091 15.1574L18.5577 14.9649Z" fill="#9C6540"/>
<path d="M14.3803 16.6715C14.6588 16.5042 15.2496 16.2449 15.6884 16.0859C16.1272 15.927 16.4985 15.7931 16.507 15.7848C16.5238 15.7848 16.5323 16.0525 16.5323 16.956L15.7053 17.2153C15.258 17.3575 14.701 17.575 14.4816 17.7005C14.2622 17.8177 14.0596 17.9766 14.0259 18.0435C14.0006 18.1105 13.7727 18.3531 13.047 18.9889V18.7044C13.0554 18.4451 13.047 18.4367 12.9879 18.6291C12.9288 18.8048 12.9204 18.8132 12.9119 18.671C12.9035 18.5789 13.0638 18.1857 13.2579 17.8009C13.4605 17.4077 13.6799 17.0647 13.7474 17.0313C13.8149 16.9978 14.1018 16.8305 14.3803 16.6715Z" fill="#9C6540"/>
<path d="M14.3381 20.7791C14.5491 20.6369 15.0976 20.3023 15.5618 20.0346C16.0259 19.7752 16.431 19.5577 16.4648 19.5577C16.507 19.5494 16.5323 19.5995 16.5323 19.6497C16.5323 19.7083 16.431 19.8589 16.3044 19.976C16.1694 20.1015 15.7812 20.3776 15.4352 20.5951C15.0892 20.8209 14.6419 21.1221 14.4394 21.2811C14.2453 21.4316 14.085 21.6157 14.085 21.6826C14.085 21.7495 13.9921 21.9503 13.8824 22.1176C13.7643 22.2933 13.5786 22.7283 13.4605 23.0797C13.3423 23.4394 13.2411 23.7908 13.2411 23.8577C13.2411 23.9246 13.1989 23.9832 13.1567 23.9832C13.106 23.9832 13.0723 23.6653 13.0638 23.2052C13.0554 22.6698 13.0301 22.5108 12.9879 22.6865C12.9373 22.8873 12.9204 22.904 12.9119 22.7451C12.9119 22.6447 12.9795 22.3602 13.0723 22.1176C13.1567 21.8834 13.3676 21.5237 13.5364 21.3229C13.6968 21.1305 13.8571 20.9883 13.8909 21.0134C13.9331 21.0301 14.1272 20.9297 14.3381 20.7791Z" fill="#9C6540"/>
<path d="M16.5749 15.778L17.2077 15.4936C17.5536 15.343 17.8658 15.2092 17.8995 15.2092C17.9417 15.2009 17.967 15.41 17.967 15.6609C17.967 16.079 17.9417 16.1376 17.6971 16.3216C17.5452 16.4303 17.2583 16.5976 17.0643 16.698C16.8618 16.79 16.6593 16.8736 16.6171 16.8736C16.5665 16.8736 16.5412 16.6478 16.5749 15.778Z" fill="#9C6540"/>
<path d="M14.0017 23.7787C14.103 23.511 14.2549 23.2182 14.3308 23.1345C14.4068 23.0509 14.4743 22.9839 14.4912 22.9839C14.4996 22.9756 14.5081 23.9125 14.5081 25.067C14.5081 27.058 14.4996 27.1501 14.3646 27.0162C14.2802 26.9326 14.1199 26.5896 14.0102 26.2382C13.8751 25.8032 13.8161 25.4016 13.8076 24.9415C13.8076 24.4396 13.8583 24.1468 14.0017 23.7787Z" fill="#9C6540"/>
<path d="M36.7365 25.1256C36.7618 25.0503 36.7955 24.6905 36.804 24.3308L36.8209 23.6867L36.8462 24.3977C36.863 24.8662 36.8377 25.1339 36.7787 25.1925C36.7027 25.2511 36.6943 25.2343 36.7365 25.1256Z" fill="#9C6540"/>
<path fill-rule="evenodd" clip-rule="evenodd" d="M23.6944 10.4715C23.0757 10.3724 22.6735 10.3477 22.3965 10.356C22.118 10.3644 21.8142 10.3811 21.7214 10.3978C21.6614 10.4086 21.5206 10.4369 21.3601 10.469C21.2721 10.4867 21.1781 10.5055 21.0885 10.5233C20.8353 10.5735 20.3796 10.7408 20.0758 10.8914C19.772 11.042 19.4007 11.2678 19.2487 11.4017C19.0968 11.5356 18.9787 11.6527 18.9956 11.661C19.0125 11.6778 19.3078 11.569 19.6538 11.4352C19.9998 11.2929 20.5146 11.1173 20.7931 11.042C21.0716 10.9751 21.5695 10.9081 21.8902 10.9081C22.2108 10.9081 22.6919 10.9751 22.945 11.042C23.0716 11.0796 23.2045 11.1173 23.3153 11.1486C23.4261 11.18 23.5147 11.2051 23.5527 11.2177C23.6544 11.2513 23.6907 11.2254 23.7011 11.0401C23.7176 11.2686 23.7779 11.2988 24.0826 11.4361C24.2936 11.5281 24.6734 11.8042 24.935 12.0385C25.1966 12.2811 25.4919 12.6492 25.6017 12.8583C25.7114 13.0674 25.8633 13.4606 25.9392 13.7367C26.0658 14.1801 26.0996 14.2219 26.1755 14.0713C26.2346 13.9793 26.2768 13.5443 26.2768 13.1093C26.2768 12.4567 26.243 12.256 26.0996 11.9799C25.9983 11.7958 25.762 11.503 25.5679 11.3357C25.3822 11.1601 25.0784 10.9425 24.9012 10.8589C24.7324 10.7752 24.3864 10.6414 24.1417 10.5745L23.6944 10.4406V10.4715ZM27.7722 10.8747C27.6709 10.6739 27.5612 10.5149 27.5359 10.5149C27.5106 10.5149 27.5106 10.791 27.5443 11.1173C27.5865 11.4519 27.6118 11.7698 27.6118 11.8116C27.6118 11.8618 27.5865 12.2215 27.5528 12.6231C27.5274 13.033 27.519 13.3593 27.5443 13.3593C27.5696 13.3593 27.6709 13.2003 27.7722 13.0079C27.9241 12.7151 27.9663 12.5143 27.9663 11.9371C27.9663 11.3599 27.9241 11.1591 27.7722 10.8747ZM31.7048 12.1964C31.0212 11.8451 30.8018 11.7698 30.4389 11.7698C30.1604 11.7698 29.8566 11.8367 29.6203 11.9455C29.4262 12.0459 29.2574 12.1546 29.2659 12.1964C29.2743 12.2383 29.4515 12.2132 29.6794 12.1379C29.9326 12.0459 30.211 12.0124 30.4558 12.0459C30.6668 12.071 31.1815 12.2215 31.595 12.3805C32.0086 12.5394 32.4305 12.6984 32.5233 12.7318C32.6415 12.782 32.6668 12.7737 32.6077 12.7068C32.5571 12.6566 32.152 12.4307 31.7048 12.1964ZM23.6624 13.0665C22.7256 12.69 22.4893 12.6566 21.5104 12.6315C20.523 12.6147 20.2699 12.6315 19.5694 12.8155C19.1306 12.9243 18.2951 13.0665 17.7213 13.125C16.8858 13.2087 16.6664 13.2087 16.6411 13.1334C16.6242 13.0748 16.5398 13.0246 16.447 13.0246C16.3542 13.0246 16.2782 13.0832 16.2782 13.1501C16.2782 13.2171 16.3035 13.2756 16.3373 13.284C16.3795 13.284 16.4807 13.3007 16.5736 13.3174C16.6664 13.3342 16.9702 13.4095 17.2487 13.4848C17.6622 13.5935 18.1939 13.6102 20.2446 13.5935C22.5484 13.5684 22.7678 13.5852 23.2235 13.7357L23.7046 13.903L23.7042 13.8963C24.5555 14.3224 24.8084 14.4227 24.8084 14.3976C24.8084 14.3809 24.7324 14.2219 24.6396 14.0462C24.5468 13.8705 24.4202 13.6781 24.3611 13.6028C24.302 13.5359 24.1417 13.3853 23.9898 13.2849L23.7282 13.0925L23.7034 13.8797L23.6624 13.0665ZM31.0043 13.6939C30.4895 13.5433 29.9748 13.4429 29.6963 13.4429C29.384 13.4429 29.1393 13.5015 28.9621 13.6102C28.8102 13.7023 28.6498 13.8529 28.5992 13.9449C28.5486 14.0369 28.5317 14.1122 28.557 14.1122C28.5823 14.1122 28.8355 14.0536 29.1224 13.9783C29.4769 13.8863 29.7807 13.8612 30.0338 13.903C30.2448 13.9365 30.7765 14.0704 31.2153 14.2042C31.7723 14.3715 32.1858 14.4468 32.5655 14.4468C32.8693 14.4385 33.2238 14.3883 33.3504 14.3297L33.5867 14.2126C33.3684 14.1786 33.1588 14.1469 32.9634 14.1172C32.7735 14.0884 32.597 14.0616 32.439 14.0369C32.1183 13.9951 31.4685 13.8361 31.0043 13.6939ZM23.7046 15.5762C22.3965 15.2834 21.7636 15.1997 21.4429 15.1997C21.0294 15.1997 20.7678 15.2499 20.4555 15.3921C20.2192 15.5009 19.9239 15.7184 19.7888 15.8774C19.6538 16.0363 19.4513 16.3542 19.3331 16.5801C19.215 16.8143 19.0547 17.2075 18.9618 17.4585L18.8015 17.9186C19.139 18.1445 19.2319 18.2532 19.2319 18.295C19.2319 18.3369 18.9534 18.7803 18.6074 19.2738C18.2614 19.7758 17.8563 20.445 17.7044 20.7629C17.4597 21.29 17.4428 21.3987 17.485 21.8505C17.5187 22.1265 17.6116 22.6369 17.7044 22.9798C17.7888 23.3228 17.9913 23.9084 18.1432 24.2765C18.3036 24.6446 18.4808 24.9876 18.5314 25.0462C18.6243 25.1382 18.7002 25.1215 18.9534 24.996C19.1306 24.9123 19.3331 24.7701 19.4007 24.6948C19.4682 24.6112 19.7045 24.3937 19.9239 24.218C20.1517 24.0423 20.388 23.9001 20.4555 23.9001C20.523 23.9001 20.599 23.9503 20.6243 24.0088C20.6581 24.059 20.4977 24.3937 20.2867 24.7366C19.9576 25.2721 19.907 25.4143 19.9239 25.7405C19.9492 26.0919 19.9829 26.1337 20.3458 26.368C20.5652 26.5102 20.7425 26.6775 20.7509 26.7444C20.7509 26.8113 20.7087 26.9117 20.6496 26.9703C20.5652 27.0456 20.5821 27.079 20.7425 27.1376C20.9197 27.1962 20.9366 27.238 20.8859 27.5224C20.8437 27.8069 20.8522 27.8403 21.0885 27.9574C21.2319 28.0244 21.6539 28.1248 22.0336 28.175C22.4218 28.2251 22.9535 28.2419 23.2151 28.2168L23.7046 28.1666C23.713 27.0456 23.6792 26.9285 23.5273 26.7862C23.4261 26.6942 23.2404 26.46 23.1054 26.2676C22.945 26.0333 22.7088 25.8326 22.4387 25.6987C22.2024 25.5816 22.0168 25.4394 22.0168 25.3892C22.0083 25.3306 22.0589 25.2386 22.118 25.1884C22.1771 25.1298 22.3628 25.0545 22.5231 25.0043C22.7509 24.9458 22.9197 24.9542 23.2573 25.0629L23.6961 25.1968L23.7046 15.5762ZM19.7129 20.8633C19.3922 20.5789 19.2403 20.3865 19.2656 20.3028C19.2909 20.2359 19.4766 20.1104 19.6707 20.0351C19.8732 19.9598 20.1433 19.8929 20.2867 19.8929C20.4218 19.8845 20.7847 19.9598 21.0885 20.0518C21.3923 20.1439 21.7636 20.2192 21.907 20.2192C22.0589 20.2192 22.2024 20.1773 22.2277 20.1355C22.253 20.0937 22.3459 20.0518 22.4387 20.0518C22.5315 20.0518 22.6244 20.102 22.6497 20.1606C22.675 20.2108 22.6075 20.7713 22.4978 21.3904C22.3374 22.3691 22.2952 22.5197 22.1518 22.5197C22.0421 22.5197 21.9492 22.3942 21.8395 22.1014C21.7639 21.8932 21.7259 21.7887 21.6517 21.73C21.5768 21.6707 21.465 21.6582 21.2404 21.633C20.9956 21.6079 20.6581 21.5242 20.4977 21.4406C20.3374 21.3653 19.9829 21.1059 19.7129 20.8633ZM27.9409 15.1997H27.5021V15.2011C27.2111 15.2177 27.0525 15.2343 26.9603 15.2509C26.9202 15.2617 26.8058 15.2882 26.6474 15.325C26.4394 15.3732 26.1554 15.439 25.8633 15.5102C25.1038 15.6859 24.8253 15.7194 24.3274 15.6692L23.7113 15.619V25.2395C24.0067 25.2981 24.3611 25.3232 24.6818 25.3232C25.07 25.3232 25.4919 25.2479 25.9055 25.1224C26.4878 24.9384 26.5721 24.93 26.9013 25.0388C27.1629 25.1224 27.2557 25.1977 27.2557 25.3232C27.2557 25.432 27.1291 25.5574 26.9013 25.6913C26.6987 25.8001 26.4287 26.0343 26.2937 26.21C26.1671 26.394 25.8211 26.7537 25.5341 27.0214C25.0362 27.4899 25.0194 27.515 25.0869 27.8162C25.1206 27.9835 25.1544 28.1257 25.1713 28.1341C25.1797 28.1425 25.5341 28.1592 25.9477 28.1675C26.3696 28.1843 26.8844 28.1926 27.1122 28.1843L27.5089 28.1675C27.5089 23.466 27.4751 22.1526 27.4414 22.2112C27.4076 22.2697 27.3063 22.3115 27.2135 22.2948C27.0616 22.2697 27.0363 22.1693 26.9772 21.4331C26.935 20.973 26.9266 20.5129 26.9519 20.4042C26.9941 20.2619 27.0616 20.2201 27.2557 20.2201H27.5089V19.0566C27.5207 19.9326 27.5491 20.2192 27.6034 20.2192C27.6625 20.2192 27.9409 20.1439 28.2194 20.0518C28.4979 19.9598 28.8608 19.8845 29.0211 19.8845C29.1815 19.8845 29.4853 19.9682 29.6963 20.0686C29.9072 20.1773 30.076 20.3028 30.076 20.3614C30.076 20.4199 29.806 20.6876 29.4853 20.9553C29.1477 21.2398 28.7511 21.4907 28.557 21.5493C28.3713 21.5995 28.0929 21.6413 27.9409 21.6413C27.7553 21.6413 27.6456 21.6915 27.5865 21.8086C27.5359 21.9174 27.5106 23.1304 27.519 25.0629L27.5443 28.1415C28.1519 27.9993 28.3798 27.9073 28.4473 27.8571C28.5401 27.765 28.5317 27.7316 28.3967 27.6479C28.2869 27.5726 28.2616 27.4806 28.2954 27.3551C28.3207 27.2464 28.4304 27.1376 28.5317 27.1125C28.6836 27.079 28.7005 27.0456 28.6161 26.9703C28.557 26.9117 28.5148 26.8113 28.5148 26.7444C28.5148 26.6775 28.692 26.5269 28.9199 26.4098L29.3165 26.2006C29.3081 25.3641 29.249 25.1884 28.9958 24.7617C28.7342 24.3267 28.7005 24.2096 28.7849 24.1092C28.8439 24.0339 28.9199 23.9754 28.9536 23.9837C28.9958 23.9837 29.249 24.1929 29.5275 24.4438C29.806 24.6948 30.1435 24.9625 30.287 25.0294C30.4305 25.0964 30.5739 25.1549 30.6246 25.1549C30.6752 25.1549 30.8609 24.8621 31.0381 24.5108C31.2237 24.151 31.4516 23.5738 31.5444 23.2308C31.6372 22.8878 31.747 22.3022 31.7723 21.9341C31.8229 21.29 31.8145 21.2481 31.536 20.7211C31.3841 20.4199 30.9706 19.7507 30.6246 19.2236L29.9916 18.27C30.3883 17.9604 30.4051 17.9102 30.3461 17.6007C30.3039 17.4083 30.1604 17.0067 30.0085 16.7056C29.865 16.4044 29.6288 16.0363 29.4853 15.8774C29.3503 15.7184 29.038 15.5009 28.8102 15.3921C28.5401 15.2667 28.2279 15.1997 27.9409 15.1997ZM30.2617 15.4842L29.9072 15.434L30.7933 16.3124C31.401 16.9063 31.8398 17.2577 32.1858 17.4334C32.4643 17.5756 33.0888 17.768 33.5782 17.8768C34.0677 17.9772 34.6162 18.1194 34.8019 18.1863C34.9875 18.2532 35.2154 18.3787 35.3082 18.4707C35.4011 18.5628 35.6795 18.7886 35.9158 18.9727C36.2196 19.1985 36.38 19.2655 36.4053 19.1902C36.4306 19.14 36.38 18.8806 36.2871 18.6297C36.1943 18.3787 35.9918 18.0441 35.8399 17.8935C35.6795 17.7345 35.4517 17.6091 35.3082 17.5923C35.1732 17.5756 34.6415 17.4417 34.1268 17.2995C33.612 17.1489 32.9706 16.9231 32.6921 16.7892C32.4136 16.6554 31.9748 16.396 31.7216 16.2036C31.4685 16.0112 31.114 15.7853 30.9368 15.6933C30.768 15.6097 30.4642 15.5093 30.2617 15.4842ZM34.6078 19.9598H34.3799L34.6753 20.169C34.8356 20.2861 35.1985 20.6374 35.477 20.9637C35.7555 21.29 36.0171 21.5242 36.0509 21.4907C36.0931 21.4573 36.0677 21.2649 36.0087 21.0641C35.9496 20.8633 35.7977 20.5705 35.6627 20.4116C35.5361 20.261 35.4095 20.1439 35.3673 20.169C35.3335 20.1941 35.207 20.1522 35.0719 20.0853C34.9453 20.0184 34.7428 19.9598 34.6078 19.9598ZM33.3841 20.6207C33.2153 20.4869 33.0466 20.3781 33.0212 20.3781C32.9959 20.3781 33.0212 20.4618 33.0803 20.5705C33.1394 20.6709 33.3588 20.9386 33.5698 21.1645C33.7808 21.382 34.1605 21.725 34.4137 21.9174C34.6669 22.1014 35.1394 22.5783 35.4601 22.9715C35.7892 23.3647 36.1774 23.9503 36.3378 24.2682C36.4897 24.5944 36.6163 24.904 36.6163 24.9625C36.6163 25.0127 36.65 25.0629 36.7007 25.0629C36.7513 25.0629 36.7935 24.7701 36.8019 24.3769L36.8188 23.6826L36.9201 25.1047C36.9538 23.967 36.9116 23.6909 36.7682 23.3312C36.6332 22.9715 36.4391 22.7038 36.0087 22.2855C35.6964 21.9676 35.4011 21.7334 35.3504 21.7585C35.2998 21.7835 34.9116 21.5911 34.4812 21.3318C34.0592 21.0808 33.5613 20.7546 33.3841 20.6207ZM15.7887 21.6748C15.755 21.6497 15.7044 21.633 15.679 21.633C15.6453 21.633 15.333 21.9341 14.9702 22.3022C14.6073 22.6703 14.3204 23.0217 14.3288 23.0802C14.3372 23.1472 14.3626 23.1472 14.4216 23.0551C14.4723 22.9715 14.506 23.6575 14.506 25.0629C14.506 26.4683 14.4723 27.1543 14.4216 27.0707C14.3654 26.987 14.3372 26.9814 14.3372 27.0539C14.3372 27.1041 14.6664 27.7316 15.0714 28.4343C15.4765 29.1286 15.8731 29.8983 15.966 30.1242L16.1263 30.5424C15.7212 30.1827 15.5862 30.1242 15.5609 30.166C15.5356 30.2162 15.6031 30.4086 15.7044 30.6094C15.8225 30.8352 15.9238 31.2786 15.9913 31.881C16.0504 32.3913 16.1601 32.9601 16.2276 33.1609C16.3035 33.3617 16.4132 33.5123 16.4892 33.5123C16.5567 33.5123 16.6833 33.6294 16.7592 33.7632C16.8436 33.9055 16.928 34.0142 16.9533 34.0142C16.9786 34.0142 16.9533 33.7381 16.8943 33.4119C16.8352 33.0773 16.793 32.6171 16.7846 32.3829C16.7846 32.157 16.8267 31.5714 16.8858 31.0862C16.9618 30.3919 16.9618 30.1074 16.8774 29.7059C16.8183 29.4298 16.7424 29.0534 16.7086 28.8693C16.6748 28.6853 16.4554 28.2001 16.2191 27.7818C15.9744 27.3718 15.6959 26.803 15.6031 26.5269C15.5018 26.2508 15.3668 25.7489 15.2993 25.4226C15.2318 25.088 15.1811 24.5191 15.1811 24.1678C15.1811 23.8081 15.2402 23.2726 15.3162 22.9715C15.3837 22.6703 15.5356 22.2688 15.6537 22.0763C15.7634 21.8756 15.8309 21.6999 15.7887 21.6748ZM34.5065 23.4316C34.3293 23.0635 33.9833 22.5532 33.747 22.3022C33.5023 22.0513 33.3419 21.9174 33.3672 22.0094C33.401 22.1014 33.5023 22.4026 33.5951 22.6787C33.6795 22.9547 33.7976 23.4483 33.8398 23.7662C33.9073 24.2012 33.9073 24.5275 33.8314 25.0211C33.7723 25.3892 33.6373 25.958 33.5191 26.2759C33.401 26.6022 33.1394 27.146 32.9453 27.489C32.7428 27.832 32.4558 28.359 32.3208 28.6602C32.1773 28.9613 32.0254 29.4382 31.9748 29.731C31.9157 30.074 31.9157 30.509 31.9748 31.0277C32.017 31.4459 32.0592 32.0399 32.0508 32.3411C32.0508 32.6422 32.0086 33.1609 31.9495 33.4955C31.8904 33.8218 31.8651 34.0979 31.8904 34.0979C31.9157 34.1062 32.0508 33.8887 32.2027 33.621C32.3968 33.278 32.5318 32.8347 32.6837 32.0901C32.8018 31.5129 32.9537 30.8771 33.0297 30.6679C33.0545 30.5911 33.0781 30.5189 33.0981 30.4577C33.1326 30.3523 33.1563 30.28 33.1563 30.2747C33.1563 30.258 33.0634 30.3082 32.9453 30.3751C32.785 30.4755 32.7259 30.4755 32.7006 30.4002C32.6837 30.3417 32.7512 30.0823 32.8525 29.8314C32.9453 29.5804 33.3082 28.9362 33.6373 28.4092C33.9749 27.8822 34.3631 27.2045 34.4981 26.9034C34.6415 26.6022 34.8019 26.1337 34.8525 25.8577C34.9031 25.5816 34.9285 25.0796 34.8947 24.7283C34.8525 24.2263 34.7766 23.967 34.5065 23.4316ZM31.9664 25.8242C32.017 25.523 32.0423 25.2721 32.0339 25.2553C32.017 25.2386 31.9579 25.3306 31.8989 25.4645C31.8398 25.5899 31.5444 25.9915 31.2575 26.3596C30.9621 26.7277 30.5992 27.2966 30.4473 27.6145C30.1942 28.1499 30.1689 28.2837 30.1351 29.1621C30.1098 29.9401 30.1351 30.2413 30.2701 30.7098L30.4389 31.2954C30.3629 30.0405 30.3883 29.4633 30.4473 29.1203C30.5064 28.8024 30.6246 28.3674 30.7258 28.1582C30.8187 27.9491 31.055 27.5726 31.249 27.3216C31.4516 27.0707 31.671 26.7528 31.747 26.6106C31.8145 26.4767 31.9157 26.117 31.9664 25.8242ZM17.0124 25.523L16.8774 25.2721L16.8689 25.6067C16.8689 25.8075 16.9618 26.1421 17.1052 26.4433C17.2403 26.7193 17.5187 27.2129 17.7297 27.5308C17.9407 27.8571 18.2023 28.359 18.312 28.6602C18.4724 29.1119 18.5061 29.3713 18.5061 30.166C18.5061 31.036 18.5146 31.0946 18.6074 30.7934C18.658 30.6094 18.734 30.1744 18.7677 29.8314C18.8015 29.4716 18.7846 28.9613 18.734 28.6434C18.6833 28.3255 18.5314 27.8571 18.3964 27.5977C18.2614 27.33 17.9323 26.8113 17.6538 26.4433C17.3753 26.0752 17.0884 25.6652 17.0124 25.523ZM21.8395 28.9697C21.7298 28.886 21.6117 28.8191 21.5779 28.8275C21.5442 28.8275 21.5188 28.9028 21.5188 28.9948C21.5188 29.0868 21.6201 29.3629 21.7467 29.6055L21.983 30.0405C22.0252 29.1872 22.0083 29.1035 21.8395 28.9697ZM27.6709 29.0199C27.6709 28.9111 27.6371 28.8275 27.5949 28.8275C27.5443 28.8275 27.5106 28.9864 27.5106 29.1872C27.519 29.4633 27.5359 29.5051 27.5949 29.3713C27.6287 29.2792 27.6709 29.1203 27.6709 29.0199ZM23.0126 31.2786C22.9113 31.1782 22.8016 31.0862 22.7763 31.0862C22.7509 31.0862 22.7425 31.2201 22.7594 31.379L22.7847 31.6718C23.5069 31.7047 23.6673 31.7117 23.7029 31.6039V31.7983C25.8295 31.6979 26.4624 31.656 26.4709 31.6477C26.4878 31.6393 26.4793 31.4804 26.4624 31.3047L26.4287 30.9701L26.2599 31.221C26.0996 31.4553 26.0827 31.4636 25.8042 31.3632C25.6438 31.3047 25.1206 31.2545 24.6143 31.2545H23.7029V31.3466C23.694 31.2893 23.6809 31.2535 23.6708 31.2535C23.6455 31.2535 23.5273 31.3037 23.4176 31.3623C23.232 31.4543 23.1813 31.4376 23.0126 31.2786ZM21.9746 32.0734L21.6792 31.7555V32.0064C21.6792 32.1487 21.7383 32.316 21.8142 32.3829C21.8817 32.4498 21.9746 32.5084 22.0252 32.5084C22.0674 32.5084 22.1096 32.5837 22.1096 32.6757C22.1096 32.7761 22.0336 32.8598 21.9408 32.8848C21.8227 32.9183 21.772 32.9936 21.772 33.1609C21.772 33.2864 21.8648 33.5876 21.983 33.8302C22.1433 34.1564 22.2446 34.2819 22.4218 34.3154C22.5484 34.3488 22.8944 34.307 23.1813 34.2317L23.713 34.0979V34.057C24.8253 34.0821 24.9011 34.0737 24.7746 33.9901C24.6649 33.9232 24.6312 33.8311 24.6649 33.7391C24.7156 33.6136 24.7662 33.6053 25.0616 33.6805C25.2472 33.7224 25.6523 33.8562 25.9645 33.9734C26.2768 34.0905 26.6312 34.1825 26.7494 34.1825C26.8591 34.1741 27.0025 34.149 27.0532 34.1156C27.1122 34.0821 27.2304 33.8813 27.3317 33.6805C27.4245 33.4714 27.5004 33.2121 27.5004 33.1117C27.5089 32.9946 27.4414 32.9109 27.3401 32.8858C27.2473 32.8607 27.1713 32.7854 27.1713 32.7185C27.1713 32.6432 27.2473 32.5261 27.3485 32.4424C27.4414 32.3588 27.5004 32.2333 27.4836 32.158C27.4414 32.0325 27.416 32.0409 27.2135 32.1998C27.0025 32.3671 26.8759 32.3839 25.7029 32.3922L25.5529 32.394C24.8995 32.4018 24.246 32.4096 24.0657 32.4173L23.713 32.4257V32.4247L23.7095 32.4246C22.2699 32.3829 22.2613 32.3827 21.9746 32.0734ZM30.3208 34.2819C30.2279 33.9557 30.1351 33.6796 30.1098 33.6796C30.0929 33.6796 30.076 34.123 30.076 34.6584C30.0845 35.4448 30.0423 35.7627 29.8988 36.2311C29.7975 36.549 29.6456 36.9088 29.5528 37.0259C29.4009 37.2099 29.3756 37.2183 29.249 37.1095C29.1393 37.0091 29.1055 36.8418 29.114 36.3566L29.1224 35.7292C28.5992 36.5072 28.2363 36.9422 27.9747 37.1932C27.519 37.6449 27.5106 37.6617 27.5106 38.1301V38.6154C28.0338 38.2891 28.2532 38.2054 28.3291 38.2222C28.422 38.2305 28.4726 38.3058 28.4642 38.4062C28.4557 38.4982 28.422 38.6656 28.3882 38.7827L28.3207 38.9918C28.8946 38.6656 29.2321 38.4062 29.4515 38.1971C29.6709 37.9879 29.9663 37.5696 30.1351 37.235C30.3967 36.708 30.422 36.5741 30.4558 35.771C30.4811 35.0767 30.4473 34.7671 30.3208 34.2819ZM20.1686 35.0348C20.042 34.6166 19.8986 34.2652 19.8648 34.2652C19.831 34.2652 19.8226 34.5747 19.8479 34.9512C19.8732 35.495 19.9407 35.7459 20.1264 36.1056C20.253 36.3566 20.4555 36.6912 20.5821 36.8502C20.7003 37.0091 21.215 37.4525 21.7298 37.829C22.2362 38.2054 22.8185 38.6823 23.021 38.8831C23.2488 39.1089 23.4429 39.4101 23.5442 39.7029L23.7046 40.163C23.713 39.4101 23.637 39.201 23.3754 38.7157C23.1813 38.3728 22.81 37.8959 22.5062 37.5947C22.2193 37.3187 21.7129 36.9088 21.3923 36.6912C21.0631 36.4737 20.7171 36.1893 20.6074 36.0555C20.4977 35.9216 20.3036 35.4615 20.1686 35.0348ZM19.0209 36.5658C18.9449 36.3817 18.8521 35.8965 18.8268 35.4782C18.7762 34.7504 18.7677 34.7337 18.6665 35.0181C18.6074 35.1771 18.5652 35.5535 18.5652 35.8547C18.5652 36.2813 18.6158 36.4737 18.7762 36.7498C18.8943 36.9506 19.0968 37.1848 19.2403 37.2768C19.3753 37.3689 19.4935 37.4274 19.4935 37.4023C19.4935 37.3799 19.433 37.2842 19.36 37.1687C19.3512 37.1548 19.3422 37.1406 19.3331 37.1263C19.2403 37.0008 19.1053 36.7498 19.0209 36.5658ZM23.9729 27.1804L23.7197 26.988V27.5819C23.7113 28.1508 23.7197 28.1675 23.9223 28.1675C24.0573 28.1675 24.167 28.1006 24.2261 27.9751C24.2767 27.8747 24.302 27.6991 24.2767 27.5819C24.2514 27.4648 24.1164 27.2891 23.9729 27.1804ZM27.5004 29.2718C27.5004 29.071 27.4667 28.9121 27.4245 28.9121C27.3823 28.9121 27.3232 28.9539 27.3063 28.9958C27.281 29.0459 27.2388 29.2969 27.2051 29.5646L27.1544 30.0415C27.4414 29.6985 27.5004 29.4977 27.5004 29.2718ZM27.5089 38.6163C27.5089 37.8969 27.4751 37.6961 27.4498 37.6961C27.416 37.6961 27.1376 37.9471 26.8253 38.2566C26.5215 38.5661 26.1502 38.9928 25.9983 39.2019C25.8548 39.4027 25.7451 39.5867 25.7536 39.5951C25.762 39.6118 26.1671 39.3943 26.6397 39.1183L27.5089 38.6163ZM23.8632 40.2476C23.8632 40.1054 23.8295 39.8795 23.7957 39.7457C23.7366 39.5115 23.7282 39.5282 23.7197 39.8712C23.7113 40.072 23.7451 40.2978 23.7957 40.3731C23.8548 40.4651 23.8717 40.4317 23.8632 40.2476Z" fill="url(#paint0_linear_2903_23585)"/>
<path d="M28.1193 20.5799C28.2459 20.6636 28.2965 20.6469 28.44 20.4545V20.4461C28.5328 20.3206 28.651 20.2202 28.6932 20.2202C28.7354 20.2202 28.7944 20.3206 28.8198 20.4461C28.862 20.6301 28.8282 20.7222 28.651 20.8727C28.4906 21.015 28.3472 21.0568 28.1109 21.0401C27.8577 21.0233 27.7902 20.9731 27.7564 20.8142C27.7311 20.6887 27.7649 20.5883 27.8408 20.5548C27.9083 20.513 28.0349 20.5297 28.1193 20.5799Z" fill="white"/>
<path d="M20.3976 20.5799C20.3892 20.4461 20.4145 20.3122 20.4567 20.2871C20.4989 20.2537 20.558 20.2286 20.6001 20.2286C20.6339 20.2286 20.7436 20.329 20.828 20.4545C20.9546 20.6469 21.0052 20.672 21.0981 20.5799C21.1656 20.5297 21.2837 20.4963 21.3597 20.5214C21.4441 20.5465 21.5116 20.6218 21.5116 20.6887C21.5116 20.7556 21.4947 20.8727 21.4694 20.9397C21.4441 21.015 21.3259 21.0652 21.174 21.0652C21.0305 21.0652 20.8111 21.0066 20.6677 20.9397C20.482 20.8476 20.4145 20.7473 20.3976 20.5799Z" fill="white"/>
<defs>
<linearGradient id="paint0_linear_2903_23585" x1="14.8268" y1="25.3866" x2="35.3722" y2="25.3866" gradientUnits="userSpaceOnUse">
<stop stop-color="#9C6540"/>
<stop offset="0.445" stop-color="#DFBF96"/>
<stop offset="1" stop-color="#9C6540"/>
</linearGradient>
</defs>
</svg>
