<svg width="49" height="49" viewBox="0 0 49 49" fill="none" xmlns="http://www.w3.org/2000/svg">
<circle cx="24.5" cy="24.5" r="24.5" fill="#2B2B2B"/>
<path d="M22.4979 5.5839C22.8176 5.55228 23.1549 5.52416 23.2533 5.51714C23.3482 5.51011 23.819 5.50308 24.2968 5.49957C24.7782 5.49605 25.4001 5.51011 25.6847 5.52768C25.9728 5.54876 26.4647 5.59796 26.7844 5.63661C27.1042 5.67527 27.6101 5.75258 27.9088 5.8088C28.2074 5.86503 28.7134 5.97748 29.0331 6.05479C29.3529 6.13561 29.9607 6.31483 30.3859 6.4589C30.811 6.59947 31.4364 6.83139 31.7737 6.97898C32.111 7.12306 32.5959 7.34444 32.8454 7.47095C33.0948 7.59394 33.5165 7.81884 33.7765 7.96995C34.0365 8.11754 34.5178 8.41975 34.8481 8.63762C35.1784 8.85549 35.6352 9.17878 35.8671 9.35448C36.0989 9.5337 36.4854 9.84645 36.7279 10.0538C36.9703 10.2576 37.4446 10.7039 37.782 11.0447C38.1193 11.3821 38.5514 11.8424 38.7376 12.0638C38.9274 12.2852 39.2155 12.6401 39.3806 12.8545C39.5458 13.0688 39.8374 13.4694 40.0271 13.7506C40.2169 14.0317 40.4909 14.4569 40.635 14.6994C40.7826 14.9418 41.018 15.367 41.1655 15.6482C41.3131 15.9293 41.5134 16.3404 41.6153 16.5618C41.7136 16.7832 41.8718 17.1557 41.9631 17.3876C42.058 17.6195 42.1985 17.9991 42.2793 18.231C42.3601 18.4629 42.5007 18.9197 42.5956 19.2501C42.6869 19.5804 42.8204 20.1145 42.8872 20.4448C42.9575 20.7752 43.0523 21.3198 43.1015 21.6572C43.1507 21.9945 43.2104 22.4795 43.235 22.729C43.2631 23.0031 43.2807 23.6743 43.2807 24.3982C43.2807 25.1361 43.2596 25.7897 43.235 26.0673C43.2069 26.3168 43.1577 26.7526 43.1191 27.0337C43.0804 27.3148 42.9996 27.7787 42.9434 28.0703C42.8872 28.3585 42.7748 28.8505 42.6939 29.1597C42.6166 29.4689 42.4691 29.975 42.3672 30.2842C42.2653 30.5934 42.0931 31.0678 41.9877 31.3384C41.8788 31.609 41.682 32.0658 41.5485 32.3575C41.415 32.6456 41.1972 33.0814 41.0672 33.3239C40.9371 33.5663 40.7334 33.9212 40.6174 34.1145C40.5015 34.3078 40.2485 34.7014 40.0517 34.993C39.855 35.2812 39.5563 35.7029 39.3841 35.9243C39.212 36.1456 38.8958 36.5357 38.6779 36.7852C38.4601 37.0347 37.9822 37.5337 37.6203 37.8921C37.2549 38.2506 36.7981 38.6758 36.6049 38.8374C36.4117 38.9991 36.0146 39.3083 35.7265 39.5262C35.4349 39.744 34.9922 40.0568 34.7427 40.2184C34.4932 40.3836 34.0716 40.6401 33.8116 40.7947C33.5516 40.9458 33.021 41.2199 32.6346 41.4097C32.2481 41.5959 31.7035 41.8419 31.4224 41.9509C31.1413 42.0633 30.6353 42.246 30.298 42.3585C29.9607 42.4709 29.3599 42.6396 28.9629 42.738C28.5658 42.8364 27.965 42.9629 27.6277 43.0191C27.2904 43.0789 26.7915 43.1492 26.5209 43.1773C26.2504 43.2089 25.7198 43.2511 25.3439 43.2722C24.9398 43.2967 24.353 43.3003 23.9209 43.2897C23.5168 43.2757 22.9441 43.244 22.656 43.2159C22.3644 43.1878 21.9462 43.1386 21.7249 43.1105C21.5035 43.0789 21.0749 43.0051 20.7762 42.9489C20.4776 42.8891 19.9786 42.7802 19.6694 42.6994C19.3602 42.6221 18.8297 42.4674 18.4924 42.355C18.1551 42.2425 17.6316 42.0528 17.3329 41.9333C17.0342 41.8138 16.4405 41.5432 16.0153 41.3359C15.5902 41.1251 15.028 40.8229 14.768 40.6682C14.508 40.5101 14.1215 40.2676 13.9072 40.1271C13.6928 39.983 13.3134 39.7124 13.0639 39.5262C12.8109 39.3364 12.4244 39.0307 12.2031 38.8444C11.9817 38.6617 11.4722 38.1838 11.0752 37.7867C10.6782 37.3896 10.2179 36.9082 10.0528 36.7149C9.88762 36.5217 9.58897 36.1492 9.38869 35.8891C9.18842 35.6291 8.85463 35.1617 8.64733 34.8525C8.44354 34.5432 8.15191 34.0759 8.00434 33.8158C7.85326 33.5558 7.62488 33.1271 7.49487 32.867C7.36487 32.607 7.15757 32.1642 7.03811 31.8831C6.91513 31.602 6.73243 31.1451 6.63053 30.864C6.52864 30.5829 6.3881 30.1647 6.31782 29.9328C6.24755 29.7009 6.12106 29.2265 6.03322 28.8786C5.9489 28.5307 5.83295 27.9684 5.77673 27.6311C5.717 27.2937 5.64673 26.8018 5.61862 26.5417C5.587 26.2817 5.54484 25.7581 5.52375 25.3821C5.49916 24.9885 5.49213 24.3771 5.50619 23.9413C5.51673 23.5267 5.55186 22.9258 5.57997 22.606C5.61159 22.2862 5.66781 21.8118 5.70646 21.5518C5.74511 21.2917 5.82592 20.849 5.88214 20.5678C5.94187 20.2867 6.04376 19.8439 6.11052 19.5839C6.17728 19.3239 6.32134 18.8424 6.43026 18.5121C6.53567 18.1818 6.71486 17.6863 6.82729 17.4052C6.93973 17.1241 7.12946 16.6813 7.24892 16.4213C7.3719 16.1612 7.5792 15.7395 7.71272 15.49C7.84975 15.2405 8.03948 14.8997 8.13786 14.7345C8.23624 14.5693 8.45057 14.232 8.61571 13.979C8.78084 13.726 9.07599 13.3078 9.27275 13.0478C9.46951 12.7877 9.73654 12.4469 9.86654 12.2922C9.99654 12.1376 10.2917 11.8003 10.5271 11.5402C10.7625 11.2837 11.1701 10.8726 11.4301 10.6301C11.6901 10.3876 12.0871 10.0362 12.3085 9.85348C12.5298 9.66724 12.9198 9.36503 13.1693 9.17878C13.4223 8.99254 13.8299 8.70438 14.0828 8.54274C14.3358 8.37758 14.7539 8.12105 15.0139 7.96995C15.2739 7.82236 15.7729 7.56232 16.1207 7.39013C16.4686 7.22145 16.9886 6.98601 17.2802 6.87005C17.5683 6.75408 18.0145 6.58892 18.264 6.50107C18.5135 6.41673 18.9281 6.28671 19.1775 6.21292C19.427 6.14264 19.8627 6.03019 20.1438 5.96693C20.4249 5.90017 20.9378 5.80177 21.2857 5.74204C21.6335 5.68581 22.1781 5.61202 22.4979 5.5839Z" fill="white"/>
<path d="M24.4999 43.5009C34.9939 43.5009 43.5009 34.9939 43.5009 24.4999C43.5009 14.006 34.9939 5.49902 24.4999 5.49902C14.006 5.49902 5.49902 14.006 5.49902 24.4999C5.49902 34.9939 14.006 43.5009 24.4999 43.5009Z" fill="#006CFF"/>
<path d="M35.3284 14.2548C32.5691 11.4267 28.7994 9.81052 24.8485 9.76187C20.8976 9.71323 17.0892 11.2361 14.2611 13.9954C11.433 16.7547 9.81687 20.5244 9.76822 24.4753C9.71958 28.4262 11.2424 32.2346 14.0017 35.0627C14.0289 35.091 14.0588 35.1166 14.0911 35.139C14.1493 35.1947 14.2112 35.2464 14.2764 35.2937C14.3056 35.3133 14.3362 35.3307 14.3679 35.346H14.3832C14.4472 35.3848 14.5134 35.4197 14.5815 35.4507C14.6143 35.4635 14.6478 35.4745 14.6818 35.4834H14.7014C14.7678 35.507 14.8354 35.5267 14.9041 35.5422C14.9409 35.5487 14.978 35.5531 15.0153 35.5553H15.0371C15.1093 35.5665 15.1821 35.5731 15.2551 35.5749C15.3008 35.5782 15.3467 35.5782 15.3924 35.5749H15.4687C15.5067 35.5728 15.5445 35.5685 15.582 35.5618C15.6464 35.549 15.7098 35.5316 15.7717 35.5095H15.8C15.835 35.5024 15.8693 35.4922 15.9025 35.479C15.9772 35.4446 16.05 35.4061 16.1204 35.3635C16.1436 35.3524 16.1662 35.3401 16.188 35.3264C16.2862 35.2625 16.3781 35.1896 16.4627 35.1085L23.8978 27.8346C24.6048 28.0163 25.3518 27.9617 26.0248 27.679C26.6978 27.3964 27.2599 26.9013 27.6251 26.2693C27.9904 25.6373 28.1388 24.9031 28.0477 24.1788C27.9566 23.4546 27.631 22.78 27.1206 22.2582C26.6102 21.7363 25.9431 21.3958 25.221 21.2886C24.499 21.1814 23.7617 21.3135 23.1217 21.6646C22.4818 22.0157 21.9743 22.5666 21.6767 23.2332C21.3792 23.8998 21.308 24.6454 21.4739 25.3562L19.6691 27.1218C19.2858 26.3566 19.0865 25.5124 19.0871 24.6565C19.0875 23.5516 19.4156 22.4716 20.0298 21.5531C20.6441 20.6346 21.5169 19.9189 22.5379 19.4964C23.5589 19.074 24.6822 18.9638 25.7658 19.1798C26.8495 19.3958 27.8447 19.9282 28.6257 20.7099C29.4067 21.4915 29.9384 22.4871 30.1536 23.5709C30.3687 24.6547 30.2576 25.778 29.8344 26.7987C29.4112 27.8193 28.6948 28.6916 27.7758 29.3051C26.8568 29.9186 25.7766 30.2459 24.6716 30.2454H24.397V33.7134H24.6825C26.6983 33.7146 28.657 33.0433 30.2482 31.8058C31.8394 30.5682 32.9723 28.8352 33.4674 26.8811C33.9626 24.927 33.7916 22.8636 32.9817 21.0176C32.1718 19.1717 30.7692 17.6487 28.996 16.6898C27.2228 15.731 25.1804 15.3911 23.1922 15.724C21.2041 16.057 19.3838 17.0436 18.0197 18.5278C16.6556 20.012 15.8257 21.9089 15.6613 23.918C15.4969 25.9271 16.0075 27.9337 17.1122 29.6198L15.3902 31.3004C14.1645 29.5902 13.4338 27.5752 13.2782 25.4768C13.1227 23.3785 13.5483 21.2778 14.5085 19.4055C15.4686 17.5332 16.9261 15.9617 18.7209 14.8635C20.5157 13.7652 22.5784 13.1828 24.6825 13.1801H24.7043C26.2085 13.1816 27.6978 13.4793 29.087 14.0562C30.4761 14.6332 31.7381 15.4781 32.8007 16.5428C33.8634 17.6075 34.7059 18.871 35.2803 20.2613C35.8546 21.6516 36.1494 23.1414 36.148 24.6456C36.1466 26.1499 35.8489 27.6391 35.2719 29.0283C34.6949 30.4175 33.85 31.6794 32.7853 32.7421C31.7207 33.8047 30.4571 34.6473 29.0668 35.2216C27.6765 35.7959 26.1867 36.0908 24.6825 36.0893H24.397V39.4091L24.5648 39.5595H24.6825C27.6133 39.5584 30.4786 38.6926 32.9196 37.0706C35.3606 35.4486 37.2689 33.1425 38.4054 30.4411C39.5419 27.7396 39.8562 24.7629 39.3089 21.8837C38.7615 19.0045 37.3769 16.3507 35.3284 14.2548Z" fill="white"/>
</svg>
