<svg width="49" height="49" viewBox="0 0 49 49" fill="none" xmlns="http://www.w3.org/2000/svg">
<circle cx="24.5" cy="24.5" r="24.5" transform="rotate(-180 24.5 24.5)" fill="#2B2B2B"/>
<path d="M26.3918 43.3136C26.072 43.3452 25.7347 43.3733 25.6364 43.3803C25.5415 43.3874 25.0707 43.3944 24.5928 43.3979C24.1115 43.4014 23.4896 43.3874 23.205 43.3698C22.9168 43.3487 22.4249 43.2995 22.1052 43.2608C21.7855 43.2222 21.2795 43.1449 20.9809 43.0887C20.6822 43.0324 20.1763 42.92 19.8565 42.8427C19.5368 42.7619 18.9289 42.5826 18.5038 42.4386C18.0786 42.298 17.4532 42.0661 17.1159 41.9185C16.7786 41.7744 16.2937 41.553 16.0443 41.4265C15.7948 41.3035 15.3732 41.0786 15.1132 40.9275C14.8532 40.7799 14.3718 40.4777 14.0415 40.2598C13.7113 40.042 13.2545 39.7187 13.0226 39.543C12.7907 39.3638 12.4042 39.051 12.1618 38.8437C11.9193 38.6399 11.445 38.1936 11.1077 37.8527C10.7704 37.5154 10.3382 37.055 10.152 36.8336C9.96227 36.6123 9.67416 36.2573 9.50902 36.043C9.34388 35.8286 9.05225 35.428 8.86252 35.1469C8.67279 34.8658 8.39873 34.4406 8.25467 34.1981C8.1071 33.9556 7.87169 33.5304 7.72412 33.2493C7.57655 32.9682 7.37627 32.557 7.27438 32.3356C7.176 32.1143 7.01789 31.7418 6.92654 31.5098C6.83167 31.2779 6.69112 30.8984 6.61031 30.6665C6.5295 30.4345 6.38896 29.9777 6.29409 29.6474C6.20274 29.3171 6.06922 28.7829 6.00246 28.4526C5.93219 28.1223 5.83733 27.5776 5.78814 27.2403C5.73895 26.9029 5.67921 26.418 5.65462 26.1685C5.62651 25.8944 5.60894 25.2232 5.60894 24.4993C5.60894 23.7614 5.63002 23.1077 5.65462 22.8301C5.68272 22.5806 5.73192 22.1449 5.77057 21.8638C5.80922 21.5826 5.89003 21.1188 5.94625 20.8271C6.00246 20.539 6.11489 20.047 6.19571 19.7378C6.27301 19.4285 6.42058 18.9225 6.52247 18.6133C6.62437 18.304 6.79653 17.8296 6.90194 17.559C7.01086 17.2885 7.20762 16.8316 7.34114 16.54C7.47465 16.2518 7.69249 15.8161 7.8225 15.5736C7.9525 15.3311 8.15629 14.9762 8.27224 14.7829C8.38819 14.5897 8.64116 14.1961 8.83792 13.9044C9.03468 13.6163 9.33334 13.1946 9.5055 12.9732C9.67767 12.7518 9.99389 12.3618 10.2117 12.1123C10.4296 11.8628 10.9074 11.3638 11.2693 11.0053C11.6347 10.6469 12.0915 10.2217 12.2847 10.06C12.478 9.8984 12.875 9.58916 13.1631 9.37129C13.4548 9.15342 13.8975 8.84067 14.1469 8.67902C14.3964 8.51386 14.818 8.25734 15.078 8.10272C15.338 7.95161 15.8686 7.67752 16.2551 7.48776C16.6416 7.30151 17.1862 7.05553 17.4673 6.94659C17.7484 6.83414 18.2543 6.65141 18.5916 6.53896C18.9289 6.42651 19.5298 6.25784 19.9268 6.15944C20.3238 6.06105 20.9246 5.93454 21.2619 5.87832C21.5993 5.81858 22.0982 5.7483 22.3687 5.72019C22.6393 5.68856 23.1698 5.64639 23.5458 5.62531C23.9498 5.60071 24.5366 5.5972 24.9688 5.60774C25.3728 5.6218 25.9456 5.65342 26.2337 5.68153C26.5253 5.70964 26.9434 5.75884 27.1648 5.78696C27.3861 5.81858 27.8148 5.89238 28.1134 5.9486C28.4121 6.00834 28.911 6.11728 29.2202 6.1981C29.5294 6.27541 30.06 6.43003 30.3973 6.54248C30.7346 6.65493 31.2581 6.84468 31.5567 6.96416C31.8554 7.08364 32.4492 7.35423 32.8743 7.56155C33.2995 7.7724 33.8617 8.0746 34.1217 8.22923C34.3817 8.38736 34.7682 8.62983 34.9825 8.77039C35.1968 8.91447 35.5763 9.18505 35.8257 9.37129C36.0787 9.56105 36.4652 9.86678 36.6866 10.053C36.9079 10.2358 37.4174 10.7137 37.8144 11.1107C38.2115 11.5078 38.6717 11.9893 38.8369 12.1825C39.002 12.3758 39.3007 12.7483 39.501 13.0083C39.7012 13.2684 40.035 13.7358 40.2423 14.045C40.4461 14.3542 40.7377 14.8216 40.8853 15.0816C41.0364 15.3417 41.2648 15.7704 41.3948 16.0304C41.5248 16.2905 41.7321 16.7332 41.8515 17.0144C41.9745 17.2955 42.1572 17.7523 42.2591 18.0334C42.361 18.3146 42.5016 18.7327 42.5718 18.9647C42.6421 19.1966 42.7686 19.671 42.8564 20.0189C42.9408 20.3668 43.0567 20.929 43.1129 21.2664C43.1726 21.6037 43.2429 22.0957 43.271 22.3557C43.3026 22.6158 43.3448 23.1394 43.3659 23.5154C43.3905 23.9089 43.3975 24.5204 43.3835 24.9561C43.3729 25.3708 43.3378 25.9717 43.3097 26.2915C43.2781 26.6112 43.2218 27.0856 43.1832 27.3457C43.1445 27.6057 43.0637 28.0485 43.0075 28.3296C42.9478 28.6107 42.8459 29.0535 42.7791 29.3136C42.7124 29.5736 42.5683 30.055 42.4594 30.3853C42.354 30.7157 42.1748 31.2111 42.0624 31.4923C41.9499 31.7734 41.7602 32.2162 41.6407 32.4762C41.5177 32.7362 41.3104 33.1579 41.1769 33.4074C41.0399 33.6569 40.8502 33.9978 40.7518 34.163C40.6534 34.3281 40.4391 34.6655 40.2739 34.9185C40.1088 35.1715 39.8137 35.5897 39.6169 35.8497C39.4201 36.1097 39.1531 36.4506 39.0231 36.6052C38.8931 36.7598 38.598 37.0972 38.3626 37.3572C38.1271 37.6138 37.7196 38.0249 37.4596 38.2674C37.1996 38.5098 36.8025 38.8612 36.5812 39.044C36.3598 39.2302 35.9698 39.5324 35.7203 39.7187C35.4674 39.9049 35.0598 40.1931 34.8068 40.3547C34.5538 40.5199 34.1357 40.7764 33.8757 40.9275C33.6157 41.0751 33.1168 41.3351 32.7689 41.5073C32.4211 41.676 31.9011 41.9114 31.6094 42.0274C31.3213 42.1434 30.8751 42.3085 30.6256 42.3964C30.3762 42.4807 29.9616 42.6107 29.7121 42.6845C29.4627 42.7548 29.027 42.8673 28.7459 42.9305C28.4648 42.9973 27.9518 43.0957 27.604 43.1554C27.2561 43.2117 26.7115 43.2854 26.3918 43.3136Z" fill="white"/>
<mask id="mask0_2922_26576" style="mask-type:alpha" maskUnits="userSpaceOnUse" x="5" y="5" width="39" height="39">
<path d="M26.3918 43.3136C26.072 43.3452 25.7347 43.3733 25.6364 43.3803C25.5415 43.3874 25.0707 43.3944 24.5928 43.3979C24.1115 43.4014 23.4896 43.3874 23.205 43.3698C22.9168 43.3487 22.4249 43.2995 22.1052 43.2608C21.7855 43.2222 21.2795 43.1449 20.9809 43.0887C20.6822 43.0324 20.1763 42.92 19.8565 42.8427C19.5368 42.7619 18.9289 42.5826 18.5038 42.4386C18.0786 42.298 17.4532 42.0661 17.1159 41.9185C16.7786 41.7744 16.2937 41.553 16.0443 41.4265C15.7948 41.3035 15.3732 41.0786 15.1132 40.9275C14.8532 40.7799 14.3718 40.4777 14.0415 40.2598C13.7113 40.042 13.2545 39.7187 13.0226 39.543C12.7907 39.3638 12.4042 39.051 12.1618 38.8437C11.9193 38.6399 11.445 38.1936 11.1077 37.8527C10.7704 37.5154 10.3382 37.055 10.152 36.8336C9.96227 36.6123 9.67416 36.2573 9.50902 36.043C9.34388 35.8286 9.05225 35.428 8.86252 35.1469C8.67279 34.8658 8.39873 34.4406 8.25467 34.1981C8.1071 33.9556 7.87169 33.5304 7.72412 33.2493C7.57655 32.9682 7.37627 32.557 7.27438 32.3356C7.176 32.1143 7.01789 31.7418 6.92654 31.5098C6.83167 31.2779 6.69112 30.8984 6.61031 30.6665C6.5295 30.4345 6.38896 29.9777 6.29409 29.6474C6.20274 29.3171 6.06922 28.7829 6.00246 28.4526C5.93219 28.1223 5.83733 27.5776 5.78814 27.2403C5.73895 26.9029 5.67921 26.418 5.65462 26.1685C5.62651 25.8944 5.60894 25.2232 5.60894 24.4993C5.60894 23.7614 5.63002 23.1077 5.65462 22.8301C5.68272 22.5806 5.73192 22.1449 5.77057 21.8638C5.80922 21.5826 5.89003 21.1188 5.94625 20.8271C6.00246 20.539 6.11489 20.047 6.19571 19.7378C6.27301 19.4285 6.42058 18.9225 6.52247 18.6133C6.62437 18.304 6.79653 17.8296 6.90194 17.559C7.01086 17.2885 7.20762 16.8316 7.34114 16.54C7.47465 16.2518 7.69249 15.8161 7.8225 15.5736C7.9525 15.3311 8.15629 14.9762 8.27224 14.7829C8.38819 14.5897 8.64116 14.1961 8.83792 13.9044C9.03468 13.6163 9.33334 13.1946 9.5055 12.9732C9.67767 12.7518 9.99389 12.3618 10.2117 12.1123C10.4296 11.8628 10.9074 11.3638 11.2693 11.0053C11.6347 10.6469 12.0915 10.2217 12.2847 10.06C12.478 9.8984 12.875 9.58916 13.1631 9.37129C13.4548 9.15342 13.8975 8.84067 14.1469 8.67902C14.3964 8.51386 14.818 8.25734 15.078 8.10272C15.338 7.95161 15.8686 7.67752 16.2551 7.48776C16.6416 7.30151 17.1862 7.05553 17.4673 6.94659C17.7484 6.83414 18.2543 6.65141 18.5916 6.53896C18.9289 6.42651 19.5298 6.25784 19.9268 6.15944C20.3238 6.06105 20.9246 5.93454 21.2619 5.87832C21.5993 5.81858 22.0982 5.7483 22.3687 5.72019C22.6393 5.68856 23.1698 5.64639 23.5458 5.62531C23.9498 5.60071 24.5366 5.5972 24.9688 5.60774C25.3728 5.6218 25.9456 5.65342 26.2337 5.68153C26.5253 5.70964 26.9434 5.75884 27.1648 5.78696C27.3861 5.81858 27.8148 5.89238 28.1134 5.9486C28.4121 6.00834 28.911 6.11728 29.2202 6.1981C29.5294 6.27541 30.06 6.43003 30.3973 6.54248C30.7346 6.65493 31.2581 6.84468 31.5567 6.96416C31.8554 7.08364 32.4492 7.35423 32.8743 7.56155C33.2995 7.7724 33.8617 8.0746 34.1217 8.22923C34.3817 8.38736 34.7682 8.62983 34.9825 8.77039C35.1968 8.91447 35.5763 9.18505 35.8257 9.37129C36.0787 9.56105 36.4652 9.86678 36.6866 10.053C36.9079 10.2358 37.4174 10.7137 37.8144 11.1107C38.2115 11.5078 38.6717 11.9893 38.8369 12.1825C39.002 12.3758 39.3007 12.7483 39.501 13.0083C39.7012 13.2684 40.035 13.7358 40.2423 14.045C40.4461 14.3542 40.7377 14.8216 40.8853 15.0816C41.0364 15.3417 41.2648 15.7704 41.3948 16.0304C41.5248 16.2905 41.7321 16.7332 41.8515 17.0144C41.9745 17.2955 42.1572 17.7523 42.2591 18.0334C42.361 18.3146 42.5016 18.7327 42.5718 18.9647C42.6421 19.1966 42.7686 19.671 42.8564 20.0189C42.9408 20.3668 43.0567 20.929 43.1129 21.2664C43.1726 21.6037 43.2429 22.0957 43.271 22.3557C43.3026 22.6158 43.3448 23.1394 43.3659 23.5154C43.3905 23.9089 43.3975 24.5204 43.3835 24.9561C43.3729 25.3708 43.3378 25.9717 43.3097 26.2915C43.2781 26.6112 43.2218 27.0856 43.1832 27.3457C43.1445 27.6057 43.0637 28.0485 43.0075 28.3296C42.9478 28.6107 42.8459 29.0535 42.7791 29.3136C42.7124 29.5736 42.5683 30.055 42.4594 30.3853C42.354 30.7157 42.1748 31.2111 42.0624 31.4923C41.9499 31.7734 41.7602 32.2162 41.6407 32.4762C41.5177 32.7362 41.3104 33.1579 41.1769 33.4074C41.0399 33.6569 40.8502 33.9978 40.7518 34.163C40.6534 34.3281 40.4391 34.6655 40.2739 34.9185C40.1088 35.1715 39.8137 35.5897 39.6169 35.8497C39.4201 36.1097 39.1531 36.4506 39.0231 36.6052C38.8931 36.7598 38.598 37.0972 38.3626 37.3572C38.1271 37.6138 37.7196 38.0249 37.4596 38.2674C37.1996 38.5098 36.8025 38.8612 36.5812 39.044C36.3598 39.2302 35.9698 39.5324 35.7203 39.7187C35.4674 39.9049 35.0598 40.1931 34.8068 40.3547C34.5538 40.5199 34.1357 40.7764 33.8757 40.9275C33.6157 41.0751 33.1168 41.3351 32.7689 41.5073C32.4211 41.676 31.9011 41.9114 31.6094 42.0274C31.3213 42.1434 30.8751 42.3085 30.6256 42.3964C30.3762 42.4807 29.9616 42.6107 29.7121 42.6845C29.4627 42.7548 29.027 42.8673 28.7459 42.9305C28.4648 42.9973 27.9518 43.0957 27.604 43.1554C27.2561 43.2117 26.7115 43.2854 26.3918 43.3136Z" fill="white"/>
</mask>
<g mask="url(#mask0_2922_26576)">
<path d="M24.7141 40H23.2855V39.2857H22.5712V38.5714H21.857V37.1429H21.1427V35.7143H20.4284V35H19.7141V34.2857H18.9998V32.8572H18.2855V32.1429H17.5712V30.7143H16.857V30H16.1427V28.5714H15.4284V27.8572H14.7141V27.1429H13.9998V27.8572H13.2855V29.2857H12.5712V30H11.857V31.4286H11.1427V32.1429H10.4284V33.5714H9.71411V34.2857H8.99982V35H8.28554V37.1429H7.57125V36.4286H6.85697V35H6.14268V33.5714H5.4284V32.1429H4.71411V30H3.99983V20.7143H4.71411V18.5715H5.4284V16.4286H6.14268V15.7143H7.57125V17.1429H8.28554V18.5715H8.99982V19.2857H9.71411V20.7143H10.4284V21.4286H11.1427V22.1429H11.857V23.5714H12.5712V24.2857H13.2855V25.7143H13.9998V26.4286H15.4284V25H16.1427V24.2857H16.857V22.8572H17.5712V22.1429H18.2855V20.7143H18.9998V19.2857H19.7141V18.5715H20.4284V17.8572H21.1427V16.4286H21.857V15.7143H22.5712V14.2857H23.2855V13.5715H24.7141V15H25.4284V15.7143H26.1427V16.4286H26.8569V17.8572H27.5712V19.2857H28.2855V20H28.9998V20.7143H29.7141V22.1429H30.4284V22.8572H31.1427V24.2857H31.8569V25H32.5712V26.4286H33.9998V25H34.7141V24.2857H35.4284V23.5714H36.8569V29.2857H36.1426V30H35.4284V29.2857H34.7141V27.8572H33.9998V27.1429H32.5712V28.5714H31.8569V30H31.1427V30.7143H30.4284V31.4286H29.7141V32.8572H28.9998V33.5714H28.2855V35H27.5712V35.7143H26.8569V37.1429H26.1427V37.8571H25.4284V38.5714H24.7141V40Z" fill="#5354B3"/>
<path d="M33.9997 26.4287H32.5712V25.0001H31.8569V24.2859H31.1426V22.8573H30.4283V22.143H29.714V20.7144H28.9997V20.0001H28.2854V19.2859H27.5712V17.8573H26.8569V16.4287H26.1426V15.7144H25.4283V15.0002H24.714V13.5716H23.2855V14.2859H22.5712V15.7144H21.8569V16.4287H21.1426V17.8573H20.4283V18.5716H19.714V19.2859H18.9997V20.7144H18.2855V22.143H17.5712V22.8573H16.8569V24.2859H16.1426V25.0001H15.4283V26.4287H13.9997V25.7144H13.2855V24.2859H12.5712V23.5716H11.8569V22.143H11.1426V21.4287H10.4283V20.7144H9.71404V19.2859H8.99976V18.5716H8.28547V17.143H7.57119V15.7144H6.14262V15.0002H6.8569V14.2859H7.57119V12.8573H8.28547V12.143H8.99976V11.4287H9.71404V10.7144H10.4283V10.0002H11.1426V9.28587H11.8569V8.57159H13.2855V7.8573H14.714V7.14302H16.1426V6.42873H19.714V7.14302H20.4283V8.57159H21.1426V10.0002H21.8569V10.7144H22.5712V11.4287H23.2855V12.143H24.714V11.4287H25.4283V10.0002H26.1426V9.28587H26.8569V8.57159H27.5712V7.14302H28.2854V6.42873H29.714V7.14302H33.2854V7.8573H34.714V8.57159H36.1426V9.28587H36.8569V10.0002H37.5712V10.7144H38.2854V11.4287H38.9997V12.143H39.714V13.5716H40.4283V14.2859H41.1426V15.7144H40.4283V17.143H39.714V18.5716H38.9997V19.2859H38.2854V20.0001H37.5712V21.4287H36.8569V22.8573H36.1426V23.5716H35.4283V24.2859H34.714V25.0001H33.9997V26.4287Z" fill="#464892"/>
<path d="M29.0001 45H19.0001V44.2857H17.5715V43.5714H15.4287V42.8571H14.0001V42.1429H12.5715V41.4286H11.8572V40.7143H11.143V40H10.4287V39.2857H9.71439V38.5714H9.0001V37.8572H8.28582V35H9.0001V34.2857H9.71439V33.5714H10.4287V32.1429H11.143V31.4286H11.8572V30H12.5715V29.2857H13.2858V27.8572H14.0001V27.1429H14.7144V27.8572H15.4287V28.5714H16.143V30H16.8572V30.7143H17.5715V32.1429H18.2858V32.8572H19.0001V34.2857H19.7144V35H20.4287V35.7143H21.1429V37.1429H21.8572V38.5714H22.5715V39.2857H23.2858V40H24.7144V38.5714H25.4287V37.8572H26.1429V37.1429H26.8572V35.7143H27.5715V35H28.2858V33.5714H29.0001V32.8572H29.7144V31.4286H30.4287V30.7143H31.1429V30H31.8572V28.5714H32.5715V27.1429H34.0001V27.8572H34.7144V29.2857H35.4286V30H36.1429V31.4286H36.8572V32.1429H37.5715V33.5714H38.2858V34.2857H39.0001V35.7143H39.7144V37.8572H39.0001V38.5714H38.2858V39.2857H37.5715V40H36.8572V40.7143H36.1429V41.4286H35.4286V42.1429H34.0001V42.8571H32.5715V43.5714H31.1429V44.2857H29.0001V45Z" fill="#6C6AE8"/>
<path d="M40.4286 37.1426H39.7143V35.714H39V34.2854H38.2857V33.5712H37.5714V32.1426H36.8572V31.4283H36.1429V29.2854H36.8572V23.5712H36.1429V22.8569H36.8572V21.4283H37.5714V19.9997H38.2857V19.2855H39V18.5712H39.7143V17.1426H40.4286V15.714H41.8571V17.1426H42.5714V18.5712H43.2857V21.4283H44V29.9997H43.2857V32.1426H42.5714V33.5712H41.8571V34.9997H41.1429V35.714H40.4286V37.1426Z" fill="#5153AE"/>
<path d="M24.7146 12.1426H23.2861V11.4283H22.5718V10.714H21.8575V9.99972H21.1432V8.57115H20.4289V7.14258H19.7146V6.4283H17.5718V5.71401H19.7146V4.99973H27.5718V5.71401H30.4289V6.4283H32.5718V7.14258H29.7146V6.4283H28.2861V7.14258H27.5718V8.57115H26.8575V9.28544H26.1432V9.99972H25.4289V11.4283H24.7146V12.1426Z" fill="#3A3F7C"/>
</g>
</svg>
