<svg width="49" height="49" viewBox="0 0 49 49" fill="none" xmlns="http://www.w3.org/2000/svg">
<circle cx="24.5" cy="24.5" r="24.5" transform="matrix(1 0 0 -1 0 49)" fill="#2B2B2B"/>
<path d="M22.6082 43.3136C22.928 43.3452 23.2653 43.3733 23.3636 43.3803C23.4585 43.3874 23.9293 43.3944 24.4072 43.3979C24.8885 43.4014 25.5104 43.3874 25.795 43.3698C26.0832 43.3487 26.5751 43.2995 26.8948 43.2608C27.2145 43.2222 27.7205 43.1449 28.0191 43.0887C28.3178 43.0324 28.8237 42.92 29.1435 42.8427C29.4632 42.7619 30.0711 42.5826 30.4962 42.4386C30.9214 42.298 31.5468 42.0661 31.8841 41.9185C32.2214 41.7744 32.7063 41.553 32.9557 41.4265C33.2052 41.3035 33.6268 41.0786 33.8868 40.9275C34.1468 40.7799 34.6282 40.4777 34.9585 40.2598C35.2887 40.042 35.7455 39.7187 35.9774 39.543C36.2093 39.3638 36.5958 39.051 36.8382 38.8437C37.0807 38.6399 37.555 38.1936 37.8923 37.8527C38.2296 37.5154 38.6618 37.055 38.848 36.8336C39.0377 36.6123 39.3258 36.2573 39.491 36.043C39.6561 35.8286 39.9477 35.428 40.1375 35.1469C40.3272 34.8658 40.6013 34.4406 40.7453 34.1981C40.8929 33.9556 41.1283 33.5304 41.2759 33.2493C41.4235 32.9682 41.6237 32.557 41.7256 32.3356C41.824 32.1143 41.9821 31.7418 42.0735 31.5098C42.1683 31.2779 42.3089 30.8984 42.3897 30.6665C42.4705 30.4345 42.611 29.9777 42.7059 29.6474C42.7973 29.3171 42.9308 28.7829 42.9975 28.4526C43.0678 28.1223 43.1627 27.5776 43.2119 27.2403C43.2611 26.9029 43.3208 26.418 43.3454 26.1685C43.3735 25.8944 43.3911 25.2232 43.3911 24.4993C43.3911 23.7614 43.37 23.1077 43.3454 22.8301C43.3173 22.5806 43.2681 22.1449 43.2294 21.8638C43.1908 21.5826 43.11 21.1188 43.0538 20.8271C42.9975 20.539 42.8851 20.047 42.8043 19.7378C42.727 19.4285 42.5794 18.9225 42.4775 18.6133C42.3756 18.304 42.2035 17.8296 42.0981 17.559C41.9891 17.2885 41.7924 16.8316 41.6589 16.54C41.5253 16.2518 41.3075 15.8161 41.1775 15.5736C41.0475 15.3311 40.8437 14.9762 40.7278 14.7829C40.6118 14.5897 40.3588 14.1961 40.1621 13.9044C39.9653 13.6163 39.6667 13.1946 39.4945 12.9732C39.3223 12.7518 39.0061 12.3618 38.7883 12.1123C38.5704 11.8628 38.0926 11.3638 37.7307 11.0053C37.3653 10.6469 36.9085 10.2217 36.7153 10.06C36.522 9.8984 36.125 9.58916 35.8369 9.37129C35.5452 9.15342 35.1025 8.84067 34.8531 8.67902C34.6036 8.51386 34.182 8.25734 33.922 8.10272C33.662 7.95161 33.1314 7.67752 32.7449 7.48776C32.3584 7.30151 31.8138 7.05553 31.5327 6.94659C31.2516 6.83414 30.7457 6.65141 30.4084 6.53896C30.0711 6.42651 29.4702 6.25784 29.0732 6.15944C28.6762 6.06105 28.0754 5.93454 27.7381 5.87832C27.4007 5.81858 26.9018 5.7483 26.6313 5.72019C26.3607 5.68856 25.8302 5.64639 25.4542 5.62531C25.0502 5.60071 24.4634 5.5972 24.0312 5.60774C23.6272 5.6218 23.0544 5.65342 22.7663 5.68153C22.4747 5.70964 22.0566 5.75884 21.8352 5.78696C21.6139 5.81858 21.1852 5.89238 20.8866 5.9486C20.5879 6.00834 20.089 6.11728 19.7798 6.1981C19.4706 6.27541 18.94 6.43003 18.6027 6.54248C18.2654 6.65493 17.7419 6.84468 17.4433 6.96416C17.1446 7.08364 16.5508 7.35423 16.1257 7.56155C15.7005 7.7724 15.1383 8.0746 14.8783 8.22923C14.6183 8.38736 14.2318 8.62983 14.0175 8.77039C13.8032 8.91447 13.4237 9.18505 13.1743 9.37129C12.9213 9.56105 12.5348 9.86678 12.3134 10.053C12.0921 10.2358 11.5826 10.7137 11.1856 11.1107C10.7885 11.5078 10.3283 11.9893 10.1631 12.1825C9.99797 12.3758 9.69932 12.7483 9.49905 13.0083C9.29877 13.2684 8.96498 13.7358 8.75768 14.045C8.55389 14.3542 8.26227 14.8216 8.11469 15.0816C7.96361 15.3417 7.73523 15.7704 7.60523 16.0304C7.47522 16.2905 7.26792 16.7332 7.14846 17.0144C7.02548 17.2955 6.84278 17.7523 6.74088 18.0334C6.63899 18.3146 6.49845 18.7327 6.42818 18.9647C6.3579 19.1966 6.23141 19.671 6.14358 20.0189C6.05925 20.3668 5.9433 20.929 5.88708 21.2664C5.82735 21.6037 5.75708 22.0957 5.72897 22.3557C5.69735 22.6158 5.65519 23.1394 5.63411 23.5154C5.60951 23.9089 5.60248 24.5204 5.61654 24.9561C5.62708 25.3708 5.66221 25.9717 5.69032 26.2915C5.72195 26.6112 5.77816 27.0856 5.81681 27.3457C5.85546 27.6057 5.93627 28.0485 5.99249 28.3296C6.05222 28.6107 6.15412 29.0535 6.22087 29.3136C6.28763 29.5736 6.43169 30.055 6.54061 30.3853C6.64602 30.7157 6.82521 31.2111 6.93764 31.4923C7.05008 31.7734 7.23981 32.2162 7.35927 32.4762C7.48225 32.7362 7.68955 33.1579 7.82307 33.4074C7.9601 33.6569 8.14983 33.9978 8.24821 34.163C8.34659 34.3281 8.56092 34.6655 8.72606 34.9185C8.8912 35.1715 9.18634 35.5897 9.3831 35.8497C9.57986 36.1097 9.84689 36.4506 9.97689 36.6052C10.1069 36.7598 10.402 37.0972 10.6374 37.3572C10.8729 37.6138 11.2804 38.0249 11.5404 38.2674C11.8004 38.5098 12.1975 38.8612 12.4188 39.044C12.6402 39.2302 13.0302 39.5324 13.2797 39.7187C13.5326 39.9049 13.9402 40.1931 14.1932 40.3547C14.4462 40.5199 14.8643 40.7764 15.1243 40.9275C15.3843 41.0751 15.8832 41.3351 16.2311 41.5073C16.5789 41.676 17.0989 41.9114 17.3906 42.0274C17.6787 42.1434 18.1249 42.3085 18.3744 42.3964C18.6238 42.4807 19.0384 42.6107 19.2879 42.6845C19.5373 42.7548 19.973 42.8673 20.2541 42.9305C20.5352 42.9973 21.0482 43.0957 21.396 43.1554C21.7439 43.2117 22.2885 43.2854 22.6082 43.3136Z" fill="white"/>
<mask id="mask0_2922_26560" style="mask-type:alpha" maskUnits="userSpaceOnUse" x="5" y="5" width="39" height="39">
<path d="M22.6082 43.3136C22.928 43.3452 23.2653 43.3733 23.3636 43.3803C23.4585 43.3874 23.9293 43.3944 24.4072 43.3979C24.8885 43.4014 25.5104 43.3874 25.795 43.3698C26.0832 43.3487 26.5751 43.2995 26.8948 43.2608C27.2145 43.2222 27.7205 43.1449 28.0191 43.0887C28.3178 43.0324 28.8237 42.92 29.1435 42.8427C29.4632 42.7619 30.0711 42.5826 30.4962 42.4386C30.9214 42.298 31.5468 42.0661 31.8841 41.9185C32.2214 41.7744 32.7063 41.553 32.9557 41.4265C33.2052 41.3035 33.6268 41.0786 33.8868 40.9275C34.1468 40.7799 34.6282 40.4777 34.9585 40.2598C35.2887 40.042 35.7455 39.7187 35.9774 39.543C36.2093 39.3638 36.5958 39.051 36.8382 38.8437C37.0807 38.6399 37.555 38.1936 37.8923 37.8527C38.2296 37.5154 38.6618 37.055 38.848 36.8336C39.0377 36.6123 39.3258 36.2573 39.491 36.043C39.6561 35.8286 39.9477 35.428 40.1375 35.1469C40.3272 34.8658 40.6013 34.4406 40.7453 34.1981C40.8929 33.9556 41.1283 33.5304 41.2759 33.2493C41.4235 32.9682 41.6237 32.557 41.7256 32.3356C41.824 32.1143 41.9821 31.7418 42.0735 31.5098C42.1683 31.2779 42.3089 30.8984 42.3897 30.6665C42.4705 30.4345 42.611 29.9777 42.7059 29.6474C42.7973 29.3171 42.9308 28.7829 42.9975 28.4526C43.0678 28.1223 43.1627 27.5776 43.2119 27.2403C43.2611 26.9029 43.3208 26.418 43.3454 26.1685C43.3735 25.8944 43.3911 25.2232 43.3911 24.4993C43.3911 23.7614 43.37 23.1077 43.3454 22.8301C43.3173 22.5806 43.2681 22.1449 43.2294 21.8638C43.1908 21.5826 43.11 21.1188 43.0538 20.8271C42.9975 20.539 42.8851 20.047 42.8043 19.7378C42.727 19.4285 42.5794 18.9225 42.4775 18.6133C42.3756 18.304 42.2035 17.8296 42.0981 17.559C41.9891 17.2885 41.7924 16.8316 41.6589 16.54C41.5253 16.2518 41.3075 15.8161 41.1775 15.5736C41.0475 15.3311 40.8437 14.9762 40.7278 14.7829C40.6118 14.5897 40.3588 14.1961 40.1621 13.9044C39.9653 13.6163 39.6667 13.1946 39.4945 12.9732C39.3223 12.7518 39.0061 12.3618 38.7883 12.1123C38.5704 11.8628 38.0926 11.3638 37.7307 11.0053C37.3653 10.6469 36.9085 10.2217 36.7153 10.06C36.522 9.8984 36.125 9.58916 35.8369 9.37129C35.5452 9.15342 35.1025 8.84067 34.8531 8.67902C34.6036 8.51386 34.182 8.25734 33.922 8.10272C33.662 7.95161 33.1314 7.67752 32.7449 7.48776C32.3584 7.30151 31.8138 7.05553 31.5327 6.94659C31.2516 6.83414 30.7457 6.65141 30.4084 6.53896C30.0711 6.42651 29.4702 6.25784 29.0732 6.15944C28.6762 6.06105 28.0754 5.93454 27.7381 5.87832C27.4007 5.81858 26.9018 5.7483 26.6313 5.72019C26.3607 5.68856 25.8302 5.64639 25.4542 5.62531C25.0502 5.60071 24.4634 5.5972 24.0312 5.60774C23.6272 5.6218 23.0544 5.65342 22.7663 5.68153C22.4747 5.70964 22.0566 5.75884 21.8352 5.78696C21.6139 5.81858 21.1852 5.89238 20.8866 5.9486C20.5879 6.00834 20.089 6.11728 19.7798 6.1981C19.4706 6.27541 18.94 6.43003 18.6027 6.54248C18.2654 6.65493 17.7419 6.84468 17.4433 6.96416C17.1446 7.08364 16.5508 7.35423 16.1257 7.56155C15.7005 7.7724 15.1383 8.0746 14.8783 8.22923C14.6183 8.38736 14.2318 8.62983 14.0175 8.77039C13.8032 8.91447 13.4237 9.18505 13.1743 9.37129C12.9213 9.56105 12.5348 9.86678 12.3134 10.053C12.0921 10.2358 11.5826 10.7137 11.1856 11.1107C10.7885 11.5078 10.3283 11.9893 10.1631 12.1825C9.99797 12.3758 9.69932 12.7483 9.49905 13.0083C9.29877 13.2684 8.96498 13.7358 8.75768 14.045C8.55389 14.3542 8.26227 14.8216 8.11469 15.0816C7.96361 15.3417 7.73523 15.7704 7.60523 16.0304C7.47522 16.2905 7.26792 16.7332 7.14846 17.0144C7.02548 17.2955 6.84278 17.7523 6.74088 18.0334C6.63899 18.3146 6.49845 18.7327 6.42818 18.9647C6.3579 19.1966 6.23141 19.671 6.14358 20.0189C6.05925 20.3668 5.9433 20.929 5.88708 21.2664C5.82735 21.6037 5.75708 22.0957 5.72897 22.3557C5.69735 22.6158 5.65519 23.1394 5.63411 23.5154C5.60951 23.9089 5.60248 24.5204 5.61654 24.9561C5.62708 25.3708 5.66221 25.9717 5.69032 26.2915C5.72195 26.6112 5.77816 27.0856 5.81681 27.3457C5.85546 27.6057 5.93627 28.0485 5.99249 28.3296C6.05222 28.6107 6.15412 29.0535 6.22087 29.3136C6.28763 29.5736 6.43169 30.055 6.54061 30.3853C6.64602 30.7157 6.82521 31.2111 6.93764 31.4923C7.05008 31.7734 7.23981 32.2162 7.35927 32.4762C7.48225 32.7362 7.68955 33.1579 7.82307 33.4074C7.9601 33.6569 8.14983 33.9978 8.24821 34.163C8.34659 34.3281 8.56092 34.6655 8.72606 34.9185C8.8912 35.1715 9.18634 35.5897 9.3831 35.8497C9.57986 36.1097 9.84689 36.4506 9.97689 36.6052C10.1069 36.7598 10.402 37.0972 10.6374 37.3572C10.8729 37.6138 11.2804 38.0249 11.5404 38.2674C11.8004 38.5098 12.1975 38.8612 12.4188 39.044C12.6402 39.2302 13.0302 39.5324 13.2797 39.7187C13.5326 39.9049 13.9402 40.1931 14.1932 40.3547C14.4462 40.5199 14.8643 40.7764 15.1243 40.9275C15.3843 41.0751 15.8832 41.3351 16.2311 41.5073C16.5789 41.676 17.0989 41.9114 17.3906 42.0274C17.6787 42.1434 18.1249 42.3085 18.3744 42.3964C18.6238 42.4807 19.0384 42.6107 19.2879 42.6845C19.5373 42.7548 19.973 42.8673 20.2541 42.9305C20.5352 42.9973 21.0482 43.0957 21.396 43.1554C21.7439 43.2117 22.2885 43.2854 22.6082 43.3136Z" fill="white"/>
</mask>
<g mask="url(#mask0_2922_26560)">
<path d="M20 45H30V44.2857H31.4285V43.5714H33.5714V42.8571H35V42.1429H36.4285V41.4286H37.1428V40.7143H37.8571V40H38.5714V39.2857H39.2857V38.5714H40V37.8572H40.7142V37.1429H41.4285V36.4286H42.1428V35H42.8571V33.5714H43.5714V32.1429H44.2857V30H45V20.7143H44.2857V18.5715H43.5714V16.4286H42.8571V15H42.1428V17.8572H41.4285V19.2857H40.7142V20.7143H40V21.4286H38.5714V20H37.8571V18.5715H37.1428V17.1429H35.7143V19.2857H35V20.7143H34.2857V22.1429H33.5714V21.4286H32.8571V20H32.1428V18.5715H31.4285V17.1429H30V19.2857H29.2857V20.7143H28.5714V21.4286H27.1428V20.7143H26.4285V18.5715H25.7143V17.1429H24.2857V19.2857H23.5714V20.7143H22.8571V21.4286H21.4286V20H20.7143V18.5715H20V17.8572H18.5714V18.5715H17.8571V20.7143H17.1428V21.4286H15.7143V20H15V18.5715H14.2857V17.1429H12.8571V19.2857H12.1428V20H11.4286V21.4286H9.99999V20.7143H9.28571V19.2857H8.57142V17.1429H7.85714V15H7.14285V17.1429H6.42857V19.2857H5.71428V21.4286H5V30H5.71428V32.1429H6.42857V33.5714H7.14285V35H7.85714V35.7143H8.57142V37.1429H9.28571V37.8572H9.99999V38.5714H10.7143V39.2857H11.4286V40H12.1428V40.7143H12.8571V41.4286H13.5714V42.1429H15V42.8571H16.4286V43.5714H17.8571V44.2857H20V45Z" fill="#373F7E"/>
<path d="M33.5718 22.1426H34.286V20.714H35.0003V16.4283H37.1432V15.714H35.7146V14.2854H35.0003V12.8569H34.286V12.1426H32.8575V13.5712H32.1432V14.9997H31.4289V15.714H30.0003V14.2854H29.2861V12.8569H28.5718V11.4283H27.1432V13.5712H26.4289V14.9997H25.7146V15.714H24.2861V14.9997H23.5718V12.8569H22.8575V11.4283H21.4289V13.5712H20.7146V14.9997H20.0003V15.714H18.5718V16.4283H20.0003V17.1426H21.4289V17.8569H22.1432V19.2854H24.2861V17.1426H25.7146V18.5712H26.4289V20.714H27.1432V21.4283H28.5718V20.714H29.2861V19.2854H30.0003V17.1426H31.4289V18.5712H32.1432V19.9997H32.8575V21.4283H33.5718V22.1426Z" fill="#278DC7"/>
<path d="M10.0003 21.4287H11.4288V20.0001H12.1431V19.2859H12.8574V17.143H14.286V18.5716H15.0003V20.0001H15.7146V21.4287H17.1431V20.7144H17.8574V18.5716H18.5717V17.8573H20.0003V18.5716H20.7146V20.0001H21.4288V21.4287H22.8574V20.7144H23.5717V19.2859H22.1431V17.8573H21.4288V17.143H20.0003V16.4287H18.5717V14.2859H17.8574V13.5716H17.1431V12.143H15.7146V13.5716H15.0003V14.2859H14.286V15.7144H12.8574V14.2859H12.1431V10.0002H11.4288V10.7144H10.7146V11.4287H10.0003V12.143H9.28599V13.5716H8.57171V14.2859H7.85742V17.143H8.57171V19.2859H9.28599V20.7144H10.0003V21.4287Z" fill="#298AC4"/>
<path d="M30 15.7139H31.4286V14.9996H32.1428V13.571H32.8571V12.1424H34.2857V12.8567H35V14.2853H35.7143V15.7139H37.1428V14.2853H37.8571V13.571H38.5714V9.99959H37.8571V9.2853H37.1428V8.57102H35.7143V7.85673H35V7.14245H33.5714V6.42816H31.4286V5.71388H28.5714V4.99959H20V5.71388H27.1428V6.42816H30V7.85673H29.2857V9.2853H28.5714V10.7139H29.2857V11.4282H28.5714V12.8567H29.2857V14.2853H30V15.7139Z" fill="#20ABE0"/>
<path d="M12.8574 15.7139H14.2859V14.2853H15.0002V13.571H15.7145V12.1424H17.1431V13.571H17.8573V14.2853H18.5716V15.7139H20.0002V14.9996H20.7145V13.571H21.4288V10.7139H22.8573V9.99959H21.4288V8.57102H20.7145V7.85673H20.0002V5.71388H18.5716V6.42816H16.4288V7.14245H15.7145V7.85673H14.2859V8.57102H12.8574V9.2853H12.1431V14.2853H12.8574V15.7139Z" fill="#1FADE3"/>
<path d="M24.2857 15.7139H25.7143V14.9996H26.4286V13.571H27.1428V11.4282H29.2857V10.7139H28.5714V9.2853H29.2857V7.85673H30V6.42816H27.1428V5.71388H20V7.85673H20.7143V8.57102H21.4286V9.99959H22.8571V10.7139H21.4286V11.4282H22.8571V12.8567H23.5714V14.9996H24.2857V15.7139Z" fill="#1DB3EA"/>
<path d="M38.5709 21.4287H39.9995V20.7144H40.7138V19.2859H41.4281V17.8573H42.1424V14.2859H41.4281V12.8573H40.7138V12.143H39.9995V11.4287H39.2852V10.7144H38.5709V13.5716H37.8567V14.2859H37.1424V16.4287H34.9995V19.2859H35.7138V17.143H37.1424V18.5716H37.8567V20.0001H38.5709V21.4287Z" fill="#2A8AC4"/>
</g>
</svg>
