<svg width="49" height="49" viewBox="0 0 49 49" fill="none" xmlns="http://www.w3.org/2000/svg">
<circle cx="24.5" cy="24.5" r="24.5" transform="matrix(-1 0 0 1 49 0)" fill="#2B2B2B"/>
<path d="M26.3918 5.68644C26.072 5.65482 25.7347 5.6267 25.6364 5.61967C25.5415 5.61265 25.0707 5.60562 24.5928 5.6021C24.1115 5.59859 23.4896 5.61265 23.205 5.63022C22.9168 5.6513 22.4249 5.7005 22.1052 5.73915C21.7855 5.77781 21.2795 5.85512 20.9809 5.91134C20.6822 5.96757 20.1763 6.08002 19.8565 6.15733C19.5368 6.23815 18.9289 6.41737 18.5038 6.56144C18.0786 6.702 17.4532 6.93393 17.1159 7.08152C16.7786 7.2256 16.2937 7.44698 16.0443 7.57349C15.7948 7.69648 15.3732 7.92138 15.1132 8.07249C14.8532 8.22008 14.3718 8.52229 14.0415 8.74016C13.7113 8.95803 13.2545 9.28132 13.0226 9.45702C12.7907 9.63624 12.4042 9.94899 12.1618 10.1563C11.9193 10.3601 11.445 10.8064 11.1077 11.1473C10.7704 11.4846 10.3382 11.945 10.152 12.1664C9.96227 12.3877 9.67416 12.7427 9.50902 12.957C9.34388 13.1714 9.05225 13.572 8.86252 13.8531C8.67279 14.1342 8.39873 14.5594 8.25467 14.8019C8.1071 15.0444 7.87169 15.4696 7.72412 15.7507C7.57655 16.0318 7.37627 16.443 7.27438 16.6644C7.176 16.8857 7.01789 17.2582 6.92654 17.4902C6.83167 17.7221 6.69112 18.1016 6.61031 18.3335C6.5295 18.5655 6.38896 19.0223 6.29409 19.3526C6.20274 19.6829 6.06922 20.2171 6.00246 20.5474C5.93219 20.8777 5.83733 21.4224 5.78814 21.7597C5.73895 22.0971 5.67921 22.582 5.65462 22.8315C5.62651 23.1056 5.60894 23.7768 5.60894 24.5007C5.60894 25.2386 5.63002 25.8923 5.65462 26.1699C5.68272 26.4194 5.73192 26.8551 5.77057 27.1362C5.80922 27.4174 5.89003 27.8812 5.94625 28.1729C6.00246 28.461 6.11489 28.953 6.19571 29.2622C6.27301 29.5715 6.42058 30.0775 6.52247 30.3867C6.62437 30.696 6.79653 31.1704 6.90194 31.441C7.01086 31.7115 7.20762 32.1684 7.34114 32.46C7.47465 32.7482 7.69249 33.1839 7.8225 33.4264C7.9525 33.6689 8.15629 34.0238 8.27224 34.2171C8.38819 34.4103 8.64116 34.8039 8.83792 35.0956C9.03468 35.3837 9.33334 35.8054 9.5055 36.0268C9.67767 36.2482 9.99389 36.6382 10.2117 36.8877C10.4296 37.1372 10.9074 37.6362 11.2693 37.9947C11.6347 38.3531 12.0915 38.7783 12.2847 38.94C12.478 39.1016 12.875 39.4108 13.1631 39.6287C13.4548 39.8466 13.8975 40.1593 14.1469 40.321C14.3964 40.4861 14.818 40.7427 15.078 40.8973C15.338 41.0484 15.8686 41.3225 16.2551 41.5122C16.6416 41.6985 17.1862 41.9445 17.4673 42.0534C17.7484 42.1659 18.2543 42.3486 18.5916 42.461C18.9289 42.5735 19.5298 42.7422 19.9268 42.8406C20.3238 42.9389 20.9246 43.0655 21.2619 43.1217C21.5993 43.1814 22.0982 43.2517 22.3687 43.2798C22.6393 43.3114 23.1698 43.3536 23.5458 43.3747C23.9498 43.3993 24.5366 43.4028 24.9688 43.3923C25.3728 43.3782 25.9456 43.3466 26.2337 43.3185C26.5253 43.2904 26.9434 43.2412 27.1648 43.213C27.3861 43.1814 27.8148 43.1076 28.1134 43.0514C28.4121 42.9917 28.911 42.8827 29.2202 42.8019C29.5294 42.7246 30.06 42.57 30.3973 42.4575C30.7346 42.3451 31.2581 42.1553 31.5567 42.0358C31.8554 41.9164 32.4492 41.6458 32.8743 41.4384C33.2995 41.2276 33.8617 40.9254 34.1217 40.7708C34.3817 40.6126 34.7682 40.3702 34.9825 40.2296C35.1968 40.0855 35.5763 39.815 35.8257 39.6287C36.0787 39.4389 36.4652 39.1332 36.6866 38.947C36.9079 38.7642 37.4174 38.2863 37.8144 37.8893C38.2115 37.4922 38.6717 37.0107 38.8369 36.8175C39.002 36.6242 39.3007 36.2517 39.501 35.9917C39.7012 35.7316 40.035 35.2642 40.2423 34.955C40.4461 34.6458 40.7377 34.1784 40.8853 33.9184C41.0364 33.6583 41.2648 33.2296 41.3948 32.9696C41.5248 32.7095 41.7321 32.2668 41.8515 31.9856C41.9745 31.7045 42.1572 31.2477 42.2591 30.9666C42.361 30.6854 42.5016 30.2673 42.5718 30.0353C42.6421 29.8034 42.7686 29.329 42.8564 28.9811C42.9408 28.6332 43.0567 28.071 43.1129 27.7336C43.1726 27.3963 43.2429 26.9043 43.271 26.6443C43.3026 26.3842 43.3448 25.8606 43.3659 25.4846C43.3905 25.0911 43.3975 24.4796 43.3835 24.0439C43.3729 23.6292 43.3378 23.0283 43.3097 22.7085C43.2781 22.3888 43.2218 21.9144 43.1832 21.6543C43.1445 21.3943 43.0637 20.9515 43.0075 20.6704C42.9478 20.3893 42.8459 19.9465 42.7791 19.6864C42.7124 19.4264 42.5683 18.945 42.4594 18.6147C42.354 18.2843 42.1748 17.7889 42.0624 17.5077C41.9499 17.2266 41.7602 16.7838 41.6407 16.5238C41.5177 16.2638 41.3104 15.8421 41.1769 15.5926C41.0399 15.3431 40.8502 15.0022 40.7518 14.837C40.6534 14.6719 40.4391 14.3345 40.2739 14.0815C40.1088 13.8285 39.8137 13.4103 39.6169 13.1503C39.4201 12.8903 39.1531 12.5494 39.0231 12.3948C38.8931 12.2402 38.598 11.9028 38.3626 11.6428C38.1271 11.3862 37.7196 10.9751 37.4596 10.7326C37.1996 10.4902 36.8025 10.1388 36.5812 9.95602C36.3598 9.76977 35.9698 9.46757 35.7203 9.28132C35.4674 9.09508 35.0598 8.80692 34.8068 8.64528C34.5538 8.48012 34.1357 8.22359 33.8757 8.07249C33.6157 7.9249 33.1168 7.66486 32.7689 7.49267C32.4211 7.32399 31.9011 7.08855 31.6094 6.97259C31.3213 6.85662 30.8751 6.69146 30.6256 6.60361C30.3762 6.51927 29.9616 6.38925 29.7121 6.31546C29.4627 6.24518 29.027 6.13273 28.7459 6.06947C28.4648 6.00271 27.9518 5.90431 27.604 5.84457C27.2561 5.78835 26.7115 5.71455 26.3918 5.68644Z" fill="white"/>
<mask id="mask0_2922_26629" style="mask-type:alpha" maskUnits="userSpaceOnUse" x="5" y="5" width="39" height="39">
<path d="M26.3918 5.68644C26.072 5.65482 25.7347 5.6267 25.6364 5.61967C25.5415 5.61265 25.0707 5.60562 24.5928 5.6021C24.1115 5.59859 23.4896 5.61265 23.205 5.63022C22.9168 5.6513 22.4249 5.7005 22.1052 5.73915C21.7855 5.77781 21.2795 5.85512 20.9809 5.91134C20.6822 5.96757 20.1763 6.08002 19.8565 6.15733C19.5368 6.23815 18.9289 6.41737 18.5038 6.56144C18.0786 6.702 17.4532 6.93393 17.1159 7.08152C16.7786 7.2256 16.2937 7.44698 16.0443 7.57349C15.7948 7.69648 15.3732 7.92138 15.1132 8.07249C14.8532 8.22008 14.3718 8.52229 14.0415 8.74016C13.7113 8.95803 13.2545 9.28132 13.0226 9.45702C12.7907 9.63624 12.4042 9.94899 12.1618 10.1563C11.9193 10.3601 11.445 10.8064 11.1077 11.1473C10.7704 11.4846 10.3382 11.945 10.152 12.1664C9.96227 12.3877 9.67416 12.7427 9.50902 12.957C9.34388 13.1714 9.05225 13.572 8.86252 13.8531C8.67279 14.1342 8.39873 14.5594 8.25467 14.8019C8.1071 15.0444 7.87169 15.4696 7.72412 15.7507C7.57655 16.0318 7.37627 16.443 7.27438 16.6644C7.176 16.8857 7.01789 17.2582 6.92654 17.4902C6.83167 17.7221 6.69112 18.1016 6.61031 18.3335C6.5295 18.5655 6.38896 19.0223 6.29409 19.3526C6.20274 19.6829 6.06922 20.2171 6.00246 20.5474C5.93219 20.8777 5.83733 21.4224 5.78814 21.7597C5.73895 22.0971 5.67921 22.582 5.65462 22.8315C5.62651 23.1056 5.60894 23.7768 5.60894 24.5007C5.60894 25.2386 5.63002 25.8923 5.65462 26.1699C5.68272 26.4194 5.73192 26.8551 5.77057 27.1362C5.80922 27.4174 5.89003 27.8812 5.94625 28.1729C6.00246 28.461 6.11489 28.953 6.19571 29.2622C6.27301 29.5715 6.42058 30.0775 6.52247 30.3867C6.62437 30.696 6.79653 31.1704 6.90194 31.441C7.01086 31.7115 7.20762 32.1684 7.34114 32.46C7.47465 32.7482 7.69249 33.1839 7.8225 33.4264C7.9525 33.6689 8.15629 34.0238 8.27224 34.2171C8.38819 34.4103 8.64116 34.8039 8.83792 35.0956C9.03468 35.3837 9.33334 35.8054 9.5055 36.0268C9.67767 36.2482 9.99389 36.6382 10.2117 36.8877C10.4296 37.1372 10.9074 37.6362 11.2693 37.9947C11.6347 38.3531 12.0915 38.7783 12.2847 38.94C12.478 39.1016 12.875 39.4108 13.1631 39.6287C13.4548 39.8466 13.8975 40.1593 14.1469 40.321C14.3964 40.4861 14.818 40.7427 15.078 40.8973C15.338 41.0484 15.8686 41.3225 16.2551 41.5122C16.6416 41.6985 17.1862 41.9445 17.4673 42.0534C17.7484 42.1659 18.2543 42.3486 18.5916 42.461C18.9289 42.5735 19.5298 42.7422 19.9268 42.8406C20.3238 42.9389 20.9246 43.0655 21.2619 43.1217C21.5993 43.1814 22.0982 43.2517 22.3687 43.2798C22.6393 43.3114 23.1698 43.3536 23.5458 43.3747C23.9498 43.3993 24.5366 43.4028 24.9688 43.3923C25.3728 43.3782 25.9456 43.3466 26.2337 43.3185C26.5253 43.2904 26.9434 43.2412 27.1648 43.213C27.3861 43.1814 27.8148 43.1076 28.1134 43.0514C28.4121 42.9917 28.911 42.8827 29.2202 42.8019C29.5294 42.7246 30.06 42.57 30.3973 42.4575C30.7346 42.3451 31.2581 42.1553 31.5567 42.0358C31.8554 41.9164 32.4492 41.6458 32.8743 41.4384C33.2995 41.2276 33.8617 40.9254 34.1217 40.7708C34.3817 40.6126 34.7682 40.3702 34.9825 40.2296C35.1968 40.0855 35.5763 39.815 35.8257 39.6287C36.0787 39.4389 36.4652 39.1332 36.6866 38.947C36.9079 38.7642 37.4174 38.2863 37.8144 37.8893C38.2115 37.4922 38.6717 37.0107 38.8369 36.8175C39.002 36.6242 39.3007 36.2517 39.501 35.9917C39.7012 35.7316 40.035 35.2642 40.2423 34.955C40.4461 34.6458 40.7377 34.1784 40.8853 33.9184C41.0364 33.6583 41.2648 33.2296 41.3948 32.9696C41.5248 32.7095 41.7321 32.2668 41.8515 31.9856C41.9745 31.7045 42.1572 31.2477 42.2591 30.9666C42.361 30.6854 42.5016 30.2673 42.5718 30.0353C42.6421 29.8034 42.7686 29.329 42.8564 28.9811C42.9408 28.6332 43.0567 28.071 43.1129 27.7336C43.1726 27.3963 43.2429 26.9043 43.271 26.6443C43.3026 26.3842 43.3448 25.8606 43.3659 25.4846C43.3905 25.0911 43.3975 24.4796 43.3835 24.0439C43.3729 23.6292 43.3378 23.0283 43.3097 22.7085C43.2781 22.3888 43.2218 21.9144 43.1832 21.6543C43.1445 21.3943 43.0637 20.9515 43.0075 20.6704C42.9478 20.3893 42.8459 19.9465 42.7791 19.6864C42.7124 19.4264 42.5683 18.945 42.4594 18.6147C42.354 18.2843 42.1748 17.7889 42.0624 17.5077C41.9499 17.2266 41.7602 16.7838 41.6407 16.5238C41.5177 16.2638 41.3104 15.8421 41.1769 15.5926C41.0399 15.3431 40.8502 15.0022 40.7518 14.837C40.6534 14.6719 40.4391 14.3345 40.2739 14.0815C40.1088 13.8285 39.8137 13.4103 39.6169 13.1503C39.4201 12.8903 39.1531 12.5494 39.0231 12.3948C38.8931 12.2402 38.598 11.9028 38.3626 11.6428C38.1271 11.3862 37.7196 10.9751 37.4596 10.7326C37.1996 10.4902 36.8025 10.1388 36.5812 9.95602C36.3598 9.76977 35.9698 9.46757 35.7203 9.28132C35.4674 9.09508 35.0598 8.80692 34.8068 8.64528C34.5538 8.48012 34.1357 8.22359 33.8757 8.07249C33.6157 7.9249 33.1168 7.66486 32.7689 7.49267C32.4211 7.32399 31.9011 7.08855 31.6094 6.97259C31.3213 6.85662 30.8751 6.69146 30.6256 6.60361C30.3762 6.51927 29.9616 6.38925 29.7121 6.31546C29.4627 6.24518 29.027 6.13273 28.7459 6.06947C28.4648 6.00271 27.9518 5.90431 27.604 5.84457C27.2561 5.78835 26.7115 5.71455 26.3918 5.68644Z" fill="white"/>
</mask>
<g mask="url(#mask0_2922_26629)">
<path d="M25.997 22.6406H24.4898V30.1763H22.2291V29.4228H21.4756V28.6692H19.9684V27.9156H18.4613V27.1621H17.7077V26.4085H16.9541V25.6549H15.447V24.1478H14.6934V23.3942H13.9398V22.6406H12.4327V30.9299H11.6791V30.1763H10.172V29.4228H9.41841V28.6692H7.91127V27.9156H6.40413V27.1621H5.65055V26.4085H4.14341V25.6549H3.38984V29.4228H4.14341V31.6835H4.89698V33.9442H5.65055V35.4513H6.40413V36.2049H7.1577V37.7121H7.91127V38.4656H8.66484V39.2192H9.41841V39.9728H10.172V40.7263H10.9256V41.4799H11.6791V42.2335H13.1863V42.9871H13.9398V43.7406H15.447V44.4942H16.9541V45.2478H20.722V46.0013H29.7648V45.2478H31.272V44.4942H33.5327V43.7406H34.2863V42.9871H35.7934V42.2335H37.3006V41.4799H38.0541V40.7263H38.8077V39.9728H39.5613V39.2192H40.3148V38.4656H41.0684V36.9585H41.822V36.2049H42.5756V34.6978H43.3291V33.1906H44.0827V31.6835H44.8363V30.1763H45.5898V28.6692H43.3291V27.9156H42.5756V27.1621H41.822V26.4085H41.0684V25.6549H39.5613V24.9013H38.8077V24.1478H38.0541V23.3942H37.3006V30.9299H35.0398V30.1763H34.2863V29.4228H33.5327V28.6692H32.0256V27.9156H30.5184V27.1621H29.7648V26.4085H29.0113V25.6549H28.2577V24.9013H26.7506V23.3942H25.997V22.6406Z" fill="#3C3C80"/>
<path d="M29.0113 3.80176H19.2149V4.55533H16.2006V5.3089H15.4471V6.06247H13.9399V6.81604H12.4328V7.56962H11.6792V8.32319H10.9256V9.07676H10.1721V11.3375H9.41848V16.6125H10.1721V20.3803H10.9256V21.8875H13.9399V23.3946H14.6935V24.1482H15.4471V25.6553H16.9542V26.4089H17.7078V27.1625H18.4613V27.916H19.9685V28.6696H21.4756V29.4232H22.2292V30.1768H24.4899V22.641H25.9971V23.3946H26.7506V24.9018H28.2578V25.6553H29.0113V26.4089H29.7649V27.1625H30.5185V27.916H32.0256V28.6696H33.5328V29.4232H35.7935V21.8875H38.0542V17.366H37.3006V21.1339H35.7935V19.6268H35.0399V18.1196H34.2863V15.8589H32.7792V6.81604H34.2863V5.3089H32.0256V4.55533H29.0113V3.80176ZM25.2435 4.55533V21.1339H22.9828V18.1196H22.2292V15.8589H21.4756V14.3518H20.7221V4.55533H25.2435Z" fill="#B212E4"/>
<path d="M35.7934 6.0625H34.2863V6.81607H35.0398V7.56964H35.7934V8.32321H36.547V9.83036H37.3006V17.3661H38.0541V21.8875H35.7934V29.4232H34.2863V30.1768H35.0398V30.9304H37.3006V23.3946H38.0541V24.1482H38.8077V24.9018H39.5613V25.6554H41.0684V26.4089H41.822V27.1625H42.5756V27.9161H43.3291V28.6696H45.5898V19.6268H44.8363V17.3661H44.0827V15.8589H43.3291V14.3518H42.5756V12.8446H41.822V12.0911H41.0684V11.3375H40.3148V10.5839H39.5613V9.83036H38.8077V9.07679H38.0541V8.32321H37.3006V7.56964H36.547V6.81607H35.7934V6.0625Z" fill="#B212E4"/>
<path d="M10.1726 9.83008H9.419V10.5836H8.66543V11.3372H7.91186V12.0908H7.15829V12.8444H6.40472V14.3515H5.65114V15.1051H4.89757V16.6122H4.144V19.6265H3.39043V25.6551H4.144V26.4087H5.65114V27.1622H6.40472V27.9158H7.91186V28.6694H9.419V29.4229H10.1726V30.1765H11.6797V30.9301H12.4333V22.6408H13.9404V21.8872H10.9261V20.3801H10.1726V16.6122H9.419V11.3372H10.1726V9.83008Z" fill="#AD14DF"/>
<path d="M25.2437 4.55566H20.7222V14.3521H21.4758V15.8592H22.2294V18.12H22.9829V21.1342H25.2437V4.55566Z" fill="#B212E4"/>
<path d="M35.0401 6.81641H32.7794V15.8593H34.2865V18.12H35.0401V19.6271H35.7936V21.1343H37.3008V9.83069H36.5472V8.32355H35.7936V7.56998H35.0401V6.81641Z" fill="#B212E4"/>
</g>
</svg>
