<svg width="49" height="49" viewBox="0 0 49 49" fill="none" xmlns="http://www.w3.org/2000/svg">
<circle cx="24.5" cy="24.5" r="24.5" fill="#2B2B2B"/>
<path d="M22.6082 5.68644C22.928 5.65482 23.2653 5.6267 23.3636 5.61967C23.4585 5.61265 23.9293 5.60562 24.4072 5.6021C24.8885 5.59859 25.5104 5.61265 25.795 5.63022C26.0832 5.6513 26.5751 5.7005 26.8948 5.73915C27.2145 5.77781 27.7205 5.85512 28.0191 5.91134C28.3178 5.96757 28.8237 6.08002 29.1435 6.15733C29.4632 6.23815 30.0711 6.41737 30.4962 6.56144C30.9214 6.702 31.5468 6.93393 31.8841 7.08152C32.2214 7.2256 32.7063 7.44698 32.9557 7.57349C33.2052 7.69648 33.6268 7.92138 33.8868 8.07249C34.1468 8.22008 34.6282 8.52229 34.9585 8.74016C35.2887 8.95803 35.7455 9.28132 35.9774 9.45702C36.2093 9.63624 36.5958 9.94899 36.8382 10.1563C37.0807 10.3601 37.555 10.8064 37.8923 11.1473C38.2296 11.4846 38.6618 11.945 38.848 12.1664C39.0377 12.3877 39.3258 12.7427 39.491 12.957C39.6561 13.1714 39.9477 13.572 40.1375 13.8531C40.3272 14.1342 40.6013 14.5594 40.7453 14.8019C40.8929 15.0444 41.1283 15.4696 41.2759 15.7507C41.4235 16.0318 41.6237 16.443 41.7256 16.6644C41.824 16.8857 41.9821 17.2582 42.0735 17.4902C42.1683 17.7221 42.3089 18.1016 42.3897 18.3335C42.4705 18.5655 42.611 19.0223 42.7059 19.3526C42.7973 19.6829 42.9308 20.2171 42.9975 20.5474C43.0678 20.8777 43.1627 21.4224 43.2119 21.7597C43.2611 22.0971 43.3208 22.582 43.3454 22.8315C43.3735 23.1056 43.3911 23.7768 43.3911 24.5007C43.3911 25.2386 43.37 25.8923 43.3454 26.1699C43.3173 26.4194 43.2681 26.8551 43.2294 27.1362C43.1908 27.4174 43.11 27.8812 43.0538 28.1729C42.9975 28.461 42.8851 28.953 42.8043 29.2622C42.727 29.5715 42.5794 30.0775 42.4775 30.3867C42.3756 30.696 42.2035 31.1704 42.0981 31.441C41.9891 31.7115 41.7924 32.1684 41.6589 32.46C41.5253 32.7482 41.3075 33.1839 41.1775 33.4264C41.0475 33.6689 40.8437 34.0238 40.7278 34.2171C40.6118 34.4103 40.3588 34.8039 40.1621 35.0956C39.9653 35.3837 39.6667 35.8054 39.4945 36.0268C39.3223 36.2482 39.0061 36.6382 38.7883 36.8877C38.5704 37.1372 38.0926 37.6362 37.7307 37.9947C37.3653 38.3531 36.9085 38.7783 36.7153 38.94C36.522 39.1016 36.125 39.4108 35.8369 39.6287C35.5452 39.8466 35.1025 40.1593 34.8531 40.321C34.6036 40.4861 34.182 40.7427 33.922 40.8973C33.662 41.0484 33.1314 41.3225 32.7449 41.5122C32.3584 41.6985 31.8138 41.9445 31.5327 42.0534C31.2516 42.1659 30.7457 42.3486 30.4084 42.461C30.0711 42.5735 29.4702 42.7422 29.0732 42.8406C28.6762 42.9389 28.0754 43.0655 27.7381 43.1217C27.4007 43.1814 26.9018 43.2517 26.6313 43.2798C26.3607 43.3114 25.8302 43.3536 25.4542 43.3747C25.0502 43.3993 24.4634 43.4028 24.0312 43.3923C23.6272 43.3782 23.0544 43.3466 22.7663 43.3185C22.4747 43.2904 22.0566 43.2412 21.8352 43.213C21.6139 43.1814 21.1852 43.1076 20.8866 43.0514C20.5879 42.9917 20.089 42.8827 19.7798 42.8019C19.4706 42.7246 18.94 42.57 18.6027 42.4575C18.2654 42.3451 17.7419 42.1553 17.4433 42.0358C17.1446 41.9164 16.5508 41.6458 16.1257 41.4384C15.7005 41.2276 15.1383 40.9254 14.8783 40.7708C14.6183 40.6126 14.2318 40.3702 14.0175 40.2296C13.8032 40.0855 13.4237 39.815 13.1743 39.6287C12.9213 39.4389 12.5348 39.1332 12.3134 38.947C12.0921 38.7642 11.5826 38.2863 11.1856 37.8893C10.7885 37.4922 10.3283 37.0107 10.1631 36.8175C9.99797 36.6242 9.69932 36.2517 9.49905 35.9917C9.29877 35.7316 8.96498 35.2642 8.75768 34.955C8.55389 34.6458 8.26227 34.1784 8.11469 33.9184C7.96361 33.6583 7.73523 33.2296 7.60523 32.9696C7.47522 32.7095 7.26792 32.2668 7.14846 31.9856C7.02548 31.7045 6.84278 31.2477 6.74088 30.9666C6.63899 30.6854 6.49845 30.2673 6.42818 30.0353C6.3579 29.8034 6.23141 29.329 6.14358 28.9811C6.05925 28.6332 5.9433 28.071 5.88708 27.7336C5.82735 27.3963 5.75708 26.9043 5.72897 26.6443C5.69735 26.3842 5.65519 25.8606 5.63411 25.4846C5.60951 25.0911 5.60248 24.4796 5.61654 24.0439C5.62708 23.6292 5.66221 23.0283 5.69032 22.7085C5.72195 22.3888 5.77816 21.9144 5.81681 21.6543C5.85546 21.3943 5.93627 20.9515 5.99249 20.6704C6.05222 20.3893 6.15412 19.9465 6.22087 19.6864C6.28763 19.4264 6.43169 18.945 6.54061 18.6147C6.64602 18.2843 6.82521 17.7889 6.93764 17.5077C7.05008 17.2266 7.23981 16.7838 7.35927 16.5238C7.48225 16.2638 7.68955 15.8421 7.82307 15.5926C7.9601 15.3431 8.14983 15.0022 8.24821 14.837C8.34659 14.6719 8.56092 14.3345 8.72606 14.0815C8.8912 13.8285 9.18634 13.4103 9.3831 13.1503C9.57986 12.8903 9.84689 12.5494 9.97689 12.3948C10.1069 12.2402 10.402 11.9028 10.6374 11.6428C10.8729 11.3862 11.2804 10.9751 11.5404 10.7326C11.8004 10.4902 12.1975 10.1388 12.4188 9.95602C12.6402 9.76977 13.0302 9.46757 13.2797 9.28132C13.5326 9.09508 13.9402 8.80692 14.1932 8.64528C14.4462 8.48012 14.8643 8.22359 15.1243 8.07249C15.3843 7.9249 15.8832 7.66486 16.2311 7.49267C16.5789 7.32399 17.0989 7.08855 17.3906 6.97259C17.6787 6.85662 18.1249 6.69146 18.3744 6.60361C18.6238 6.51927 19.0384 6.38925 19.2879 6.31546C19.5373 6.24518 19.973 6.13273 20.2541 6.06947C20.5352 6.00271 21.0482 5.90431 21.396 5.84457C21.7439 5.78835 22.2885 5.71455 22.6082 5.68644Z" fill="white"/>
<mask id="mask0_2922_26245" style="mask-type:alpha" maskUnits="userSpaceOnUse" x="5" y="5" width="39" height="39">
<path d="M22.6082 5.68644C22.928 5.65482 23.2653 5.6267 23.3636 5.61967C23.4585 5.61265 23.9293 5.60562 24.4072 5.6021C24.8885 5.59859 25.5104 5.61265 25.795 5.63022C26.0832 5.6513 26.5751 5.7005 26.8948 5.73915C27.2145 5.77781 27.7205 5.85512 28.0191 5.91134C28.3178 5.96757 28.8237 6.08002 29.1435 6.15733C29.4632 6.23815 30.0711 6.41737 30.4962 6.56144C30.9214 6.702 31.5468 6.93393 31.8841 7.08152C32.2214 7.2256 32.7063 7.44698 32.9557 7.57349C33.2052 7.69648 33.6268 7.92138 33.8868 8.07249C34.1468 8.22008 34.6282 8.52229 34.9585 8.74016C35.2887 8.95803 35.7455 9.28132 35.9774 9.45702C36.2093 9.63624 36.5958 9.94899 36.8382 10.1563C37.0807 10.3601 37.555 10.8064 37.8923 11.1473C38.2296 11.4846 38.6618 11.945 38.848 12.1664C39.0377 12.3877 39.3258 12.7427 39.491 12.957C39.6561 13.1714 39.9477 13.572 40.1375 13.8531C40.3272 14.1342 40.6013 14.5594 40.7453 14.8019C40.8929 15.0444 41.1283 15.4696 41.2759 15.7507C41.4235 16.0318 41.6237 16.443 41.7256 16.6644C41.824 16.8857 41.9821 17.2582 42.0735 17.4902C42.1683 17.7221 42.3089 18.1016 42.3897 18.3335C42.4705 18.5655 42.611 19.0223 42.7059 19.3526C42.7973 19.6829 42.9308 20.2171 42.9975 20.5474C43.0678 20.8777 43.1627 21.4224 43.2119 21.7597C43.2611 22.0971 43.3208 22.582 43.3454 22.8315C43.3735 23.1056 43.3911 23.7768 43.3911 24.5007C43.3911 25.2386 43.37 25.8923 43.3454 26.1699C43.3173 26.4194 43.2681 26.8551 43.2294 27.1362C43.1908 27.4174 43.11 27.8812 43.0538 28.1729C42.9975 28.461 42.8851 28.953 42.8043 29.2622C42.727 29.5715 42.5794 30.0775 42.4775 30.3867C42.3756 30.696 42.2035 31.1704 42.0981 31.441C41.9891 31.7115 41.7924 32.1684 41.6589 32.46C41.5253 32.7482 41.3075 33.1839 41.1775 33.4264C41.0475 33.6689 40.8437 34.0238 40.7278 34.2171C40.6118 34.4103 40.3588 34.8039 40.1621 35.0956C39.9653 35.3837 39.6667 35.8054 39.4945 36.0268C39.3223 36.2482 39.0061 36.6382 38.7883 36.8877C38.5704 37.1372 38.0926 37.6362 37.7307 37.9947C37.3653 38.3531 36.9085 38.7783 36.7153 38.94C36.522 39.1016 36.125 39.4108 35.8369 39.6287C35.5452 39.8466 35.1025 40.1593 34.8531 40.321C34.6036 40.4861 34.182 40.7427 33.922 40.8973C33.662 41.0484 33.1314 41.3225 32.7449 41.5122C32.3584 41.6985 31.8138 41.9445 31.5327 42.0534C31.2516 42.1659 30.7457 42.3486 30.4084 42.461C30.0711 42.5735 29.4702 42.7422 29.0732 42.8406C28.6762 42.9389 28.0754 43.0655 27.7381 43.1217C27.4007 43.1814 26.9018 43.2517 26.6313 43.2798C26.3607 43.3114 25.8302 43.3536 25.4542 43.3747C25.0502 43.3993 24.4634 43.4028 24.0312 43.3923C23.6272 43.3782 23.0544 43.3466 22.7663 43.3185C22.4747 43.2904 22.0566 43.2412 21.8352 43.213C21.6139 43.1814 21.1852 43.1076 20.8866 43.0514C20.5879 42.9917 20.089 42.8827 19.7798 42.8019C19.4706 42.7246 18.94 42.57 18.6027 42.4575C18.2654 42.3451 17.7419 42.1553 17.4433 42.0358C17.1446 41.9164 16.5508 41.6458 16.1257 41.4384C15.7005 41.2276 15.1383 40.9254 14.8783 40.7708C14.6183 40.6126 14.2318 40.3702 14.0175 40.2296C13.8032 40.0855 13.4237 39.815 13.1743 39.6287C12.9213 39.4389 12.5348 39.1332 12.3134 38.947C12.0921 38.7642 11.5826 38.2863 11.1856 37.8893C10.7885 37.4922 10.3283 37.0107 10.1631 36.8175C9.99797 36.6242 9.69932 36.2517 9.49905 35.9917C9.29877 35.7316 8.96498 35.2642 8.75768 34.955C8.55389 34.6458 8.26227 34.1784 8.11469 33.9184C7.96361 33.6583 7.73523 33.2296 7.60523 32.9696C7.47522 32.7095 7.26792 32.2668 7.14846 31.9856C7.02548 31.7045 6.84278 31.2477 6.74088 30.9666C6.63899 30.6854 6.49845 30.2673 6.42818 30.0353C6.3579 29.8034 6.23141 29.329 6.14358 28.9811C6.05925 28.6332 5.9433 28.071 5.88708 27.7336C5.82735 27.3963 5.75708 26.9043 5.72897 26.6443C5.69735 26.3842 5.65519 25.8606 5.63411 25.4846C5.60951 25.0911 5.60248 24.4796 5.61654 24.0439C5.62708 23.6292 5.66221 23.0283 5.69032 22.7085C5.72195 22.3888 5.77816 21.9144 5.81681 21.6543C5.85546 21.3943 5.93627 20.9515 5.99249 20.6704C6.05222 20.3893 6.15412 19.9465 6.22087 19.6864C6.28763 19.4264 6.43169 18.945 6.54061 18.6147C6.64602 18.2843 6.82521 17.7889 6.93764 17.5077C7.05008 17.2266 7.23981 16.7838 7.35927 16.5238C7.48225 16.2638 7.68955 15.8421 7.82307 15.5926C7.9601 15.3431 8.14983 15.0022 8.24821 14.837C8.34659 14.6719 8.56092 14.3345 8.72606 14.0815C8.8912 13.8285 9.18634 13.4103 9.3831 13.1503C9.57986 12.8903 9.84689 12.5494 9.97689 12.3948C10.1069 12.2402 10.402 11.9028 10.6374 11.6428C10.8729 11.3862 11.2804 10.9751 11.5404 10.7326C11.8004 10.4902 12.1975 10.1388 12.4188 9.95602C12.6402 9.76977 13.0302 9.46757 13.2797 9.28132C13.5326 9.09508 13.9402 8.80692 14.1932 8.64528C14.4462 8.48012 14.8643 8.22359 15.1243 8.07249C15.3843 7.9249 15.8832 7.66486 16.2311 7.49267C16.5789 7.32399 17.0989 7.08855 17.3906 6.97259C17.6787 6.85662 18.1249 6.69146 18.3744 6.60361C18.6238 6.51927 19.0384 6.38925 19.2879 6.31546C19.5373 6.24518 19.973 6.13273 20.2541 6.06947C20.5352 6.00271 21.0482 5.90431 21.396 5.84457C21.7439 5.78835 22.2885 5.71455 22.6082 5.68644Z" fill="white"/>
</mask>
<g mask="url(#mask0_2922_26245)">
<path d="M5.12891 4.41602H34.8432V34.1303H44.5574V44.416H34.2717V34.7017H25.1289V44.416H5.12891V4.41602Z" fill="#F42E19"/>
<path d="M24.5571 4.41602H34.8428V34.1303H44.557V44.416H34.2713V34.7017H25.1285V44.416H14.8428V34.1303H24.5571V4.41602Z" fill="#022EA7"/>
<path d="M34.8428 4.41602H45.1285V44.416H44.5571V34.1303H34.8428V4.41602Z" fill="#CFD0CB"/>
<path d="M14.8428 4.41602H24.5571V34.1303H14.8428V4.41602Z" fill="#D5A109"/>
<path d="M24.5571 4.41602H34.8428V34.1303H44.557V44.416H34.2713V34.7017H25.1285V44.416H14.8428V34.1303H24.5571V4.41602ZM25.1285 4.98744V34.1303H34.2713V4.98744H25.1285Z" fill="#052EA2"/>
<path d="M5.70068 15.2734H6.27211V15.8449H11.415V34.1306H11.9864V34.702H12.5578V35.2734H13.1292V35.8448H13.7007V39.8448H12.5578V40.9877H11.9864V39.8448H5.70068V15.2734Z" fill="#F52E17"/>
<path d="M25.1289 4.9873H34.2718V34.1301H25.1289V4.9873ZM25.7003 5.55873V33.5587H29.1289V32.9873H31.4146V7.27302H30.2718V8.9873H29.1289V6.13016H27.986V7.27302H27.4146V7.84444H26.8432V5.55873H25.7003Z" fill="#0B2E95"/>
<path d="M5.12891 4.41602H14.8432V14.7017H5.12891V4.41602Z" fill="#213692"/>
<path d="M15.4142 34.7012H24.5571V44.4154H14.8428V43.844H15.4142V34.7012Z" fill="#022EA6"/>
<path d="M25.1289 34.7012H34.2718V44.4154H25.1289V34.7012Z" fill="#D1A505"/>
<path d="M24.5571 4.41602H34.8428V34.1303H44.557V34.7017H34.8428V44.416H34.2713V34.7017H25.1285V44.416H24.5571V34.7017H15.4142V43.8446H14.8428V34.1303H24.5571V4.41602ZM25.1285 4.98744V34.1303H34.2713V4.98744H25.1285Z" fill="#636477"/>
<path d="M5.12891 14.7021H14.8432V44.4164H5.12891V14.7021ZM5.70033 15.2736V43.845H14.2718V34.7021H13.7003V34.1307H13.1289V15.2736H5.70033Z" fill="#E33820"/>
<path d="M32.5576 7.27344H33.7005V7.84487H34.2719V33.5591H32.5576V7.27344Z" fill="#012EAB"/>
<path d="M14.8428 4.41602H24.5571V34.1303H15.4142V33.5588H23.9856V5.55887H15.9856V13.5589H15.4142V14.1303H14.8428V4.41602Z" fill="#C7A434"/>
<path d="M15.9863 5.55859H23.9863V32.9871H23.4149V7.84431H22.8435V7.27288H18.272V7.84431H17.7006V11.2729H15.9863V5.55859Z" fill="#D3A205"/>
<path d="M28.5573 36.9873H30.843V37.5587H31.4145V38.1302H33.1288V38.7016H34.2716V43.8444H25.7002V38.1302H27.4145V39.273H26.8431V41.5587H31.4145V40.9873H33.1288V40.4159H32.5573V39.273H29.7002V37.5587H28.5573V36.9873Z" fill="#D3A20C"/>
<path d="M15.4142 34.7012H24.5571V44.4154H14.8428V43.844H15.4142V38.7012H15.9856V39.2726H17.6999V40.4155H18.2713V41.5583H17.6999V42.7012H23.9856V35.2726H15.4142V34.7012Z" fill="#14329A"/>
<path d="M35.4146 35.2734H43.986V35.8449H43.4145V37.5591H43.986V38.702H42.8431V39.2734H35.4146V35.2734Z" fill="#042EA6"/>
<path d="M27.9866 6.12988H29.1295V8.98702H27.9866V32.987H26.8438V7.84417H27.4152V7.27274H27.9866V6.12988Z" fill="#052CA9"/>
<path d="M34.8428 34.7012H44.5571V44.4154H34.8428V34.7012ZM35.4142 35.2726V42.7012H35.9856V43.2726H43.9856V37.5583H43.4142V35.844H43.9856V35.2726H35.4142Z" fill="#1B3595"/>
<path d="M15.4146 35.2734H23.986V38.1306H23.4145V38.702H17.7003V37.5591H15.4146V35.2734Z" fill="#072CA9"/>
<path d="M5.70068 5.55859H14.2721V14.13H5.70068V13.5586H13.1292V12.4157H13.7007V6.13002H13.1292V7.27288H9.70068V7.84431H6.27211V7.27288H5.70068V5.55859Z" fill="#062EA1"/>
<path d="M25.7002 4.9873H34.2716V7.84444H33.7002V7.27302H32.5573V7.84444H31.4145V7.27302H30.2716V8.9873H29.1288V6.13016H27.9859V7.27302H27.4145V7.84444H26.8431V5.55873H25.7002V4.9873Z" fill="#052FA1"/>
<path d="M5.70068 40.9873H10.8435V41.5587H12.5578V42.7016H13.1292V43.8444H5.70068V40.9873Z" fill="#F22F17"/>
<path d="M11.415 10.7021H13.7007V12.4164H13.1292V13.5593H5.70068V11.2736H11.415V10.7021Z" fill="#052CA7"/>
<path d="M25.1289 34.7012H34.2718V35.2726H33.1289V36.4155H31.4146V35.2726H27.4146V36.4155H26.2718V35.2726H25.7003V43.844H34.2718V44.4154H25.1289V34.7012Z" fill="#CFA52D"/>
<path d="M32.5576 7.27344H33.7005V7.84487H34.2719V33.5591H33.7005V8.98772H33.129V8.41629H32.5576V7.27344Z" fill="#072BAA"/>
<path d="M28.5571 36.9873H30.8428V37.5587H31.4143V38.1302H33.1286V38.7016H34.2714V40.4159H33.7V43.273H31.4143V42.7016H31.9857V41.5587H31.4143V40.9873H33.1286V40.4159H32.5571V39.273H29.7V37.5587H28.5571V36.9873Z" fill="#D7A009"/>
<path d="M15.4146 35.2734H23.986V36.4163H23.4145V36.9877H17.7003V36.4163H15.4146V35.2734Z" fill="#032FA4"/>
<path d="M5.70068 7.27344H6.27211V7.84487H9.70068V7.27344H10.2721V7.84487H12.5578V8.41629H13.1292V9.55915H5.70068V7.27344Z" fill="#052CA9"/>
<path d="M35.9863 41.5586H43.4149V43.2729H35.9863V41.5586Z" fill="#012EA9"/>
<path d="M5.70068 39.8447H11.9864V40.9876H14.2721V43.8447H13.1292V42.7019H12.5578V41.559H10.8435V40.9876H5.70068V39.8447Z" fill="#F32D1C"/>
<path d="M28.5571 35.2734H31.4143V36.4163H33.1286V35.2734H34.2714V38.702H33.1286V38.1306H31.4143V37.5591H30.8428V36.9877H29.1286V36.4163H28.5571V35.2734Z" fill="#CFA506"/>
<path d="M25.7002 35.2734H26.2716V36.4163H27.4145V35.2734H28.5573V36.4163H29.1288V36.9877H28.5573V37.5591H29.7002V39.2734H27.4145V38.1306H25.7002V35.2734Z" fill="#D3A405"/>
<path d="M42.2717 37.5586H43.986V38.7014H42.8431V39.2729H35.4146V38.7014H35.986V38.13H42.2717V37.5586Z" fill="#022EAC"/>
</g>
</svg>
