<svg width="49" height="49" viewBox="0 0 49 49" fill="none" xmlns="http://www.w3.org/2000/svg">
<circle cx="24.5" cy="24.5" r="24.5" fill="#2B2B2B"/>
<path d="M22.6082 5.68693C22.928 5.6553 23.2653 5.62719 23.3636 5.62016C23.4585 5.61314 23.9293 5.60611 24.4072 5.60259C24.8885 5.59908 25.5104 5.61314 25.795 5.63071C26.0832 5.65179 26.5751 5.70099 26.8948 5.73964C27.2145 5.7783 27.7205 5.8556 28.0191 5.91183C28.3178 5.96805 28.8237 6.0805 29.1435 6.15781C29.4632 6.23864 30.0711 6.41785 30.4962 6.56193C30.9214 6.70249 31.5468 6.93442 31.8841 7.08201C32.2214 7.22609 32.7063 7.44747 32.9557 7.57398C33.2052 7.69697 33.6268 7.92187 33.8868 8.07297C34.1468 8.22056 34.6282 8.52277 34.9585 8.74064C35.2887 8.95852 35.7455 9.28181 35.9774 9.45751C36.2093 9.63673 36.5958 9.94948 36.8382 10.1568C37.0807 10.3606 37.555 10.8069 37.8923 11.1478C38.2296 11.4851 38.6618 11.9455 38.848 12.1668C39.0377 12.3882 39.3258 12.7432 39.491 12.9575C39.6561 13.1719 39.9477 13.5725 40.1375 13.8536C40.3272 14.1347 40.6013 14.5599 40.7453 14.8024C40.8929 15.0449 41.1283 15.4701 41.2759 15.7512C41.4235 16.0323 41.6237 16.4435 41.7256 16.6648C41.824 16.8862 41.9821 17.2587 42.0735 17.4906C42.1683 17.7226 42.3089 18.1021 42.3897 18.334C42.4705 18.5659 42.611 19.0228 42.7059 19.3531C42.7973 19.6834 42.9308 20.2176 42.9975 20.5479C43.0678 20.8782 43.1627 21.4229 43.2119 21.7602C43.2611 22.0976 43.3208 22.5825 43.3454 22.832C43.3735 23.1061 43.3911 23.7773 43.3911 24.5012C43.3911 25.2391 43.37 25.8928 43.3454 26.1704C43.3173 26.4199 43.2681 26.8556 43.2294 27.1367C43.1908 27.4179 43.11 27.8817 43.0538 28.1734C42.9975 28.4615 42.8851 28.9535 42.8043 29.2627C42.727 29.572 42.5794 30.078 42.4775 30.3872C42.3756 30.6965 42.2035 31.1709 42.0981 31.4414C41.9891 31.712 41.7924 32.1689 41.6589 32.4605C41.5253 32.7487 41.3075 33.1844 41.1775 33.4269C41.0475 33.6694 40.8437 34.0243 40.7278 34.2176C40.6118 34.4108 40.3588 34.8044 40.1621 35.0961C39.9653 35.3842 39.6667 35.8059 39.4945 36.0273C39.3223 36.2487 39.0061 36.6387 38.7883 36.8882C38.5704 37.1377 38.0926 37.6367 37.7307 37.9952C37.3653 38.3536 36.9085 38.7788 36.7153 38.9404C36.522 39.1021 36.125 39.4113 35.8369 39.6292C35.5452 39.8471 35.1025 40.1598 34.8531 40.3215C34.6036 40.4866 34.182 40.7432 33.922 40.8978C33.662 41.0489 33.1314 41.323 32.7449 41.5127C32.3584 41.699 31.8138 41.945 31.5327 42.0539C31.2516 42.1663 30.7457 42.3491 30.4084 42.4615C30.0711 42.574 29.4702 42.7426 29.0732 42.841C28.6762 42.9394 28.0754 43.0659 27.7381 43.1222C27.4007 43.1819 26.9018 43.2522 26.6313 43.2803C26.3607 43.3119 25.8302 43.3541 25.4542 43.3752C25.0502 43.3998 24.4634 43.4033 24.0312 43.3927C23.6272 43.3787 23.0544 43.3471 22.7663 43.319C22.4747 43.2908 22.0566 43.2416 21.8352 43.2135C21.6139 43.1819 21.1852 43.1081 20.8866 43.0519C20.5879 42.9921 20.089 42.8832 19.7798 42.8024C19.4706 42.7251 18.94 42.5705 18.6027 42.458C18.2654 42.3456 17.7419 42.1558 17.4433 42.0363C17.1446 41.9168 16.5508 41.6463 16.1257 41.4389C15.7005 41.2281 15.1383 40.9259 14.8783 40.7713C14.6183 40.6131 14.2318 40.3707 14.0175 40.2301C13.8032 40.086 13.4237 39.8154 13.1743 39.6292C12.9213 39.4394 12.5348 39.1337 12.3134 38.9475C12.0921 38.7647 11.5826 38.2868 11.1856 37.8897C10.7885 37.4927 10.3283 37.0112 10.1631 36.818C9.99797 36.6247 9.69932 36.2522 9.49905 35.9921C9.29877 35.7321 8.96498 35.2647 8.75768 34.9555C8.55389 34.6463 8.26227 34.1789 8.11469 33.9189C7.96361 33.6588 7.73523 33.2301 7.60523 32.9701C7.47522 32.71 7.26792 32.2673 7.14846 31.9861C7.02548 31.705 6.84278 31.2482 6.74088 30.967C6.63899 30.6859 6.49845 30.2678 6.42818 30.0358C6.3579 29.8039 6.23141 29.3295 6.14358 28.9816C6.05925 28.6337 5.9433 28.0715 5.88708 27.7341C5.82735 27.3968 5.75708 26.9048 5.72897 26.6448C5.69735 26.3847 5.65519 25.8611 5.63411 25.4851C5.60951 25.0915 5.60248 24.4801 5.61654 24.0444C5.62708 23.6297 5.66221 23.0288 5.69032 22.709C5.72195 22.3892 5.77816 21.9148 5.81681 21.6548C5.85546 21.3948 5.93627 20.952 5.99249 20.6709C6.05222 20.3897 6.15412 19.947 6.22087 19.6869C6.28763 19.4269 6.43169 18.9455 6.54061 18.6151C6.64602 18.2848 6.82521 17.7893 6.93764 17.5082C7.05008 17.2271 7.23981 16.7843 7.35927 16.5243C7.48225 16.2642 7.68955 15.8426 7.82307 15.5931C7.9601 15.3436 8.14983 15.0027 8.24821 14.8375C8.34659 14.6724 8.56092 14.335 8.72606 14.082C8.8912 13.829 9.18634 13.4108 9.3831 13.1508C9.57986 12.8907 9.84689 12.5499 9.97689 12.3953C10.1069 12.2406 10.402 11.9033 10.6374 11.6433C10.8729 11.3867 11.2804 10.9756 11.5404 10.7331C11.8004 10.4906 12.1975 10.1392 12.4188 9.95651C12.6402 9.77026 13.0302 9.46805 13.2797 9.28181C13.5326 9.09556 13.9402 8.80741 14.1932 8.64577C14.4462 8.4806 14.8643 8.22408 15.1243 8.07297C15.3843 7.92538 15.8832 7.66534 16.2311 7.49315C16.5789 7.32448 17.0989 7.08904 17.3906 6.97307C17.6787 6.85711 18.1249 6.69195 18.3744 6.6041C18.6238 6.51976 19.0384 6.38974 19.2879 6.31595C19.5373 6.24567 19.973 6.13322 20.2541 6.06996C20.5352 6.0032 21.0482 5.9048 21.396 5.84506C21.7439 5.78884 22.2885 5.71504 22.6082 5.68693Z" fill="white"/>
<path d="M27.3233 10.9115C28.0637 10.5991 29.0313 10.1768 29.4688 9.97413C29.9063 9.77144 30.3185 9.61098 30.3858 9.60254C30.4784 9.60254 30.4868 11.0298 30.4363 18.8246C30.4027 23.9002 30.369 28.0636 30.3606 28.0721C30.3606 28.0721 29.881 28.089 29.3005 28.0974C28.72 28.1058 27.3822 28.1143 24.3786 28.0974L24.3533 27.8272C24.3449 27.6751 24.3113 27.4302 24.286 27.2951C24.2524 27.1515 24.143 26.8729 24.042 26.6617C23.9411 26.4506 23.6803 26.1212 23.4615 25.9186C23.2512 25.7243 22.9315 25.4963 22.7632 25.4034C22.5865 25.3189 22.2416 25.2261 21.5601 25.1416L21.6021 13.3775L23.1586 12.7104C24.0168 12.3472 25.0012 11.9165 25.3461 11.7561C25.6911 11.604 26.5829 11.2156 27.3233 10.9115Z" fill="#3A0BA2"/>
<path fill-rule="evenodd" clip-rule="evenodd" d="M21.4496 19.1539C21.5337 19.1454 21.5589 19.7957 21.5589 25.0993L20.9952 25.2091C20.6755 25.2766 20.3222 25.378 20.1875 25.4455C20.0613 25.5131 19.7921 25.7242 19.5902 25.9184C19.3883 26.1211 19.1695 26.3745 19.0938 26.4927C19.0181 26.6109 18.8919 26.915 18.8246 27.1683C18.7572 27.4217 18.6984 27.7342 18.6984 28.0973H12.6406L12.6743 27.3541C12.6995 26.9488 12.7668 26.3914 12.8425 26.1127C12.9183 25.834 13.0529 25.378 13.1538 25.0993C13.2464 24.8206 13.4651 24.3223 13.6334 24.0014C13.8017 23.6805 14.1551 23.1231 14.4159 22.7769C14.6683 22.4306 15.1479 21.8986 15.4676 21.603C15.7873 21.299 16.3089 20.8851 16.637 20.674C16.9568 20.4629 17.4868 20.1673 17.8149 20.0153C18.1346 19.8633 18.7657 19.6353 19.2032 19.517C19.6407 19.3988 20.3053 19.2721 20.6755 19.2299C21.0457 19.1961 21.3991 19.1623 21.4496 19.1539Z" fill="#4260ED"/>
<path d="M13.0612 30.9014C12.7919 30.0992 12.7162 29.7445 12.6741 29.0097L12.6152 28.0977H18.6561L18.7739 28.579C18.8328 28.8493 18.959 29.2124 19.0432 29.3813C19.1357 29.5587 19.346 29.8458 19.5227 30.0231C19.691 30.2005 20.0528 30.4454 20.3136 30.5721C20.5828 30.6988 20.9698 30.8254 21.5588 30.9268V37.134H21.2896C21.1381 37.134 20.7427 37.0917 20.423 37.0411C20.1033 36.9988 19.4554 36.8468 18.9927 36.7033C18.5299 36.5681 17.8821 36.3148 17.5624 36.1459C17.2427 35.977 16.7126 35.6561 16.3845 35.4365C16.0564 35.2169 15.5179 34.744 15.1898 34.3977C14.8532 34.043 14.5756 33.7221 14.5756 33.6714C14.5756 33.6208 14.5503 33.587 14.5167 33.587C14.4746 33.5954 14.3063 33.3843 14.1381 33.1225C13.9614 32.8692 13.8184 32.6411 13.8184 32.6158C13.8184 32.5905 13.7258 32.4216 13.608 32.2358C13.4902 32.05 13.2462 31.4504 13.0612 30.9014Z" fill="#4CC9F0"/>
<path d="M30.0312 30.361C30.1153 29.9049 30.1911 29.4995 30.2079 29.4489C30.2247 29.4067 30.2668 29.3644 30.3004 29.3644C30.3425 29.3644 30.3425 29.432 30.3088 29.5164C30.2752 29.6009 30.2247 29.8542 30.1911 30.0823C30.1574 30.3187 30.0901 30.6734 30.0312 30.8677C29.9807 31.0619 29.9218 31.2139 29.9134 31.2055C29.905 31.197 29.9555 30.817 30.0312 30.361Z" fill="#4CC9F0"/>
<path d="M30.0313 30.3608C30.1154 29.9047 30.1912 29.4994 30.208 29.4487C30.2248 29.4065 30.2669 29.3643 30.3005 29.3643C30.3426 29.3643 30.3426 29.4318 30.3089 29.5163C30.2753 29.6007 30.2248 29.8541 30.1912 30.0821C30.1575 30.3186 30.0902 30.6733 30.0313 30.8675C29.9808 31.0617 29.9219 31.2137 29.9135 31.2053C29.9051 31.1969 29.9556 30.8168 30.0313 30.3608Z" fill="#7108B8"/>
<path d="M30.3942 28.0971L30.4111 23.6466V23.6381C30.4195 21.189 30.4447 19.5676 30.4615 20.032C30.47 20.4965 30.4784 22.7683 30.4615 25.0738C30.4363 28.9754 30.4279 29.2795 30.2849 29.3808C30.1755 29.4653 30.0998 29.7355 30.0072 30.4196C29.9147 31.0529 29.7969 31.5259 29.6286 31.8975C29.4856 32.2015 29.1743 32.7504 28.9219 33.122C28.6695 33.4936 28.2488 34.0256 27.9796 34.3128C27.7103 34.5915 27.2055 35.0306 26.8606 35.2924C26.5156 35.5458 25.9856 35.892 25.6827 36.0609C25.3798 36.2298 24.7235 36.5001 24.2103 36.6605C23.7055 36.821 22.9904 36.9899 22.637 37.0406C22.2752 37.0912 21.8882 37.1334 21.5601 37.1334V30.9263L21.9134 30.8587C22.1154 30.8165 22.4435 30.7151 22.6538 30.6222C22.8642 30.5293 23.1923 30.3182 23.3942 30.1578C23.6298 29.9635 23.8401 29.6679 24.042 29.2541C24.2103 28.9248 24.3365 28.5194 24.3365 28.0971L26.381 28.1056C27.5 28.1056 28.863 28.1056 30.3942 28.0971Z" fill="#7108B8"/>
<path d="M30.4601 23.7228C30.4517 21.2652 30.4769 19.23 30.519 19.2046C30.5611 19.1708 32.7065 19.1455 35.2895 19.1455C37.8724 19.1455 40.001 19.1708 40.0179 19.2046C40.0347 19.2468 39.9758 19.4242 39.8917 19.61C39.8036 19.7868 39.6546 20.1395 39.5388 20.4134L39.5215 20.4545C39.4121 20.7332 39.1428 21.3581 38.9325 21.848C38.7138 22.3378 38.4614 22.9205 38.3688 23.1569C38.2763 23.385 38.108 23.7903 37.9902 24.0437C37.8724 24.297 37.7126 24.6771 37.6284 24.8882C37.5443 25.0993 37.3339 25.5892 37.1657 25.9861C36.989 26.383 36.7113 27.0333 36.2402 28.1818H30.4769L30.4601 23.7228Z" fill="#F62485"/>
</svg>
