<svg width="1920" height="352" viewBox="0 0 1920 352" fill="none" xmlns="http://www.w3.org/2000/svg">
<path d="M314.671 176C314.671 252.78 252.221 315.229 175.442 315.229C98.6618 315.229 46.4096 262.315 37.5356 194.079H123.024V157.921H37.5356C46.4647 89.6847 104.835 36.7711 175.442 36.7711V0.55835C78.709 0.55835 0 79.2673 0 176C0 272.733 78.709 351.442 175.442 351.442C272.174 351.442 350.883 272.733 350.883 176H314.671Z" fill="#222033"/>
<path d="M157.418 173.465H157.363V285.3H193.576V190.992C217.607 189.283 259.332 181.953 288.489 152.795C330.6 110.685 327.293 41.7868 327.127 38.8656L326.246 22.6608L310.041 21.7789C307.119 21.6135 238.222 18.3064 196.111 60.4168C155.875 100.708 157.087 165.307 157.418 173.409V173.465ZM221.686 86.0469C241.363 66.3696 271.348 60.3617 290.308 58.5979C288.545 77.5586 282.537 107.543 262.859 127.22C243.182 146.897 213.198 152.905 194.237 154.669C196.001 135.708 202.009 105.779 221.686 86.0469Z" fill="#222033"/>
<path d="M1622.93 178.814C1622.93 121.926 1660.26 84.5936 1708.26 84.5936C1745.59 84.5936 1765.15 111.26 1765.15 111.26H1766.92V20.5946H1804.26V269.48H1766.92V246.369H1765.15C1765.15 246.369 1745.59 273.035 1708.26 273.035C1660.26 273.035 1622.93 235.702 1622.93 178.814ZM1662.04 178.814C1662.04 217.925 1683.37 239.258 1715.37 239.258C1745.59 239.258 1766.92 217.925 1766.92 178.814C1766.92 139.704 1745.59 118.371 1715.37 118.371C1683.37 118.371 1662.04 139.704 1662.04 178.814Z" fill="#222033"/>
<path d="M1553.73 269.48V20.5946H1591.07V269.48H1553.73Z" fill="#222033"/>
<path d="M1336.82 178.814C1336.82 125.482 1377.71 84.5936 1429.26 84.5936C1480.82 84.5936 1521.71 125.482 1521.71 178.814V191.259H1374.15C1379.49 221.48 1402.6 239.258 1429.26 239.258C1466.59 239.258 1480.82 214.369 1480.82 214.369H1519.93C1519.93 214.369 1500.37 273.035 1429.26 273.035C1377.71 273.035 1336.82 232.147 1336.82 178.814ZM1375.93 161.037H1482.59C1479.04 139.704 1461.26 118.371 1429.26 118.371C1404.37 118.371 1381.26 134.371 1375.93 161.037Z" fill="#222033"/>
<path d="M1264.07 39.4388C1264.07 26.9946 1273.67 17.0392 1286.12 17.0392C1298.56 17.0392 1308.52 26.9946 1308.52 39.4388C1308.52 51.8831 1298.56 61.4829 1286.12 61.4829C1273.67 61.4829 1264.07 51.8831 1264.07 39.4388ZM1267.63 269.48V88.1491H1304.96V269.48H1267.63Z" fill="#222033"/>
<path d="M1068.6 88.149H1107.71L1146.82 233.924H1166.38L1209.05 88.149H1248.16L1193.05 273.035C1182.73 307.168 1169.93 337.034 1114.82 337.034H1088.16V303.257H1114.82C1141.49 303.257 1148.6 293.657 1154.65 273.035L1155.71 269.479H1118.38L1068.6 88.149Z" fill="#222033"/>
<path d="M865.994 178.814C865.994 125.482 906.882 84.5936 960.214 84.5936C1013.55 84.5936 1054.44 125.482 1054.44 178.814C1054.44 232.147 1013.55 273.035 960.214 273.035C906.882 273.035 865.994 232.147 865.994 178.814ZM905.104 178.814C905.104 216.147 928.215 239.258 960.214 239.258C992.214 239.258 1015.32 216.147 1015.32 178.814C1015.32 141.482 992.214 118.371 960.214 118.371C928.215 118.371 905.104 141.482 905.104 178.814Z" fill="#222033"/>
<path d="M668.774 178.814C668.774 123.704 707.885 84.5936 759.439 84.5936C832.327 84.5936 846.549 150.37 846.549 150.37H807.439C807.439 150.37 798.55 118.371 759.439 118.371C730.995 118.371 707.885 141.482 707.885 178.814C707.885 216.147 730.995 239.258 759.439 239.258C800.328 239.258 809.216 207.258 809.216 207.258H846.549C846.549 207.258 832.327 273.035 759.439 273.035C707.885 273.035 668.774 233.925 668.774 178.814Z" fill="#222033"/>
<path d="M462.528 178.814C462.528 125.482 503.416 84.5936 554.971 84.5936C606.526 84.5936 647.414 125.482 647.414 178.814V191.259H499.861C505.194 221.48 528.305 239.258 554.971 239.258C592.304 239.258 606.526 214.369 606.526 214.369H645.636C645.636 214.369 626.081 273.035 554.971 273.035C503.416 273.035 462.528 232.147 462.528 178.814ZM501.638 161.037H608.303C604.748 139.704 586.97 118.371 554.971 118.371C530.082 118.371 506.972 134.371 501.638 161.037Z" fill="#222033"/>
<path d="M1881 53.9884V20.495H1891.77L1899.9 39.6341H1901.1L1909.23 20.495H1920V53.9884H1912.82V32.6962L1913.3 28.3899H1912.82L1905.17 46.3328H1895.84L1888.18 28.3899H1887.7L1888.18 32.6962V53.9884H1881Z" fill="#222033"/>
<path d="M1846.79 27.1937V20.495H1875.5V27.1937H1864.73V53.9884H1857.55V27.1937H1846.79Z" fill="#222033"/>
</svg>
