<svg width="616" height="99" viewBox="0 0 616 99" fill="none" xmlns="http://www.w3.org/2000/svg">
<g clip-path="url(#clip0_253_141)">
<path d="M138.793 96.5H117.641V21.9041H87.1237V96.5H66.0356V21.936H35.4547V96.5H14.3666V21.9041H0V0.5H153V21.7449H138.793V96.5Z" fill="black"/>
<path d="M198.329 96.6678H183.784V0.565674H243.716V12.7499H198.392V41.7113H239.921V53.9593H198.329V96.6997V96.6678Z" fill="black"/>
<path d="M538.689 60.115C538.657 73.9578 534.575 84.1006 525.006 91.5962C518.148 96.9865 510.142 98.7408 501.562 98.4538C483.509 97.8477 469.698 84.9299 467.944 66.9726C467.051 57.7228 468.231 48.8558 473.43 40.9775C481.308 29.0485 492.727 24.296 506.729 25.4123C526.122 26.9433 538.817 42.5085 538.657 60.115H538.689ZM481.532 59.0624C481.5 67.3553 482.808 72.5225 485.742 77.3068C493.556 90.0652 512.216 90.2246 520.413 77.7534C527.143 67.451 526.377 52.7152 518.276 43.4335C510.493 34.5026 496.172 34.4708 488.262 43.274C483.509 48.5687 481.564 54.8203 481.532 59.0624Z" fill="black"/>
<path d="M601.301 96.6039V94.4988C601.301 81.1982 601.333 67.8658 601.301 54.5652C601.301 52.2687 601.077 49.9403 600.599 47.7076C599.068 40.3716 593.55 36.4484 586.054 37.2139C578.336 38.0113 573.743 42.7638 571.446 49.6214C570.138 53.4808 569.5 57.7229 569.405 61.8375C569.118 72.7139 569.309 83.6223 569.277 94.5307C569.277 95.2005 569.277 95.8703 569.277 96.6358H555.466V27.0391H569.15V38.9682C570.681 36.7355 571.829 34.6941 573.296 32.908C578.463 26.5926 585.353 24.6788 593.199 25.3806C598.047 25.8271 602.608 27.1348 606.468 30.2287C611.125 33.9605 613.453 39.0639 614.474 44.8051C614.888 47.1016 615.143 49.4938 615.143 51.8222C615.207 66.3029 615.143 80.8155 615.143 95.2962V96.6039H601.269H601.301Z" fill="black"/>
<path d="M346.644 47.8351H333.248C333.088 47.0058 332.961 46.2403 332.769 45.4748C331.462 40.4991 326.901 36.9586 321 36.4164C317.236 36.0656 313.6 36.4802 310.347 38.681C305.148 42.1896 304.988 48.6006 310.379 51.8221C313.313 53.5445 316.726 54.5651 320.075 55.4901C326.231 57.2125 332.546 58.3607 338.192 61.5822C345.687 65.8562 348.941 72.3311 347.442 80.3689C346.485 85.4722 343.71 89.4592 339.531 92.4574C328.751 100.272 311.144 100.463 300.204 92.9358C294.176 88.7893 291.432 82.7929 290.667 75.5526H304.446C304.574 76.031 304.765 76.6051 304.924 77.2112C306.296 82.3464 309.517 85.5998 314.78 86.6842C318.99 87.5773 323.169 87.4497 327.283 86.1101C331.302 84.8024 333.854 81.549 333.95 77.881C334.045 74.7552 332.738 72.2673 329.931 71.0872C326.263 69.5881 322.435 68.4398 318.64 67.3554C313.026 65.7287 307.285 64.6442 302.213 61.5184C294.016 56.4789 290.731 48.0584 293.92 39.5741C295.898 34.3113 299.725 30.6114 304.797 28.3787C315.737 23.5624 326.55 23.6581 336.82 30.1967C343.072 34.1837 345.942 40.3396 346.708 47.7394L346.644 47.8351Z" fill="black"/>
<path d="M417.613 47.8989C413.37 47.8989 409.16 47.8989 404.95 47.867C404.663 47.867 404.184 47.261 404.153 46.8783C403.259 40.0844 397.359 37.0224 391.968 36.4483C388.013 36.0337 384.218 36.6078 380.932 39.0638C376.467 42.3809 376.244 48.3773 380.9 51.4075C383.548 53.1617 386.737 54.2781 389.799 55.1712C395.923 56.9573 402.303 57.9461 408.044 60.9443C412.158 63.0813 415.699 65.8882 417.613 70.2898C420.834 77.7534 418.059 86.9075 411.106 92.1703C400.485 100.176 382.655 100.655 371.651 93.2229C365.814 89.2678 362.847 83.6541 361.954 76.7965C361.891 76.4138 361.954 76.031 361.954 75.5526H375.574C375.733 76.1267 375.925 76.7008 376.084 77.275C377.583 82.9843 381.315 86.3015 387.12 86.8756C390.437 87.1946 393.85 87.0032 397.135 86.461C399.049 86.142 401.027 84.93 402.494 83.5584C406.768 79.6353 405.875 73.2242 400.548 70.8958C396.657 69.2053 392.479 68.2165 388.364 67.0683C383.133 65.5692 377.807 64.4209 373.086 61.4865C364.283 56.0004 361.253 46.1128 365.973 37.469C368.78 32.3019 373.277 28.9847 378.827 27.1985C388.843 23.9452 398.571 24.3279 407.661 30.1329C413.657 33.9285 416.624 39.7017 417.644 46.5912C417.708 46.9739 417.644 47.3567 417.644 47.9308L417.613 47.8989Z" fill="black"/>
<path d="M259.25 27.0073H273.029V96.6358H259.25V27.0073Z" fill="black"/>
<path d="M259.505 0.533691H273.922V14.7912H259.505V0.533691Z" fill="black"/>
<path d="M436.399 27.0073H450.178V96.6358H436.399V27.0073Z" fill="black"/>
<path d="M436.654 0.533691H451.071V14.7912H436.654V0.533691Z" fill="black"/>
</g>
<defs>
<clipPath id="clip0_253_141">
<rect width="616" height="98" fill="white" transform="translate(0 0.5)"/>
</clipPath>
</defs>
</svg>
