<svg width="36" height="36" viewBox="0 0 36 36" fill="none" xmlns="http://www.w3.org/2000/svg">
<path d="M24.0692 2H24.3721C24.9403 2.18685 25.1553 2.33732 25.5351 2.87812C25.6006 2.97125 25.7468 3.23465 25.8084 3.3051L25.8301 3.30998C26.1007 3.36946 26.3848 3.37705 26.6589 3.41627C27.1636 3.48846 27.6792 3.59001 28.1753 3.71504C29.962 4.16548 33.5645 5.73449 34.598 7.38271C34.8362 7.7626 35.0025 8.23973 35.0581 8.69546C35.0743 8.82764 35.0588 8.99171 35.1053 9.11426V9.29592C35.0551 9.47765 35.077 9.94107 35.0505 10.1813C34.9539 11.0611 34.8428 12.0493 34.4415 12.8309C34.3319 13.0606 34.0285 13.251 33.9029 13.4344C33.579 13.9068 33.3625 14.1948 32.8888 14.502C32.0078 15.0734 31.1195 14.8875 30.1545 14.9308C29.3823 14.9654 28.9706 15.7383 28.8068 16.4701C28.5685 17.5767 28.4957 18.6639 28.2049 19.7706C28.0078 20.5063 27.7586 21.2242 27.4599 21.9186C27.3466 22.187 27.0815 22.7003 27.0198 22.9319C26.904 23.3654 26.8056 23.9334 26.7193 24.3837C26.4384 25.7873 26.2384 27.2086 26.1203 28.6391C26.0847 29.0869 26.0399 29.546 26.0439 29.9952C26.0476 30.4164 26.0943 31.0918 26.2822 31.4525C26.4857 31.8435 27.0086 32.0757 27.3446 32.3295C27.6719 32.5769 28.2229 33.102 28.0999 33.59C28.0612 33.7432 27.9541 33.8497 27.8284 33.9229C27.5123 34.1064 26.5185 34.024 26.1292 34.0303C26.0657 34.8288 25.0414 34.6147 24.5411 34.627C24.2753 34.8871 24.2072 34.8207 23.9251 34.9143H23.6537C23.5235 34.8701 23.3374 34.8541 23.1917 34.8067C22.9476 34.727 22.6424 34.5698 22.3979 34.5276C22.099 34.4759 21.8603 34.5543 21.5541 34.4209C21.29 34.3058 21.1261 34.1059 21.0417 33.8101C20.9023 33.3221 20.9844 32.7963 20.9331 32.2716C20.828 31.1993 20.5143 30.1316 20.1079 29.1539C19.9224 29.2594 19.6826 29.4483 19.5054 29.5773C19.3229 29.708 19.1371 29.8333 18.9481 29.9528C17.9512 30.5936 16.4404 31.3278 15.3128 31.6187C15.4185 31.6432 15.5313 31.6558 15.6388 31.6769C16.1515 31.7775 16.6006 31.9486 17.0502 32.2382C17.6225 32.607 18.815 33.9516 17.7349 34.4635C17.6258 34.5152 17.4902 34.5352 17.372 34.5365C16.6191 34.5417 15.8657 34.5381 15.1127 34.5381L10.6721 34.5383L7.47342 34.5386C6.90364 34.5388 6.33772 34.5439 5.76671 34.53C4.73211 34.5048 3.85418 34.0163 3.23846 33.1157C3.01617 32.7907 2.84067 32.4418 2.66522 32.0845C1.94546 30.649 1.45018 29.0943 1.19948 27.4837C1.11733 26.9803 1.04855 26.4828 1.03603 25.9705C1.03358 25.8702 1.03804 25.7495 1 25.6595V24.3963C1.03647 24.3035 1.0626 23.7184 1.07608 23.5735C1.09763 23.3563 1.12477 23.1398 1.15744 22.9244C1.3409 21.6134 1.71594 20.3422 2.2685 19.1589C3.88546 15.6669 6.70717 13.4803 10.0818 12.2803C10.9769 11.9621 11.8701 11.7281 12.7921 11.5189L14.175 11.2091C15.1185 11.0005 15.9277 10.8458 16.7297 10.2039C17.4039 9.6642 17.7494 8.96572 18.1652 8.21051C18.3466 7.88398 18.5344 7.56167 18.7284 7.24377C19.1347 6.58943 19.595 5.97634 20.1038 5.41205C20.0821 5.2795 20.047 5.14946 20.0177 5.01916C19.9354 4.65376 20.0297 4.27831 20.1068 3.92257C20.1671 3.64426 20.2252 3.37083 20.3654 3.12499C20.5028 2.88391 20.7786 2.6754 21.0325 2.62399C21.5393 2.52136 22.0394 2.72694 22.4555 3.02729C22.6061 3.13652 22.7341 3.26327 22.8853 3.37256C23.0024 3.34829 23.0862 3.34425 23.2057 3.33672C23.249 2.97284 23.3366 2.56396 23.5756 2.29041C23.7153 2.13046 23.8835 2.0706 24.0692 2Z" fill="black"/>
<path d="M20.9037 3.45174C21.4406 2.7838 22.6011 3.84064 22.9455 4.34658C23.0396 4.48474 23.2306 4.81702 23.385 4.81495C23.4802 4.76933 23.4885 4.67981 23.4864 4.57914C23.4329 4.31603 23.3798 4.21007 23.2719 3.97089C24.0054 3.87595 24.6909 3.90321 25.4216 3.94222C27.5579 4.05623 29.6738 4.74595 31.5785 5.78547C32.3169 6.18848 33.6958 7.01053 34.1336 7.80348C34.5824 8.43579 34.5038 9.79762 34.3991 10.5669C34.3163 11.174 34.1516 12.3913 33.6881 12.7845C33.1574 13.2348 32.1982 13.1366 31.5835 12.9333C31.5366 12.9159 31.4886 12.9021 31.44 12.8921C31.3459 12.8723 31.1982 12.8828 31.185 13.0095C31.2495 13.2117 31.5239 13.3269 31.6911 13.4026C32.1136 13.5939 32.5283 13.6391 32.9797 13.6252C32.7516 13.842 32.5772 13.9713 32.2908 14.0908C32.0348 14.1977 31.7659 14.2638 31.4924 14.287C31.2468 14.3094 30.8929 14.2964 30.6372 14.2954L29.1837 14.2914C28.7764 14.2909 28.3692 14.2926 27.9619 14.2965C26.7117 14.3179 25.6992 14.2969 24.5262 13.7265C23.5492 13.2607 22.7466 12.4503 22.2496 11.4275C22.1077 11.1328 22.0001 10.8196 21.891 10.5096C21.9665 11.1655 22.0732 11.5506 22.3258 12.1482C22.4864 12.4188 22.6331 12.6799 22.8261 12.9261C23.5886 13.899 24.5751 14.4607 25.7172 14.7293C26.7693 14.9767 27.8076 14.9206 28.8746 14.9089C28.0596 15.8242 28.047 17.637 27.7848 18.8575C27.2306 21.5507 25.9082 23.9871 24.0046 25.8223C24.1615 24.6499 24.3382 23.9012 24.7074 22.8018C23.5012 24.5183 23.2288 26.6066 23.2486 28.7029C23.2559 29.4847 23.2782 30.309 23.3726 31.0835C23.4559 31.7656 23.5488 32.363 24.0864 32.7967C24.6121 33.221 25.1665 33.3362 25.5413 33.9589C25.2514 33.9975 24.8857 33.966 24.5881 33.9633C24.2492 33.5355 23.9968 33.3461 23.4874 33.2168C23.6456 33.3881 24.1936 33.9431 24.0787 34.1915C23.8338 34.3842 23.1653 34.0945 22.9029 33.9964C22.552 33.8654 22.2972 33.864 21.9345 33.864C21.469 33.8641 21.5718 32.9796 21.5638 32.6427C21.558 32.4645 21.5461 32.2866 21.528 32.1092C21.3055 29.8823 20.1208 27.9653 19.6582 25.8126C19.5345 25.2368 19.4993 24.6283 19.4985 24.0376C19.4146 24.2963 19.3578 24.5719 19.3038 24.8394C19.1768 26.3171 19.4642 27.1095 19.9181 28.4778C17.819 30.1565 15.3388 31.1879 12.7412 31.4621C13.3712 30.76 13.8397 29.9072 14.1087 28.973C14.6251 27.202 14.4315 25.5418 13.6465 23.9145C13.2805 23.2901 12.8851 22.7679 12.3393 22.3167C11.5642 21.6759 10.5608 21.2613 9.5821 21.2394C9.27054 21.2323 9.00278 21.2639 8.69621 21.3068C8.87733 21.3338 9.08274 21.3376 9.27489 21.3661C9.84995 21.4555 10.408 21.6446 10.9274 21.9261C12.1602 22.5731 13.0995 23.7314 13.5324 25.1382C13.9965 26.6118 13.8924 28.2254 13.2436 29.6148C12.6939 30.7969 11.7943 31.7458 10.6883 32.3098C10.3257 32.4958 9.9416 32.6314 9.56182 32.77C10.1867 32.7494 10.766 32.635 11.3554 32.4091C11.5322 32.3415 11.7002 32.2404 11.8786 32.1806C12.2491 32.0562 15.0365 32.2126 15.512 32.3062C15.8638 32.3736 16.2044 32.4974 16.5224 32.6737C16.9947 32.9371 17.3995 33.3053 17.5671 33.8645C17.3044 33.8739 17.0196 33.8699 16.7551 33.8715C16.3761 33.0067 15.4591 32.7736 14.6463 32.8902C15.2155 33.036 15.8374 33.2785 16.1244 33.8679L9.17637 33.8695L6.92109 33.8704C6.56385 33.8706 6.04907 33.8868 5.70434 33.8621C5.47956 33.8474 5.26963 33.7356 5.12145 33.5521C4.32073 32.5522 5.59785 30.8939 6.30979 30.2299C5.78536 30.4682 5.12154 30.9795 4.79306 31.4677C4.35853 32.1133 4.24116 32.6206 4.33941 33.3906C3.73413 32.8682 3.41401 32.2458 3.07194 31.5082C2.12319 29.5116 1.61984 27.3018 1.60226 25.0566C1.60062 23.6173 1.82846 22.1886 2.27576 20.8332C3.76705 16.2562 7.21185 13.7478 11.3957 12.5444C12.1286 12.3416 12.8666 12.1614 13.6089 12.004C14.6882 11.765 15.8138 11.5932 16.7628 10.9631C17.9727 10.1596 18.45 8.92163 19.1946 7.67725C19.5621 7.06087 19.9863 6.48613 20.4602 5.96174C20.7323 6.29427 21.0664 6.50951 21.4804 6.5365C21.6885 6.55005 21.8755 6.54306 22.0644 6.43907C22.0332 6.41643 21.8078 6.37567 21.7523 6.36329C21.1591 6.23073 20.7903 5.62872 20.6352 5.02729C20.5408 4.6608 20.7163 3.78123 20.9037 3.45174Z" fill="white"/>
<path d="M33.3219 8.47444C33.9423 8.46324 34.1404 9.06368 34.1727 9.6279C34.0941 9.52512 34.0352 9.44826 33.9479 9.35506C33.8628 9.29562 33.8287 9.28633 33.7333 9.2516C33.482 9.30084 33.0233 9.48697 32.9343 9.04944C32.9098 8.92624 32.9311 8.79758 32.9935 8.69126C33.0818 8.54286 33.1736 8.50557 33.3219 8.47444Z" fill="black"/>
<path d="M21.3461 3.57981C22.1639 3.84463 22.8611 4.63062 22.6881 5.62337C22.673 5.71043 22.6053 5.79271 22.5456 5.85027C22.4348 5.81797 22.236 5.68051 22.1629 5.66695C21.8003 5.59975 21.5319 5.66025 21.7322 5.13755C21.7794 5.0146 21.8713 4.97581 21.9855 4.93071C21.8986 4.43121 21.6551 4.09911 21.2849 3.80302C21.246 3.77181 21.1485 3.69855 21.1336 3.65718L21.1524 3.61877C21.216 3.57633 21.2699 3.58322 21.3461 3.57981Z" fill="black"/>
<path d="M26.2273 5.90106C26.741 5.84224 27.1853 6.07975 27.5906 6.39915C27.7527 6.52685 28.1913 6.85296 28.1883 7.07442C28.0688 7.27645 27.5009 6.92622 27.2984 6.97568C27.1973 7.00034 27.0909 7.06692 27.0001 7.11723C26.3154 7.38049 25.9612 7.19753 25.584 6.55176C25.4171 6.49263 25.0621 6.46949 24.9738 6.29899C24.9833 6.03196 26.0075 5.92213 26.2273 5.90106Z" fill="black"/>
<path d="M26.1166 24.2577C26.1261 24.3056 25.9824 25.0461 25.9613 25.1658C25.8109 26.0157 25.6893 26.8714 25.5971 27.731C25.474 28.8942 25.3093 30.5109 25.6933 31.6194C25.9714 32.4223 26.9589 32.6433 27.49 33.3666L25.881 33.3659C25.715 33.1844 25.5444 33.0263 25.3461 32.887C24.9914 32.6375 24.4708 32.439 24.2239 32.0562C23.7409 31.3076 23.7872 27.6794 23.9221 26.7102C23.9877 26.6356 24.1431 26.5046 24.2215 26.4332C24.3935 26.2769 24.5621 26.1159 24.7269 25.9508C25.2473 25.4268 25.6876 24.8679 26.1166 24.2577Z" fill="white"/>
<path d="M24.1864 2.65142C24.5988 2.64605 24.8402 2.95889 25.086 3.27298L24.722 3.26738C24.4216 3.26577 24.1211 3.27145 23.8209 3.28443C23.871 3.00322 23.9032 2.75054 24.1864 2.65142Z" fill="white"/>
</svg>
