<svg width="49" height="49" viewBox="0 0 49 49" fill="none" xmlns="http://www.w3.org/2000/svg">
<circle cx="24.5" cy="24.5" r="24.5" fill="#2B2B2B"/>
<path d="M22.9988 5.68693C23.3186 5.6553 23.6559 5.62719 23.7543 5.62016C23.8491 5.61314 24.32 5.60611 24.7978 5.60259C25.2792 5.59908 25.9011 5.61314 26.1857 5.63071C26.4738 5.65179 26.9657 5.70099 27.2854 5.73964C27.6052 5.7783 28.1111 5.8556 28.4098 5.91183C28.7084 5.96805 29.2144 6.0805 29.5341 6.15781C29.8538 6.23864 30.4617 6.41785 30.8868 6.56193C31.312 6.70249 31.9374 6.93442 32.2747 7.08201C32.612 7.22609 33.0969 7.44747 33.3463 7.57398C33.5958 7.69697 34.0174 7.92187 34.2774 8.07297C34.5375 8.22056 35.0188 8.52277 35.3491 8.74064C35.6794 8.95852 36.1361 9.28181 36.368 9.45751C36.5999 9.63673 36.9864 9.94948 37.2289 10.1568C37.4713 10.3606 37.9456 10.8069 38.2829 11.1478C38.6202 11.4851 39.0524 11.9455 39.2386 12.1668C39.4284 12.3882 39.7165 12.7432 39.8816 12.9575C40.0467 13.1719 40.3384 13.5725 40.5281 13.8536C40.7178 14.1347 40.9919 14.5599 41.136 14.8024C41.2835 15.0449 41.5189 15.4701 41.6665 15.7512C41.8141 16.0323 42.0144 16.4435 42.1162 16.6648C42.2146 16.8862 42.3727 17.2587 42.4641 17.4906C42.559 17.7226 42.6995 18.1021 42.7803 18.334C42.8611 18.5659 43.0017 19.0228 43.0965 19.3531C43.1879 19.6834 43.3214 20.2176 43.3882 20.5479C43.4584 20.8782 43.5533 21.4229 43.6025 21.7602C43.6517 22.0976 43.7114 22.5825 43.736 22.832C43.7641 23.1061 43.7817 23.7773 43.7817 24.5012C43.7817 25.2391 43.7606 25.8928 43.736 26.1704C43.7079 26.4199 43.6587 26.8556 43.6201 27.1367C43.5814 27.4179 43.5006 27.8817 43.4444 28.1734C43.3882 28.4615 43.2757 28.9535 43.1949 29.2627C43.1176 29.572 42.97 30.078 42.8682 30.3872C42.7663 30.6965 42.5941 31.1709 42.4887 31.4414C42.3798 31.712 42.183 32.1689 42.0495 32.4605C41.916 32.7487 41.6981 33.1844 41.5681 33.4269C41.4381 33.6694 41.2343 34.0243 41.1184 34.2176C41.0024 34.4108 40.7495 34.8044 40.5527 35.0961C40.3559 35.3842 40.0573 35.8059 39.8851 36.0273C39.713 36.2487 39.3967 36.6387 39.1789 36.8882C38.9611 37.1377 38.4832 37.6367 38.1213 37.9952C37.7559 38.3536 37.2991 38.7788 37.1059 38.9404C36.9126 39.1021 36.5156 39.4113 36.2275 39.6292C35.9359 39.8471 35.4931 40.1598 35.2437 40.3215C34.9942 40.4866 34.5726 40.7432 34.3126 40.8978C34.0526 41.0489 33.522 41.323 33.1355 41.5127C32.749 41.699 32.2044 41.945 31.9233 42.0539C31.6423 42.1663 31.1363 42.3491 30.799 42.4615C30.4617 42.574 29.8609 42.7426 29.4638 42.841C29.0668 42.9394 28.466 43.0659 28.1287 43.1222C27.7914 43.1819 27.2924 43.2522 27.0219 43.2803C26.7514 43.3119 26.2208 43.3541 25.8448 43.3752C25.4408 43.3998 24.854 43.4033 24.4218 43.3927C24.0178 43.3787 23.4451 43.3471 23.157 43.319C22.8653 43.2908 22.4472 43.2416 22.2259 43.2135C22.0045 43.1819 21.5758 43.1081 21.2772 43.0519C20.9785 42.9921 20.4796 42.8832 20.1704 42.8024C19.8612 42.7251 19.3307 42.5705 18.9934 42.458C18.6561 42.3456 18.1325 42.1558 17.8339 42.0363C17.5352 41.9168 16.9414 41.6463 16.5163 41.4389C16.0911 41.2281 15.529 40.9259 15.269 40.7713C15.009 40.6131 14.6225 40.3707 14.4081 40.2301C14.1938 40.086 13.8143 39.8154 13.5649 39.6292C13.3119 39.4394 12.9254 39.1337 12.7041 38.9475C12.4827 38.7647 11.9732 38.2868 11.5762 37.8897C11.1792 37.4927 10.7189 37.0112 10.5537 36.818C10.3886 36.6247 10.0899 36.2522 9.88967 35.9921C9.6894 35.7321 9.35561 35.2647 9.14831 34.9555C8.94452 34.6463 8.65289 34.1789 8.50532 33.9189C8.35424 33.6588 8.12585 33.2301 7.99585 32.9701C7.86585 32.71 7.65855 32.2673 7.53908 31.9861C7.41611 31.705 7.2334 31.2482 7.13151 30.967C7.02962 30.6859 6.88907 30.2678 6.8188 30.0358C6.74853 29.8039 6.62204 29.3295 6.5342 28.9816C6.44987 28.6337 6.33393 28.0715 6.27771 27.7341C6.21798 27.3968 6.14771 26.9048 6.1196 26.6448C6.08798 26.3847 6.04581 25.8611 6.02473 25.4851C6.00014 25.0915 5.99311 24.4801 6.00716 24.0444C6.0177 23.6297 6.05284 23.0288 6.08095 22.709C6.11257 22.3892 6.16879 21.9148 6.20744 21.6548C6.24609 21.3948 6.3269 20.952 6.38312 20.6709C6.44285 20.3897 6.54474 19.947 6.6115 19.6869C6.67826 19.4269 6.82231 18.9455 6.93124 18.6151C7.03664 18.2848 7.21584 17.7893 7.32827 17.5082C7.4407 17.2271 7.63044 16.7843 7.7499 16.5243C7.87288 16.2642 8.08018 15.8426 8.21369 15.5931C8.35072 15.3436 8.54046 15.0027 8.63884 14.8375C8.73722 14.6724 8.95154 14.335 9.11668 14.082C9.28182 13.829 9.57696 13.4108 9.77372 13.1508C9.97048 12.8907 10.2375 12.5499 10.3675 12.3953C10.4975 12.2406 10.7927 11.9033 11.0281 11.6433C11.2635 11.3867 11.6711 10.9756 11.9311 10.7331C12.1911 10.4906 12.5881 10.1392 12.8095 9.95651C13.0308 9.77026 13.4208 9.46805 13.6703 9.28181C13.9233 9.09556 14.3308 8.80741 14.5838 8.64577C14.8368 8.4806 15.2549 8.22408 15.5149 8.07297C15.7749 7.92538 16.2738 7.66534 16.6217 7.49315C16.9695 7.32448 17.4895 7.08904 17.7812 6.97307C18.0693 6.85711 18.5155 6.69195 18.765 6.6041C19.0144 6.51976 19.429 6.38974 19.6785 6.31595C19.928 6.24567 20.3637 6.13322 20.6447 6.06996C20.9258 6.0032 21.4388 5.9048 21.7867 5.84506C22.1345 5.78884 22.6791 5.71504 22.9988 5.68693Z" fill="#5235F9"/>
<path d="M24.0473 36.9997C22.5648 36.9928 18.7841 36.6458 15.6272 33.5566C12.2762 30.2855 12 26.1661 12 24.9845V24.975C12.0194 23.4958 12.4032 19.726 15.5267 16.5833C18.6833 13.4155 22.4999 13.0231 23.9947 13.0022C24.074 13 24.1528 13.014 24.2264 13.0434C24.3 13.0727 24.3668 13.1169 24.4227 13.173C24.4791 13.228 24.5239 13.2938 24.5545 13.3664C24.5851 13.439 24.6008 13.517 24.6008 13.5958V16.1698C24.6012 16.2871 24.5667 16.4019 24.5017 16.4995C24.4366 16.5971 24.344 16.6732 24.2357 16.718C24.1637 16.7479 24.0866 16.7634 24.0086 16.7635C23.1887 16.7635 20.3424 16.9578 18.1007 19.2661C16.6256 20.8031 15.794 22.8459 15.7764 24.9762C15.7821 25.9486 16.0028 28.4276 17.9586 30.5487C20.2197 33.0043 23.1943 33.2191 24.0513 33.226C24.8796 33.226 27.7479 33.0332 29.9977 30.6933C32.0682 28.5461 32.2933 25.9913 32.296 24.9929V13.6454C32.296 13.4884 32.3586 13.3378 32.4699 13.2267C32.5813 13.1156 32.7322 13.0532 32.8896 13.0532H35.4556C35.573 13.053 35.6878 13.0875 35.7855 13.1526C35.8831 13.2176 35.9593 13.3102 36.0043 13.4185C36.0341 13.4904 36.0493 13.5675 36.0491 13.6454V25.0228C36.0491 26.1991 35.7868 30.2867 32.4769 33.5467C29.3172 36.658 25.527 36.9983 24.0473 36.9997ZM13.1881 24.9845C13.1881 26.0601 13.4463 29.7677 16.4553 32.711C19.3057 35.4972 22.7151 35.811 24.0469 35.8152C25.0864 35.8152 28.7139 35.588 31.6387 32.7055C34.6203 29.7677 34.8549 26.0835 34.8563 25.0244V14.2421H33.476V24.9985C33.476 26.1416 33.2109 29.0615 30.8535 31.5183C28.2777 34.1944 24.9912 34.4106 24.0456 34.4106C23.0602 34.4024 19.6645 34.1573 17.0806 31.3504C14.853 28.9289 14.5948 26.0865 14.5866 24.9845C14.5866 23.833 14.8627 20.905 17.2436 18.4481C19.4108 16.2156 22.0748 15.7143 23.4081 15.6109V14.2186C21.9256 14.3369 18.8793 14.9003 16.3685 17.4221C13.5568 20.2509 13.2075 23.6472 13.1881 24.9845Z" fill="white"/>
<path d="M24.0461 31.7482C22.7088 31.7483 21.4013 31.3525 20.2884 30.6108C19.1768 29.8699 18.3099 28.8159 17.7975 27.5821C17.2856 26.3492 17.1517 24.9921 17.4127 23.6829C17.674 22.3733 18.3182 21.1708 19.2636 20.2277C20.2102 19.2834 21.4152 18.6407 22.7267 18.3806C24.0386 18.1203 25.3983 18.2539 26.6344 18.7648C27.8697 19.275 28.926 20.1399 29.6699 21.2502C30.413 22.3595 30.8097 23.6644 30.8098 24.9995C30.8062 26.7891 30.0924 28.5041 28.8253 29.7678C27.5563 31.0333 25.8382 31.7452 24.0461 31.7482ZM24.0461 19.4285C22.943 19.4284 21.8644 19.7549 20.9465 20.3667C20.0294 20.9779 19.3143 21.8473 18.8916 22.8651C18.4694 23.8821 18.3589 25.0016 18.5741 26.0815C18.7897 27.1618 19.3211 28.1538 20.101 28.9317C20.8819 29.7106 21.876 30.2408 22.9579 30.4554C24.04 30.6701 25.1615 30.5599 26.1812 30.1386C27.2001 29.7177 28.0715 29.0041 28.6851 28.0882C29.298 27.1732 29.6253 26.0968 29.6254 24.9955C29.6233 23.519 29.0348 22.1038 27.9893 21.0611C26.9424 20.017 25.5247 19.43 24.0461 19.4285Z" fill="white"/>
</svg>
