<svg width="18" height="22" viewBox="0 0 18 22" fill="none" xmlns="http://www.w3.org/2000/svg">
<path d="M8.60754 21.2121C7.85908 21.2171 7.13397 21.192 6.414 21.0788C5.88481 20.9955 5.36383 20.8834 4.87963 20.6442C4.75252 20.5814 4.62942 20.5078 4.51268 20.4272C3.93663 20.0297 3.78933 19.4831 3.92936 18.8129C3.96686 18.6334 4.03795 18.4594 4.10694 18.2883C4.65513 16.9283 5.20665 15.5696 5.75669 14.2103C5.78828 14.1322 5.81586 14.0525 5.8563 13.9441C5.6272 13.9108 5.41956 13.8819 5.21236 13.8502C4.27149 13.706 3.35536 13.4755 2.50502 13.0346C1.155 12.3345 0.352471 11.2313 0.095388 9.73117C-0.109233 8.5372 0.0193626 7.37671 0.442587 6.24605C1.07817 4.54807 2.09587 3.11748 3.47986 1.95045C4.46838 1.11689 5.58096 0.512925 6.84527 0.209095C8.54496 -0.199364 10.1825 -0.00351174 11.7538 0.745091C13.2414 1.45379 14.4205 2.53009 15.3808 3.85565C15.9311 4.61532 16.3694 5.43655 16.6832 6.32176C16.9491 7.07193 17.1154 7.84283 17.1042 8.64188C17.0934 9.40884 16.9789 10.1592 16.6714 10.8703C16.2615 11.8182 15.572 12.5043 14.6741 12.9908C13.8825 13.4196 13.0257 13.6524 12.1449 13.8068C11.9278 13.8449 11.7082 13.8689 11.4901 13.9017C11.4145 13.9131 11.3399 13.9315 11.2419 13.9513C11.3324 14.1772 11.4161 14.3874 11.5009 14.5971C12.0158 15.8708 12.5328 17.1437 13.0445 18.4187C13.1452 18.6697 13.2168 18.9285 13.2207 19.2052C13.2281 19.7258 13.0111 20.1256 12.5954 20.4249C12.176 20.7267 11.6936 20.877 11.1974 20.9849C10.3514 21.1689 9.49249 21.2199 8.60754 21.2121ZM5.91202 2.70772C5.03474 3.18184 4.29817 3.82267 3.68364 4.60417C2.98503 5.49262 2.45737 6.46915 2.18438 7.57339C2.17584 7.60789 2.16171 7.64156 2.15756 7.6765C2.13957 7.82788 2.22446 7.89357 2.36208 7.83488C2.40118 7.81821 2.43567 7.79069 2.47483 7.77423C2.88097 7.60354 3.27934 7.40953 3.69576 7.26914C4.74155 6.91656 5.83025 6.78403 6.92559 6.72238C7.8064 6.67279 8.68849 6.65523 9.57215 6.69636C10.3904 6.73446 11.2056 6.78847 12.0128 6.92921C12.9213 7.08759 13.8016 7.33562 14.6214 7.77123C14.7036 7.8149 14.7905 7.91529 14.891 7.82986C14.9908 7.745 14.9288 7.63172 14.9034 7.53107C14.6996 6.72231 14.3552 5.97519 13.8995 5.2795C13.1151 4.08197 12.1212 3.1183 10.8008 2.52064C9.91067 2.1177 8.9765 1.9751 8.00941 2.06249C7.27881 2.12851 6.58953 2.35009 5.91202 2.70772ZM5.43508 11.8319C5.84266 11.8807 6.25023 11.9295 6.65727 11.9783C6.70205 11.8716 6.7354 11.7935 6.76771 11.715C6.87597 11.4518 6.97996 11.1868 7.09284 10.9256C7.25072 10.5604 7.53491 10.3803 7.93122 10.3785C8.33717 10.3765 8.74314 10.3785 9.14909 10.3772C9.57446 10.3759 9.86539 10.5746 10.0273 10.965C10.1118 11.1687 10.1915 11.3744 10.276 11.5782C10.3297 11.7078 10.3881 11.8356 10.4471 11.9702C10.6054 11.9558 10.7466 11.9442 10.8874 11.93C11.5682 11.8614 12.2413 11.7516 12.8944 11.5417C13.3999 11.3793 13.8705 11.1533 14.2776 10.8014C14.5433 10.5718 14.5225 10.1529 14.2953 9.97216C14.1675 9.87041 14.0466 9.75819 13.9109 9.66824C13.5457 9.42606 13.1394 9.27281 12.7212 9.15106C11.7648 8.87267 10.7803 8.76897 9.79183 8.73433C8.2973 8.68197 6.80219 8.68448 5.32019 8.93672C4.74346 9.03489 4.17761 9.1748 3.64296 9.41795C3.34395 9.55393 3.06112 9.71964 2.82281 9.95042C2.55085 10.2138 2.55015 10.5279 2.81964 10.7895C3.11633 11.0775 3.47598 11.2628 3.8545 11.4155C4.35196 11.6163 4.87298 11.7294 5.43508 11.8319ZM10.3255 18.1778C9.80266 18.0585 9.27186 18.0126 8.73691 18.0021C8.23041 17.9922 7.7258 18.0199 7.22482 18.0918C6.86514 18.1435 6.50787 18.2166 6.18076 18.3839C6.06196 18.4446 5.94467 18.5207 5.85009 18.6137C5.67322 18.7874 5.67632 19.027 5.85405 19.2016C5.94386 19.2899 6.04916 19.3766 6.16407 19.4221C6.40766 19.5186 6.65701 19.6149 6.91306 19.6629C7.9725 19.8619 9.03675 19.8585 10.0995 19.683C10.4306 19.6283 10.7543 19.5397 11.0462 19.3661C11.4948 19.0995 11.4947 18.6974 11.0332 18.449C10.8227 18.3357 10.5848 18.2732 10.3255 18.1778Z" fill="#257F3B"/>
</svg>
