<svg width="500" height="500" viewBox="0 0 500 500" fill="none" xmlns="http://www.w3.org/2000/svg">
<g clip-path="url(#clip0_6345_33)">
<path d="M250 53.7499C300.14 53.7499 348.961 90.3511 386.486 145.96C423.666 201.057 446.25 269.967 446.25 325C446.25 352.141 440.764 372.308 431.9 387.536C423.084 402.681 410.217 414.169 393.403 422.88C358.842 440.785 309.127 446.25 250 446.25C190.874 446.25 141.159 440.785 106.598 422.88C89.7842 414.169 76.9166 402.681 68.1011 387.536C59.2373 372.308 53.7505 352.141 53.7505 325C53.7505 269.967 76.3354 201.057 113.515 145.96C151.04 90.351 199.861 53.7499 250 53.7499Z" stroke="#E81899" stroke-width="37.5"/>
<rect x="275" y="230" width="65" height="110" rx="32.5" fill="#E81899"/>
<rect x="160" y="230" width="65" height="110" rx="32.5" fill="#E81899"/>
</g>
<defs>
<clipPath id="clip0_6345_33">
<rect width="500" height="500" fill="white"/>
</clipPath>
</defs>
</svg>
