<svg width="1080" height="1080" viewBox="0 0 1080 1080" fill="none" xmlns="http://www.w3.org/2000/svg">
<rect width="1080" height="1080" fill="black"/>
<path d="M552.99 448.66L840.114 614.812C855.775 625.197 876.657 614.812 876.657 594.043V360.392C876.657 350.007 871.436 344.815 860.995 339.623L547.769 157.894C542.549 152.702 532.108 152.702 526.888 157.894L213.661 339.623C203.22 339.623 198 350.007 198 360.392V443.468L526.888 256.547C537.328 251.355 542.549 251.355 552.99 256.547L782.689 386.353C793.13 391.545 798.35 401.93 798.35 407.122V490.198L552.99 350.007C542.549 344.815 537.328 344.815 526.888 350.007L213.661 531.736C203.22 536.929 198 547.313 198 552.505V718.657C198 729.042 203.22 734.234 208.441 739.426L281.527 780.964V604.428C281.527 594.043 286.747 588.851 297.188 583.659L526.888 453.853C532.108 443.468 542.549 443.468 552.99 448.66Z" fill="white"/>
<path d="M553.051 822.511C542.61 827.703 537.39 827.703 526.949 822.511L370.336 734.243V817.319C370.336 827.703 375.556 832.896 380.777 838.088L526.949 921.164C537.39 926.356 542.61 926.356 553.051 921.164L881.939 734.243L808.852 692.705C798.412 687.512 793.191 687.512 782.75 692.705L553.051 822.511Z" fill="white"/>
<path d="M553.049 729.045L688.78 651.161C699.221 645.969 699.221 635.584 688.78 630.392L553.049 547.316C542.608 542.124 537.387 542.124 526.946 547.316L385.995 625.2C375.554 630.392 375.554 640.777 385.995 645.969L521.726 723.853C532.167 734.237 542.608 734.237 553.049 729.045Z" fill="white"/>
</svg>
