<svg width="49" height="49" viewBox="0 0 49 49" fill="none" xmlns="http://www.w3.org/2000/svg">
<circle cx="24.5" cy="24.5" r="24.5" fill="#2B2B2B"/>
<path d="M21.9979 5.08488C22.3176 5.05325 22.6549 5.02514 22.7533 5.01811C22.8482 5.01108 23.319 5.00406 23.7968 5.00054C24.2782 4.99703 24.9001 5.01108 25.1847 5.02865C25.4728 5.04974 25.9647 5.09894 26.2844 5.13759C26.6042 5.17624 27.1101 5.25355 27.4088 5.30978C27.7074 5.366 28.2134 5.47845 28.5331 5.55576C28.8529 5.63659 29.4607 5.8158 29.8859 5.95988C30.311 6.10044 30.9364 6.33237 31.2737 6.47996C31.611 6.62404 32.0959 6.84542 32.3454 6.97193C32.5948 7.09492 33.0165 7.31982 33.2765 7.47092C33.5365 7.61851 34.0178 7.92072 34.3481 8.13859C34.6784 8.35647 35.1352 8.67976 35.3671 8.85546C35.5989 9.03468 35.9854 9.34743 36.2279 9.55476C36.4703 9.75857 36.9446 10.2049 37.282 10.5457C37.6193 10.8831 38.0514 11.3434 38.2376 11.5648C38.4274 11.7862 38.7155 12.1411 38.8806 12.3555C39.0458 12.5698 39.3374 12.9704 39.5271 13.2515C39.7169 13.5327 39.9909 13.9579 40.135 14.2003C40.2826 14.4428 40.518 14.868 40.6655 15.1491C40.8131 15.4303 41.0134 15.8414 41.1153 16.0628C41.2136 16.2842 41.3718 16.6567 41.4631 16.8886C41.558 17.1205 41.6985 17.5 41.7793 17.732C41.8601 17.9639 42.0007 18.4207 42.0956 18.751C42.1869 19.0814 42.3204 19.6155 42.3872 19.9458C42.4575 20.2761 42.5523 20.8208 42.6015 21.1582C42.6507 21.4955 42.7104 21.9805 42.735 22.23C42.7631 22.5041 42.7807 23.1752 42.7807 23.8991C42.7807 24.6371 42.7596 25.2907 42.735 25.5683C42.7069 25.8178 42.6577 26.2536 42.6191 26.5347C42.5804 26.8158 42.4996 27.2797 42.4434 27.5713C42.3872 27.8595 42.2748 28.3514 42.1939 28.6607C42.1166 28.9699 41.9691 29.4759 41.8672 29.7852C41.7653 30.0944 41.5931 30.5688 41.4877 30.8394C41.3788 31.11 41.182 31.5668 41.0485 31.8585C40.915 32.1466 40.6972 32.5824 40.5672 32.8248C40.4371 33.0673 40.2334 33.4222 40.1174 33.6155C40.0015 33.8088 39.7485 34.2023 39.5517 34.494C39.355 34.7822 39.0563 35.2039 38.8841 35.4252C38.712 35.6466 38.3958 36.0367 38.1779 36.2862C37.9601 36.5357 37.4822 37.0347 37.1203 37.3931C36.7549 37.7515 36.2981 38.1767 36.1049 38.3384C35.9117 38.5 35.5146 38.8093 35.2265 39.0271C34.9349 39.245 34.4922 39.5578 34.2427 39.7194C33.9932 39.8846 33.5716 40.1411 33.3116 40.2957C33.0516 40.4468 32.521 40.7209 32.1346 40.9107C31.7481 41.0969 31.2035 41.3429 30.9224 41.4518C30.6413 41.5643 30.1353 41.747 29.798 41.8595C29.4607 41.9719 28.8599 42.1406 28.4629 42.239C28.0658 42.3374 27.465 42.4639 27.1277 42.5201C26.7904 42.5799 26.2915 42.6501 26.0209 42.6782C25.7504 42.7099 25.2198 42.752 24.8439 42.7731C24.4398 42.7977 23.853 42.8012 23.4209 42.7907C23.0168 42.7766 22.4441 42.745 22.156 42.7169C21.8644 42.6888 21.4462 42.6396 21.2249 42.6115C21.0035 42.5799 20.5749 42.5061 20.2762 42.4498C19.9776 42.3901 19.4786 42.2812 19.1694 42.2003C18.8602 42.123 18.3297 41.9684 17.9924 41.856C17.6551 41.7435 17.1316 41.5538 16.8329 41.4343C16.5342 41.3148 15.9405 41.0442 15.5153 40.8369C15.0902 40.626 14.528 40.3238 14.268 40.1692C14.008 40.0111 13.6215 39.7686 13.4072 39.628C13.1928 39.484 12.8134 39.2134 12.5639 39.0271C12.3109 38.8374 11.9244 38.5317 11.7031 38.3454C11.4817 38.1627 10.9722 37.6848 10.5752 37.2877C10.1782 36.8906 9.7179 36.4092 9.55276 36.2159C9.38762 36.0226 9.08897 35.6501 8.88869 35.3901C8.68842 35.1301 8.35463 34.6627 8.14733 34.3535C7.94354 34.0442 7.65191 33.5768 7.50434 33.3168C7.35326 33.0568 7.12488 32.628 6.99487 32.368C6.86487 32.108 6.65757 31.6652 6.53811 31.3841C6.41513 31.1029 6.23243 30.6461 6.13053 30.365C6.02864 30.0839 5.8881 29.6657 5.81782 29.4338C5.74755 29.2018 5.62106 28.7274 5.53322 28.3796C5.4489 28.0317 5.33295 27.4694 5.27673 27.1321C5.217 26.7947 5.14673 26.3027 5.11862 26.0427C5.087 25.7827 5.04484 25.2591 5.02375 24.8831C4.99916 24.4895 4.99213 23.878 5.00619 23.4423C5.01673 23.0276 5.05186 22.4267 5.07997 22.107C5.11159 21.7872 5.16781 21.3128 5.20646 21.0527C5.24511 20.7927 5.32592 20.3499 5.38214 20.0688C5.44187 19.7877 5.54376 19.3449 5.61052 19.0849C5.67728 18.8248 5.82134 18.3434 5.93026 18.0131C6.03567 17.6828 6.21486 17.1873 6.32729 16.9062C6.43973 16.625 6.62946 16.1823 6.74892 15.9222C6.8719 15.6622 7.0792 15.2405 7.21272 14.991C7.34975 14.7415 7.53948 14.4006 7.63786 14.2355C7.73624 14.0703 7.95057 13.733 8.11571 13.48C8.28084 13.2269 8.57599 12.8088 8.77275 12.5487C8.96951 12.2887 9.23654 11.9478 9.36654 11.7932C9.49654 11.6386 9.79169 11.3012 10.0271 11.0412C10.2625 10.7847 10.6701 10.3735 10.9301 10.1311C11.1901 9.88859 11.5871 9.53719 11.8085 9.35446C12.0298 9.16821 12.4198 8.866 12.6693 8.67976C12.9223 8.49351 13.3299 8.20536 13.5828 8.04371C13.8358 7.87855 14.2539 7.62203 14.5139 7.47092C14.7739 7.32333 15.2729 7.06329 15.6207 6.8911C15.9686 6.72243 16.4886 6.48699 16.7802 6.37102C17.0683 6.25506 17.5145 6.0899 17.764 6.00205C18.0135 5.91771 18.4281 5.78769 18.6775 5.7139C18.927 5.64361 19.3627 5.53116 19.6438 5.46791C19.9249 5.40114 20.4378 5.30275 20.7857 5.24301C21.1335 5.18679 21.6781 5.11299 21.9979 5.08488Z" fill="#111111"/>
<path d="M23.8598 36.4118C18.3538 36.4529 13.7256 31.9195 13.7457 26.2599C13.7658 20.7362 18.3031 16.2229 23.8675 16.2334C29.3955 16.2439 33.8668 20.7295 33.9166 26.2283C33.9673 31.9108 29.3343 36.4319 23.8608 36.4118H23.8598ZM23.8139 18.8774C19.7351 18.8928 16.3972 22.211 16.3925 26.3068C16.3876 30.4093 19.7198 33.7658 23.8101 33.7706C27.9166 33.7763 31.2517 30.4467 31.2736 26.3489C31.2966 22.1478 27.8505 18.8707 23.8129 18.8765L23.8139 18.8774Z" fill="white"/>
<path d="M25.9334 26.34C25.921 27.5093 24.9753 28.4373 23.8084 28.4248C22.632 28.4115 21.713 27.4605 21.7312 26.274C21.7485 25.1219 22.6971 24.2103 23.8649 24.2208C25.0193 24.2313 25.945 25.1804 25.9334 26.34Z" fill="white"/>
<path d="M13.6636 15.3974H33.9982V12.9238H13.6636V15.3974Z" fill="#FF6700"/>
</svg>
