<svg width="49" height="49" viewBox="0 0 49 49" fill="none" xmlns="http://www.w3.org/2000/svg">
<circle cx="24.5" cy="24.5" r="24.5" fill="#2B2B2B"/>
<path d="M22.6082 5.68644C22.928 5.65482 23.2653 5.6267 23.3636 5.61967C23.4585 5.61265 23.9293 5.60562 24.4072 5.6021C24.8885 5.59859 25.5104 5.61265 25.795 5.63022C26.0832 5.6513 26.5751 5.7005 26.8948 5.73915C27.2145 5.77781 27.7205 5.85512 28.0191 5.91134C28.3178 5.96757 28.8237 6.08002 29.1435 6.15733C29.4632 6.23815 30.0711 6.41737 30.4962 6.56144C30.9214 6.702 31.5468 6.93393 31.8841 7.08152C32.2214 7.2256 32.7063 7.44698 32.9557 7.57349C33.2052 7.69648 33.6268 7.92138 33.8868 8.07249C34.1468 8.22008 34.6282 8.52229 34.9585 8.74016C35.2887 8.95803 35.7455 9.28132 35.9774 9.45702C36.2093 9.63624 36.5958 9.94899 36.8382 10.1563C37.0807 10.3601 37.555 10.8064 37.8923 11.1473C38.2296 11.4846 38.6618 11.945 38.848 12.1664C39.0377 12.3877 39.3258 12.7427 39.491 12.957C39.6561 13.1714 39.9477 13.572 40.1375 13.8531C40.3272 14.1342 40.6013 14.5594 40.7453 14.8019C40.8929 15.0444 41.1283 15.4696 41.2759 15.7507C41.4235 16.0318 41.6237 16.443 41.7256 16.6644C41.824 16.8857 41.9821 17.2582 42.0735 17.4902C42.1683 17.7221 42.3089 18.1016 42.3897 18.3335C42.4705 18.5655 42.611 19.0223 42.7059 19.3526C42.7973 19.6829 42.9308 20.2171 42.9975 20.5474C43.0678 20.8777 43.1627 21.4224 43.2119 21.7597C43.2611 22.0971 43.3208 22.582 43.3454 22.8315C43.3735 23.1056 43.3911 23.7768 43.3911 24.5007C43.3911 25.2386 43.37 25.8923 43.3454 26.1699C43.3173 26.4194 43.2681 26.8551 43.2294 27.1362C43.1908 27.4174 43.11 27.8812 43.0538 28.1729C42.9975 28.461 42.8851 28.953 42.8043 29.2622C42.727 29.5715 42.5794 30.0775 42.4775 30.3867C42.3756 30.696 42.2035 31.1704 42.0981 31.441C41.9891 31.7115 41.7924 32.1684 41.6589 32.46C41.5253 32.7482 41.3075 33.1839 41.1775 33.4264C41.0475 33.6689 40.8437 34.0238 40.7278 34.2171C40.6118 34.4103 40.3588 34.8039 40.1621 35.0956C39.9653 35.3837 39.6667 35.8054 39.4945 36.0268C39.3223 36.2482 39.0061 36.6382 38.7883 36.8877C38.5704 37.1372 38.0926 37.6362 37.7307 37.9947C37.3653 38.3531 36.9085 38.7783 36.7153 38.94C36.522 39.1016 36.125 39.4108 35.8369 39.6287C35.5452 39.8466 35.1025 40.1593 34.8531 40.321C34.6036 40.4861 34.182 40.7427 33.922 40.8973C33.662 41.0484 33.1314 41.3225 32.7449 41.5122C32.3584 41.6985 31.8138 41.9445 31.5327 42.0534C31.2516 42.1659 30.7457 42.3486 30.4084 42.461C30.0711 42.5735 29.4702 42.7422 29.0732 42.8406C28.6762 42.9389 28.0754 43.0655 27.7381 43.1217C27.4007 43.1814 26.9018 43.2517 26.6313 43.2798C26.3607 43.3114 25.8302 43.3536 25.4542 43.3747C25.0502 43.3993 24.4634 43.4028 24.0312 43.3923C23.6272 43.3782 23.0544 43.3466 22.7663 43.3185C22.4747 43.2904 22.0566 43.2412 21.8352 43.213C21.6139 43.1814 21.1852 43.1076 20.8866 43.0514C20.5879 42.9917 20.089 42.8827 19.7798 42.8019C19.4706 42.7246 18.94 42.57 18.6027 42.4575C18.2654 42.3451 17.7419 42.1553 17.4433 42.0358C17.1446 41.9164 16.5508 41.6458 16.1257 41.4384C15.7005 41.2276 15.1383 40.9254 14.8783 40.7708C14.6183 40.6126 14.2318 40.3702 14.0175 40.2296C13.8032 40.0855 13.4237 39.815 13.1743 39.6287C12.9213 39.4389 12.5348 39.1332 12.3134 38.947C12.0921 38.7642 11.5826 38.2863 11.1856 37.8893C10.7885 37.4922 10.3283 37.0107 10.1631 36.8175C9.99797 36.6242 9.69932 36.2517 9.49905 35.9917C9.29877 35.7316 8.96498 35.2642 8.75768 34.955C8.55389 34.6458 8.26227 34.1784 8.11469 33.9184C7.96361 33.6583 7.73523 33.2296 7.60523 32.9696C7.47522 32.7095 7.26792 32.2668 7.14846 31.9856C7.02548 31.7045 6.84278 31.2477 6.74088 30.9666C6.63899 30.6854 6.49845 30.2673 6.42818 30.0353C6.3579 29.8034 6.23141 29.329 6.14358 28.9811C6.05925 28.6332 5.9433 28.071 5.88708 27.7336C5.82735 27.3963 5.75708 26.9043 5.72897 26.6443C5.69735 26.3842 5.65519 25.8606 5.63411 25.4846C5.60951 25.0911 5.60248 24.4796 5.61654 24.0439C5.62708 23.6292 5.66221 23.0283 5.69032 22.7085C5.72195 22.3888 5.77816 21.9144 5.81681 21.6543C5.85546 21.3943 5.93627 20.9515 5.99249 20.6704C6.05222 20.3893 6.15412 19.9465 6.22087 19.6864C6.28763 19.4264 6.43169 18.945 6.54061 18.6147C6.64602 18.2843 6.82521 17.7889 6.93764 17.5077C7.05008 17.2266 7.23981 16.7838 7.35927 16.5238C7.48225 16.2638 7.68955 15.8421 7.82307 15.5926C7.9601 15.3431 8.14983 15.0022 8.24821 14.837C8.34659 14.6719 8.56092 14.3345 8.72606 14.0815C8.8912 13.8285 9.18634 13.4103 9.3831 13.1503C9.57986 12.8903 9.84689 12.5494 9.97689 12.3948C10.1069 12.2402 10.402 11.9028 10.6374 11.6428C10.8729 11.3862 11.2804 10.9751 11.5404 10.7326C11.8004 10.4902 12.1975 10.1388 12.4188 9.95602C12.6402 9.76977 13.0302 9.46757 13.2797 9.28132C13.5326 9.09508 13.9402 8.80692 14.1932 8.64528C14.4462 8.48012 14.8643 8.22359 15.1243 8.07249C15.3843 7.9249 15.8832 7.66486 16.2311 7.49267C16.5789 7.32399 17.0989 7.08855 17.3906 6.97259C17.6787 6.85662 18.1249 6.69146 18.3744 6.60361C18.6238 6.51927 19.0384 6.38925 19.2879 6.31546C19.5373 6.24518 19.973 6.13273 20.2541 6.06947C20.5352 6.00271 21.0482 5.90431 21.396 5.84457C21.7439 5.78835 22.2885 5.71455 22.6082 5.68644Z" fill="white"/>
<path d="M20.6736 18.9617C20.723 18.9339 20.8126 18.8938 20.8712 18.8722C20.9546 18.8444 21.7173 18.8351 24.0423 18.832C27.0003 18.832 27.1145 18.8351 27.2689 18.8907C27.3708 18.9278 27.4758 18.9988 27.5468 19.076C27.6178 19.1532 27.6827 19.2674 27.7135 19.3662C27.7537 19.5021 27.7537 19.5546 27.7228 19.712C27.6981 19.8294 27.6487 19.9405 27.5869 20.0208C27.5345 20.0887 27.4295 20.1783 27.3554 20.2215C27.2288 20.2925 27.1763 20.2987 26.7841 20.308C26.5155 20.3172 26.3364 20.3327 26.3117 20.3543C26.2809 20.3852 26.2716 20.8391 26.2747 22.6516C26.2747 24.3097 26.2839 24.9334 26.3117 24.9828C26.3303 25.023 27.6302 27.0825 29.2018 29.5619C30.7734 32.0414 32.1166 34.175 32.1845 34.3016C32.2555 34.4282 32.3358 34.595 32.3636 34.6722C32.3945 34.7494 32.4315 34.9007 32.4531 35.0118C32.4809 35.1631 32.4809 35.2681 32.4562 35.4441C32.4346 35.5769 32.3852 35.7467 32.3358 35.8424C32.2864 35.932 32.1752 36.074 32.0888 36.1574C31.9992 36.2407 31.8387 36.3488 31.7337 36.4013C31.6256 36.4507 31.4342 36.5186 31.3076 36.5464C31.0915 36.5989 30.6499 36.602 24.067 36.602C17.4563 36.602 17.0425 36.5989 16.811 36.5464C16.6751 36.5156 16.4682 36.4476 16.3509 36.392C16.2089 36.3272 16.0915 36.2407 15.9896 36.1296C15.9063 36.0431 15.7858 35.861 15.7241 35.7282C15.616 35.512 15.6068 35.4688 15.6098 35.2434C15.6129 35.0427 15.6315 34.9501 15.7117 34.7494C15.7673 34.6135 15.8692 34.3974 15.9371 34.2708C16.0051 34.1442 16.1811 33.8508 16.3324 33.6223C16.4806 33.3938 17.7465 31.3992 19.1421 29.1914C20.5409 26.9837 21.7173 25.1218 21.8284 24.9303V22.6608C21.8284 20.8699 21.8223 20.3821 21.7914 20.3512C21.7636 20.3234 21.6339 20.3141 21.356 20.3141C21.0689 20.3141 20.933 20.3018 20.8496 20.2647C20.7848 20.24 20.6829 20.1783 20.6242 20.132C20.5656 20.0857 20.4853 19.9838 20.4482 19.9097C20.4009 19.8191 20.3772 19.7172 20.3772 19.604C20.3772 19.5113 20.3927 19.3847 20.4112 19.3261C20.4328 19.2674 20.4791 19.1717 20.5162 19.1161C20.5563 19.0605 20.6273 18.9926 20.6736 18.9617Z" fill="#4770F6"/>
<path d="M23.6798 10.6955C23.7292 10.6708 23.8249 10.6368 23.8898 10.6183H23.8867C23.9515 10.6028 24.0936 10.5967 24.2047 10.6059C24.3282 10.6121 24.4672 10.6491 24.566 10.6955C24.6555 10.7387 24.7883 10.8313 24.8624 10.9054C24.9334 10.9764 25.0291 11.1061 25.0693 11.1895C25.1341 11.3161 25.1465 11.3902 25.1465 11.6063C25.1465 11.8379 25.1341 11.8935 25.0507 12.0695C24.9921 12.193 24.8994 12.3165 24.8192 12.3875C24.7451 12.4524 24.6277 12.5327 24.5598 12.5666C24.4919 12.5975 24.3591 12.6346 24.2665 12.6438C24.1677 12.6562 24.0256 12.65 23.9268 12.6253C23.8342 12.6037 23.7014 12.5543 23.6335 12.5141C23.5656 12.4771 23.4513 12.3814 23.3772 12.3042C23.3062 12.227 23.229 12.1251 23.2043 12.0788C23.1796 12.0294 23.1456 11.9151 23.1271 11.8225C23.1086 11.7175 23.1055 11.5878 23.1209 11.4828C23.1364 11.3902 23.1827 11.2451 23.2259 11.1586C23.2661 11.0753 23.3649 10.9456 23.4451 10.8745C23.5223 10.8004 23.6304 10.7202 23.6798 10.6955Z" fill="#3971FF"/>
<path d="M19.777 14.1661C19.8789 14.1167 20.024 14.0642 20.1012 14.0488C20.1784 14.0333 20.2895 14.021 20.3482 14.0179C20.4069 14.0179 20.552 14.0364 20.6724 14.0611C20.7928 14.0889 20.9565 14.1506 21.0429 14.197C21.1263 14.2464 21.256 14.3452 21.327 14.4131C21.4011 14.4841 21.4968 14.5984 21.5431 14.6725C21.5864 14.7435 21.6481 14.8794 21.6821 14.972C21.716 15.077 21.7377 15.2283 21.7377 15.3734C21.7377 15.5278 21.716 15.6667 21.6759 15.7902C21.6389 15.8921 21.5802 16.0311 21.5401 16.099C21.4999 16.1669 21.3918 16.2935 21.3023 16.38C21.2097 16.4634 21.0584 16.5714 20.9657 16.6178C20.8731 16.6641 20.7002 16.7135 20.5798 16.7289C20.4408 16.7474 20.2957 16.7474 20.1784 16.7289C20.0765 16.7135 19.9067 16.6579 19.7986 16.6085C19.6936 16.556 19.5331 16.4479 19.4435 16.3646C19.3571 16.2812 19.2428 16.1392 19.1934 16.0496C19.144 15.957 19.0853 15.8149 19.0606 15.7285C19.039 15.6451 19.0205 15.4907 19.0205 15.3888C19.0205 15.2869 19.0483 15.114 19.0792 15.0029C19.1131 14.8917 19.1811 14.7404 19.2305 14.6632C19.2768 14.586 19.3787 14.4625 19.4559 14.3884C19.53 14.3143 19.6751 14.2155 19.777 14.1661Z" fill="#3971FF"/>
<path d="M26.434 14.2525C26.5266 14.1877 26.6779 14.1105 26.7706 14.0765C26.8786 14.0395 27.0299 14.0179 27.1874 14.0179C27.3603 14.0148 27.49 14.0333 27.6197 14.0765C27.7216 14.1136 27.8605 14.1723 27.9285 14.2124C27.9964 14.2525 28.1199 14.3514 28.2033 14.4347C28.2866 14.5181 28.3947 14.6694 28.441 14.7713C28.4904 14.8732 28.546 15.0523 28.5676 15.1727C28.5923 15.3333 28.5923 15.4382 28.5676 15.5895C28.546 15.7007 28.4873 15.8798 28.4348 15.9909C28.3731 16.1175 28.2743 16.2534 28.1631 16.3615C28.0674 16.4541 27.913 16.5684 27.8204 16.6178C27.7278 16.6641 27.561 16.7166 27.4499 16.7351C27.3387 16.7536 27.1781 16.7598 27.0948 16.7474C27.0083 16.7382 26.8786 16.7104 26.8015 16.6888C26.7243 16.6641 26.6008 16.6085 26.5236 16.5653C26.4464 16.522 26.3167 16.4201 26.2333 16.3399C26.1407 16.2472 26.0419 16.1052 25.9709 15.9601C25.8751 15.7624 25.8566 15.6914 25.8474 15.466C25.8412 15.2869 25.8535 15.148 25.8875 15.0276C25.9153 14.9288 25.9678 14.796 26.0048 14.7342C26.0419 14.6694 26.116 14.5613 26.1685 14.4934C26.2241 14.4255 26.3414 14.3174 26.434 14.2525Z" fill="#3971FF"/>
<path d="M23.306 22.867C23.2998 20.7736 23.306 20.3814 23.3431 20.3505C23.374 20.3227 23.5839 20.3135 24.0749 20.3135C24.6584 20.3135 24.7665 20.3197 24.7788 20.3598C24.7881 20.3845 24.7943 21.4961 24.7943 22.83C24.7943 24.9574 24.8005 25.2693 24.8437 25.3712C24.8684 25.433 25.2296 26.0258 25.6434 26.6897C26.0602 27.3535 26.792 28.5114 28.1475 30.642L26.1096 30.6512C24.9857 30.6543 23.1424 30.6543 19.959 30.642L21.4349 28.3262C22.247 27.054 23.0034 25.8622 23.3122 25.3465L23.306 22.867Z" fill="#F7F8F9"/>
</svg>
