<svg width="49" height="49" viewBox="0 0 49 49" fill="none" xmlns="http://www.w3.org/2000/svg">
<circle cx="24.5" cy="24.5" r="24.5" fill="#2B2B2B"/>
<path d="M22.6082 5.68644C22.928 5.65482 23.2653 5.6267 23.3636 5.61967C23.4585 5.61265 23.9293 5.60562 24.4072 5.6021C24.8885 5.59859 25.5104 5.61265 25.795 5.63022C26.0832 5.6513 26.5751 5.7005 26.8948 5.73915C27.2145 5.77781 27.7205 5.85512 28.0191 5.91134C28.3178 5.96757 28.8237 6.08002 29.1435 6.15733C29.4632 6.23815 30.0711 6.41737 30.4962 6.56144C30.9214 6.702 31.5468 6.93393 31.8841 7.08152C32.2214 7.2256 32.7063 7.44698 32.9557 7.57349C33.2052 7.69648 33.6268 7.92138 33.8868 8.07249C34.1468 8.22008 34.6282 8.52229 34.9585 8.74016C35.2887 8.95803 35.7455 9.28132 35.9774 9.45702C36.2093 9.63624 36.5958 9.94899 36.8382 10.1563C37.0807 10.3601 37.555 10.8064 37.8923 11.1473C38.2296 11.4846 38.6618 11.945 38.848 12.1664C39.0377 12.3877 39.3258 12.7427 39.491 12.957C39.6561 13.1714 39.9477 13.572 40.1375 13.8531C40.3272 14.1342 40.6013 14.5594 40.7453 14.8019C40.8929 15.0444 41.1283 15.4696 41.2759 15.7507C41.4235 16.0318 41.6237 16.443 41.7256 16.6644C41.824 16.8857 41.9821 17.2582 42.0735 17.4902C42.1683 17.7221 42.3089 18.1016 42.3897 18.3335C42.4705 18.5655 42.611 19.0223 42.7059 19.3526C42.7973 19.6829 42.9308 20.2171 42.9975 20.5474C43.0678 20.8777 43.1627 21.4224 43.2119 21.7597C43.2611 22.0971 43.3208 22.582 43.3454 22.8315C43.3735 23.1056 43.3911 23.7768 43.3911 24.5007C43.3911 25.2386 43.37 25.8923 43.3454 26.1699C43.3173 26.4194 43.2681 26.8551 43.2294 27.1362C43.1908 27.4174 43.11 27.8812 43.0538 28.1729C42.9975 28.461 42.8851 28.953 42.8043 29.2622C42.727 29.5715 42.5794 30.0775 42.4775 30.3867C42.3756 30.696 42.2035 31.1704 42.0981 31.441C41.9891 31.7115 41.7924 32.1684 41.6589 32.46C41.5253 32.7482 41.3075 33.1839 41.1775 33.4264C41.0475 33.6689 40.8437 34.0238 40.7278 34.2171C40.6118 34.4103 40.3588 34.8039 40.1621 35.0956C39.9653 35.3837 39.6667 35.8054 39.4945 36.0268C39.3223 36.2482 39.0061 36.6382 38.7883 36.8877C38.5704 37.1372 38.0926 37.6362 37.7307 37.9947C37.3653 38.3531 36.9085 38.7783 36.7153 38.94C36.522 39.1016 36.125 39.4108 35.8369 39.6287C35.5452 39.8466 35.1025 40.1593 34.8531 40.321C34.6036 40.4861 34.182 40.7427 33.922 40.8973C33.662 41.0484 33.1314 41.3225 32.7449 41.5122C32.3584 41.6985 31.8138 41.9445 31.5327 42.0534C31.2516 42.1659 30.7457 42.3486 30.4084 42.461C30.0711 42.5735 29.4702 42.7422 29.0732 42.8406C28.6762 42.9389 28.0754 43.0655 27.7381 43.1217C27.4007 43.1814 26.9018 43.2517 26.6313 43.2798C26.3607 43.3114 25.8302 43.3536 25.4542 43.3747C25.0502 43.3993 24.4634 43.4028 24.0312 43.3923C23.6272 43.3782 23.0544 43.3466 22.7663 43.3185C22.4747 43.2904 22.0566 43.2412 21.8352 43.213C21.6139 43.1814 21.1852 43.1076 20.8866 43.0514C20.5879 42.9917 20.089 42.8827 19.7798 42.8019C19.4706 42.7246 18.94 42.57 18.6027 42.4575C18.2654 42.3451 17.7419 42.1553 17.4433 42.0358C17.1446 41.9164 16.5508 41.6458 16.1257 41.4384C15.7005 41.2276 15.1383 40.9254 14.8783 40.7708C14.6183 40.6126 14.2318 40.3702 14.0175 40.2296C13.8032 40.0855 13.4237 39.815 13.1743 39.6287C12.9213 39.4389 12.5348 39.1332 12.3134 38.947C12.0921 38.7642 11.5826 38.2863 11.1856 37.8893C10.7885 37.4922 10.3283 37.0107 10.1631 36.8175C9.99797 36.6242 9.69932 36.2517 9.49905 35.9917C9.29877 35.7316 8.96498 35.2642 8.75768 34.955C8.55389 34.6458 8.26227 34.1784 8.11469 33.9184C7.96361 33.6583 7.73523 33.2296 7.60523 32.9696C7.47522 32.7095 7.26792 32.2668 7.14846 31.9856C7.02548 31.7045 6.84278 31.2477 6.74088 30.9666C6.63899 30.6854 6.49845 30.2673 6.42818 30.0353C6.3579 29.8034 6.23141 29.329 6.14358 28.9811C6.05925 28.6332 5.9433 28.071 5.88708 27.7336C5.82735 27.3963 5.75708 26.9043 5.72897 26.6443C5.69735 26.3842 5.65519 25.8606 5.63411 25.4846C5.60951 25.0911 5.60248 24.4796 5.61654 24.0439C5.62708 23.6292 5.66221 23.0283 5.69032 22.7085C5.72195 22.3888 5.77816 21.9144 5.81681 21.6543C5.85546 21.3943 5.93627 20.9515 5.99249 20.6704C6.05222 20.3893 6.15412 19.9465 6.22087 19.6864C6.28763 19.4264 6.43169 18.945 6.54061 18.6147C6.64602 18.2843 6.82521 17.7889 6.93764 17.5077C7.05008 17.2266 7.23981 16.7838 7.35927 16.5238C7.48225 16.2638 7.68955 15.8421 7.82307 15.5926C7.9601 15.3431 8.14983 15.0022 8.24821 14.837C8.34659 14.6719 8.56092 14.3345 8.72606 14.0815C8.8912 13.8285 9.18634 13.4103 9.3831 13.1503C9.57986 12.8903 9.84689 12.5494 9.97689 12.3948C10.1069 12.2402 10.402 11.9028 10.6374 11.6428C10.8729 11.3862 11.2804 10.9751 11.5404 10.7326C11.8004 10.4902 12.1975 10.1388 12.4188 9.95602C12.6402 9.76977 13.0302 9.46757 13.2797 9.28132C13.5326 9.09508 13.9402 8.80692 14.1932 8.64528C14.4462 8.48012 14.8643 8.22359 15.1243 8.07249C15.3843 7.9249 15.8832 7.66486 16.2311 7.49267C16.5789 7.32399 17.0989 7.08855 17.3906 6.97259C17.6787 6.85662 18.1249 6.69146 18.3744 6.60361C18.6238 6.51927 19.0384 6.38925 19.2879 6.31546C19.5373 6.24518 19.973 6.13273 20.2541 6.06947C20.5352 6.00271 21.0482 5.90431 21.396 5.84457C21.7439 5.78835 22.2885 5.71455 22.6082 5.68644Z" fill="white"/>
<path fill-rule="evenodd" clip-rule="evenodd" d="M9.9235 18.9581L8.60938 20.3025V26.7823L11.2376 29.4832L20.6242 29.4771C23.2767 26.3826 24.064 25.4803 24.0942 25.4803C24.1185 25.4742 24.9118 26.3765 25.8625 27.4787L27.5885 29.4771L36.9751 29.4832L39.6033 26.7823L39.6094 20.3328L36.9751 17.6016L27.5885 17.6076C24.9118 20.7082 24.1185 21.6045 24.0942 21.6045C24.064 21.6045 23.9852 21.5258 23.9126 21.4289C23.8338 21.332 23.1192 20.5023 22.3199 19.5758C21.5205 18.6553 20.818 17.8317 20.7635 17.753L20.6545 17.6076H11.2376L9.9235 18.9581ZM11.4194 20.5021L10.6927 21.2107L10.723 22.4521H19.2012C19.2497 22.6641 19.2618 23.1546 19.2618 23.6754V24.6322H10.723V25.8737L12.1461 27.2968L19.2315 27.3029L19.2316 27.3028L19.2317 27.3027C20.685 25.6314 21.4116 24.7957 21.775 24.3718C22.1444 23.9419 22.4411 23.5724 22.4411 23.5422C22.4411 23.5119 22.32 23.3484 22.1686 23.1728C22.1249 23.1221 22.0344 23.0165 21.9102 22.8716C21.6039 22.5144 21.093 21.9186 20.5759 21.3197L19.2618 19.7875H12.1461L11.4194 20.5021ZM27.4402 21.5562L27.1647 21.8768C26.5409 22.6096 25.9596 23.2878 25.8809 23.3787L25.7416 23.5422L28.9512 27.2968H36.0668L37.49 25.8737V24.6322H29.0117V22.4521H37.49V21.2107L36.0668 19.7875H28.9693L28.6363 20.169C28.4811 20.3449 27.977 20.9316 27.4407 21.5556L27.4407 21.5556L27.4402 21.5562Z" fill="black"/>
<path fill-rule="evenodd" clip-rule="evenodd" d="M18.8054 31.9508C18.708 32.0142 18.6232 32.0734 18.6232 32.0861C18.6232 32.0988 18.7122 32.1665 18.8224 32.2341C18.9537 32.3187 19.0258 32.3441 19.0342 32.306C19.0427 32.268 19.2504 32.2553 19.8944 32.2553H20.7419V31.9169C19.3563 31.9169 19.047 31.9 19.047 31.8746C19.047 31.8493 19.0342 31.8324 19.0173 31.8366C18.9961 31.8366 18.9029 31.8916 18.8054 31.9508ZM11.5681 31.9465C11.5469 31.9592 11.5342 32.0354 11.5384 32.1157L11.5469 32.2553H13.3266V31.9169C11.9918 31.9169 11.5893 31.9296 11.5681 31.9465ZM14.0469 32.7628C13.835 32.3441 13.6655 31.9846 13.6655 31.9592C13.6655 31.9339 13.7461 31.9169 14.0257 31.9169L14.5851 33.0377L15.1486 31.9169H15.3393C15.4452 31.9169 15.53 31.9254 15.53 31.9381C15.53 31.9508 15.352 32.3102 14.7461 33.524H14.4283L14.0469 32.7628ZM15.9537 32.01C15.869 32.0692 15.7842 32.1707 15.7546 32.2553C15.7249 32.3356 15.7037 32.5344 15.7037 32.6993C15.6995 32.8643 15.7207 33.0673 15.7418 33.1518C15.7673 33.2491 15.8393 33.3548 15.924 33.4225C16.0596 33.5325 16.0639 33.5325 16.708 33.5155L17.3605 33.5029C17.6063 33.228 17.6063 33.2195 17.6063 32.7205C17.6063 32.2214 17.6063 32.213 17.4834 32.0734L17.3605 31.9381C16.1274 31.9127 16.0935 31.9169 15.9537 32.01ZM21.475 32.3399C21.28 32.1326 21.1233 31.9508 21.1233 31.9381C21.1233 31.9254 21.2249 31.9169 21.3478 31.9169C21.5639 31.9169 21.5724 31.9169 22.0555 32.4456L22.3012 32.1791C22.5385 31.9169 22.547 31.9169 22.7673 31.9169C22.886 31.9169 22.9877 31.9296 22.9877 31.9465C22.9834 31.9677 22.8309 32.1453 22.3097 32.7205L22.5597 33.0038C22.6953 33.1645 22.8478 33.3295 22.8987 33.376C22.9495 33.4225 22.9919 33.4733 22.9877 33.4902C22.9877 33.5113 22.8817 33.524 22.7546 33.524C22.5216 33.524 22.5216 33.524 22.0555 32.9954L22.0555 32.9954L21.8224 33.2576C21.5894 33.524 21.5894 33.524 21.3563 33.524C21.1699 33.524 21.1275 33.5113 21.1572 33.4648C21.1741 33.431 21.28 33.3041 21.3944 33.1772C21.4444 33.1237 21.5 33.0645 21.5609 32.9996L21.561 32.9995C21.6396 32.9159 21.727 32.8229 21.8224 32.7205L21.475 32.3399ZM23.4877 31.9804C23.4199 32.0142 23.3394 32.103 23.3055 32.1707C23.2631 32.2595 23.2419 32.4287 23.2419 32.7205C23.2419 32.9531 23.2631 33.1899 23.2843 33.2491C23.3055 33.3083 23.3902 33.3929 23.4665 33.4394C23.5851 33.5155 23.6784 33.524 24.2928 33.524H24.9792V33.1857L23.6021 33.1645C23.5851 32.4371 23.5936 32.3102 23.6318 32.2891C23.6614 32.2722 23.9792 32.2553 24.3352 32.2553H24.9792V31.9169C23.7716 31.9212 23.5724 31.9339 23.4877 31.9804ZM25.403 33.524V32.7205V31.9169H25.7419V32.5513H26.9708L26.992 31.9381L27.3098 31.9169V33.524H26.9708V32.8896H25.7419V33.524H25.403ZM28.153 32.5175C27.9835 32.8516 27.8013 33.211 27.7462 33.321L27.6487 33.524H28.0513L28.6021 32.4202L29.153 33.524H29.5555C29.4541 33.3185 29.3666 33.1408 29.2907 32.9865C29.1571 32.7152 29.0591 32.5162 28.9835 32.3652C28.7759 31.9465 28.7674 31.9381 28.6149 31.9254L28.4581 31.9127L28.153 32.5175ZM29.9411 33.524V32.7205V31.9169H30.0979C30.242 31.9212 30.314 31.9719 31.4878 33.0588L31.5005 31.9169H31.8479V33.524H31.6784C31.5174 33.524 31.4708 33.4902 30.9073 32.9615C30.581 32.657 30.3013 32.3991 30.2844 32.3906C30.2674 32.3864 30.2589 32.6359 30.2589 33.5029L29.9411 33.524ZM32.4496 32.0015C32.3734 32.048 32.2929 32.1242 32.2717 32.1707C32.2462 32.2172 32.2293 32.454 32.2293 32.6993C32.2293 32.9446 32.2462 33.1899 32.2717 33.2491C32.2929 33.3083 32.3734 33.3929 32.4496 33.4394C32.5683 33.5113 32.6615 33.524 33.17 33.524C33.6022 33.524 33.7844 33.5071 33.8819 33.4606C33.9497 33.4267 34.0344 33.3379 34.0725 33.2703C34.1107 33.1941 34.1361 33.025 34.1361 32.8473V32.5513H33.1615V32.8896H33.7971C33.7971 33.0926 33.7675 33.1518 33.7336 33.1645C33.6954 33.1772 33.4285 33.1857 33.1403 33.1857C32.8268 33.1857 32.6022 33.1688 32.5895 33.1434C32.5768 33.118 32.564 32.9362 32.5598 32.7289C32.5556 32.5259 32.564 32.3356 32.581 32.306C32.6022 32.268 32.7717 32.2553 33.2039 32.2553H33.7971V31.9169C32.6615 31.9169 32.5725 31.9254 32.4496 32.0015ZM34.5598 32.8896V32.4033V31.9169H36.2971V32.2553H34.8564V32.5513H36.2971V32.8896H34.5598ZM11.5596 33.025L11.5723 33.5029L13.3308 33.524V33.1857H11.8901V32.8896H13.3308V32.5513H11.5469L11.5596 33.025ZM19.0088 33.5198V33.0334V32.5471H20.7461V32.8854H20.047C19.5173 32.8854 19.3436 32.8981 19.3436 32.9404C19.3406 32.9609 19.3377 32.9996 19.3348 33.0384L19.3309 33.0884C19.3303 33.1018 19.3297 33.1132 19.3335 33.123C19.3559 33.1814 19.5306 33.1814 20.7461 33.1814V33.5198H19.0088ZM36.2548 33.1392C36.2548 33.1688 35.9412 33.1814 35.4073 33.1814H34.5598V33.5198C36.0471 33.5198 36.259 33.5325 36.2675 33.5748C36.2759 33.6086 36.348 33.5874 36.4793 33.4986L36.6785 33.3718C36.3819 33.1603 36.2887 33.0969 36.276 33.0969C36.2632 33.0969 36.2548 33.118 36.2548 33.1392ZM16.0861 32.3062C16.0437 32.3443 16.031 32.45 16.0352 32.708C16.0394 32.9025 16.0522 33.0886 16.0649 33.1224C16.0818 33.1732 16.1878 33.1859 16.6496 33.1859C17.0437 33.1859 17.2301 33.1689 17.264 33.1351C17.2979 33.1013 17.3149 32.9448 17.3149 32.7207C17.3149 32.488 17.2979 32.3443 17.264 32.3062C17.2259 32.2681 17.0522 32.2554 16.6793 32.2554C16.3276 32.2554 16.1242 32.2724 16.0861 32.3062Z" fill="black"/>
</svg>
