<svg width="49" height="49" viewBox="0 0 49 49" fill="none" xmlns="http://www.w3.org/2000/svg">
<circle cx="24.5" cy="24.5" r="24.5" fill="#2B2B2B"/>
<g clip-path="url(#clip0_2903_23676)">
<path d="M43.2031 24.5C43.2031 14.1705 34.8295 5.79688 24.5 5.79688C14.1705 5.79688 5.79688 14.1705 5.79688 24.5C5.79688 34.8295 14.1705 43.2031 24.5 43.2031C34.8295 43.2031 43.2031 34.8295 43.2031 24.5Z" fill="#151515" stroke="#EAD3AB" stroke-width="0.671875"/>
<path d="M31.9537 15.2969H20.9361C18.7234 15.2969 16.9297 17.0854 16.9297 19.2916C16.9297 21.6832 18.3415 23.8506 20.5326 24.8231L31.6964 29.7779H31.9537C31.9537 27.3501 30.5156 25.1515 28.2872 24.1728L17.1731 19.2916H31.9537V15.2969Z" fill="#EAD3AB"/>
<path d="M16.9297 29.7773H31.9537C31.9537 31.9836 30.16 33.7721 27.9473 33.7721H16.9297V29.7773Z" fill="#EAD3AB"/>
</g>
<defs>
<clipPath id="clip0_2903_23676">
<rect width="38" height="38" fill="white" transform="translate(5.5 5.5)"/>
</clipPath>
</defs>
</svg>
