<svg width="49" height="49" viewBox="0 0 49 49" fill="none" xmlns="http://www.w3.org/2000/svg">
<circle cx="24.5" cy="24.5" r="24.5" fill="#2B2B2B"/>
<path d="M22.6082 5.68644C22.928 5.65482 23.2653 5.6267 23.3636 5.61967C23.4585 5.61265 23.9293 5.60562 24.4072 5.6021C24.8885 5.59859 25.5104 5.61265 25.795 5.63022C26.0832 5.6513 26.5751 5.7005 26.8948 5.73915C27.2145 5.77781 27.7205 5.85512 28.0191 5.91134C28.3178 5.96757 28.8237 6.08002 29.1435 6.15733C29.4632 6.23815 30.0711 6.41737 30.4962 6.56144C30.9214 6.702 31.5468 6.93393 31.8841 7.08152C32.2214 7.2256 32.7063 7.44698 32.9557 7.57349C33.2052 7.69648 33.6268 7.92138 33.8868 8.07249C34.1468 8.22008 34.6282 8.52229 34.9585 8.74016C35.2887 8.95803 35.7455 9.28132 35.9774 9.45702C36.2093 9.63624 36.5958 9.94899 36.8382 10.1563C37.0807 10.3601 37.555 10.8064 37.8923 11.1473C38.2296 11.4846 38.6618 11.945 38.848 12.1664C39.0377 12.3877 39.3258 12.7427 39.491 12.957C39.6561 13.1714 39.9477 13.572 40.1375 13.8531C40.3272 14.1342 40.6013 14.5594 40.7453 14.8019C40.8929 15.0444 41.1283 15.4696 41.2759 15.7507C41.4235 16.0318 41.6237 16.443 41.7256 16.6644C41.824 16.8857 41.9821 17.2582 42.0735 17.4902C42.1683 17.7221 42.3089 18.1016 42.3897 18.3335C42.4705 18.5655 42.611 19.0223 42.7059 19.3526C42.7973 19.6829 42.9308 20.2171 42.9975 20.5474C43.0678 20.8777 43.1627 21.4224 43.2119 21.7597C43.2611 22.0971 43.3208 22.582 43.3454 22.8315C43.3735 23.1056 43.3911 23.7768 43.3911 24.5007C43.3911 25.2386 43.37 25.8923 43.3454 26.1699C43.3173 26.4194 43.2681 26.8551 43.2294 27.1362C43.1908 27.4174 43.11 27.8812 43.0538 28.1729C42.9975 28.461 42.8851 28.953 42.8043 29.2622C42.727 29.5715 42.5794 30.0775 42.4775 30.3867C42.3756 30.696 42.2035 31.1704 42.0981 31.441C41.9891 31.7115 41.7924 32.1684 41.6589 32.46C41.5253 32.7482 41.3075 33.1839 41.1775 33.4264C41.0475 33.6689 40.8437 34.0238 40.7278 34.2171C40.6118 34.4103 40.3588 34.8039 40.1621 35.0956C39.9653 35.3837 39.6667 35.8054 39.4945 36.0268C39.3223 36.2482 39.0061 36.6382 38.7883 36.8877C38.5704 37.1372 38.0926 37.6362 37.7307 37.9947C37.3653 38.3531 36.9085 38.7783 36.7153 38.94C36.522 39.1016 36.125 39.4108 35.8369 39.6287C35.5452 39.8466 35.1025 40.1593 34.8531 40.321C34.6036 40.4861 34.182 40.7427 33.922 40.8973C33.662 41.0484 33.1314 41.3225 32.7449 41.5122C32.3584 41.6985 31.8138 41.9445 31.5327 42.0534C31.2516 42.1659 30.7457 42.3486 30.4084 42.461C30.0711 42.5735 29.4702 42.7422 29.0732 42.8406C28.6762 42.9389 28.0754 43.0655 27.7381 43.1217C27.4007 43.1814 26.9018 43.2517 26.6313 43.2798C26.3607 43.3114 25.8302 43.3536 25.4542 43.3747C25.0502 43.3993 24.4634 43.4028 24.0312 43.3923C23.6272 43.3782 23.0544 43.3466 22.7663 43.3185C22.4747 43.2904 22.0566 43.2412 21.8352 43.213C21.6139 43.1814 21.1852 43.1076 20.8866 43.0514C20.5879 42.9917 20.089 42.8827 19.7798 42.8019C19.4706 42.7246 18.94 42.57 18.6027 42.4575C18.2654 42.3451 17.7419 42.1553 17.4433 42.0358C17.1446 41.9164 16.5508 41.6458 16.1257 41.4384C15.7005 41.2276 15.1383 40.9254 14.8783 40.7708C14.6183 40.6126 14.2318 40.3702 14.0175 40.2296C13.8032 40.0855 13.4237 39.815 13.1743 39.6287C12.9213 39.4389 12.5348 39.1332 12.3134 38.947C12.0921 38.7642 11.5826 38.2863 11.1856 37.8893C10.7885 37.4922 10.3283 37.0107 10.1631 36.8175C9.99797 36.6242 9.69932 36.2517 9.49905 35.9917C9.29877 35.7316 8.96498 35.2642 8.75768 34.955C8.55389 34.6458 8.26227 34.1784 8.11469 33.9184C7.96361 33.6583 7.73523 33.2296 7.60523 32.9696C7.47522 32.7095 7.26792 32.2668 7.14846 31.9856C7.02548 31.7045 6.84278 31.2477 6.74088 30.9666C6.63899 30.6854 6.49845 30.2673 6.42818 30.0353C6.3579 29.8034 6.23141 29.329 6.14358 28.9811C6.05925 28.6332 5.9433 28.071 5.88708 27.7336C5.82735 27.3963 5.75708 26.9043 5.72897 26.6443C5.69735 26.3842 5.65519 25.8606 5.63411 25.4846C5.60951 25.0911 5.60248 24.4796 5.61654 24.0439C5.62708 23.6292 5.66221 23.0283 5.69032 22.7085C5.72195 22.3888 5.77816 21.9144 5.81681 21.6543C5.85546 21.3943 5.93627 20.9515 5.99249 20.6704C6.05222 20.3893 6.15412 19.9465 6.22087 19.6864C6.28763 19.4264 6.43169 18.945 6.54061 18.6147C6.64602 18.2843 6.82521 17.7889 6.93764 17.5077C7.05008 17.2266 7.23981 16.7838 7.35927 16.5238C7.48225 16.2638 7.68955 15.8421 7.82307 15.5926C7.9601 15.3431 8.14983 15.0022 8.24821 14.837C8.34659 14.6719 8.56092 14.3345 8.72606 14.0815C8.8912 13.8285 9.18634 13.4103 9.3831 13.1503C9.57986 12.8903 9.84689 12.5494 9.97689 12.3948C10.1069 12.2402 10.402 11.9028 10.6374 11.6428C10.8729 11.3862 11.2804 10.9751 11.5404 10.7326C11.8004 10.4902 12.1975 10.1388 12.4188 9.95602C12.6402 9.76977 13.0302 9.46757 13.2797 9.28132C13.5326 9.09508 13.9402 8.80692 14.1932 8.64528C14.4462 8.48012 14.8643 8.22359 15.1243 8.07249C15.3843 7.9249 15.8832 7.66486 16.2311 7.49267C16.5789 7.32399 17.0989 7.08855 17.3906 6.97259C17.6787 6.85662 18.1249 6.69146 18.3744 6.60361C18.6238 6.51927 19.0384 6.38925 19.2879 6.31546C19.5373 6.24518 19.973 6.13273 20.2541 6.06947C20.5352 6.00271 21.0482 5.90431 21.396 5.84457C21.7439 5.78835 22.2885 5.71455 22.6082 5.68644Z" fill="white"/>
<path d="M24.7653 15.1735C24.5828 10.3308 31.4001 11.0457 34.2531 12.8678C35.5266 13.7964 33.0094 13.7807 32.6354 14.3787C31.8201 15.1415 31.3785 16.2102 30.5072 16.9291C28.3331 19.0104 27.5819 17.9026 25.4378 17.6045C24.4279 19.2724 28.6404 19.2389 29.8722 20.2295C30.1298 20.4367 30.3955 20.6332 30.6643 20.825C39.125 26.8658 33.4366 40.0339 23.1378 38.601C11.7625 37.2189 11.0014 21.5342 22.2399 19.0671C22.675 18.8703 23.5653 18.8089 23.7293 18.3908C23.6314 17.5446 23.4762 16.5023 22.9253 15.8445C21.8472 16.1585 20.6576 16.4634 19.5074 16.0356C17.3605 15.1077 16.9915 12.2291 14.7504 11.4356C13.8741 10.7025 15.7847 10.4013 16.3828 10.1525C16.4804 10.1121 16.5784 10.0719 16.6782 10.0368C18.6812 9.33452 21.0882 9.44139 22.8621 10.6564C24.4366 11.581 24.333 13.6579 23.6345 15.07C24.1584 16.339 24.9649 17.2494 24.7653 15.1735ZM15.4179 29.2254C15.3309 30.6495 15.7581 31.9833 16.4801 33.1905C16.5396 33.289 16.6218 33.3717 16.7199 33.4316C16.818 33.4916 16.929 33.5271 17.0436 33.5351C17.1583 33.543 17.2731 33.5233 17.3786 33.4775C17.484 33.4317 17.5769 33.3612 17.6494 33.272C18.3889 32.3631 19.4877 30.7895 21.7686 32.4618C23.3619 34.0464 22.3836 35.4495 24.3731 36.0578C24.9748 36.2465 25.5553 36.4974 26.1051 36.8065C29.2072 38.5199 35.2718 30.6952 31.9262 31.7877C31.0293 32.1914 31.4011 33.6014 30.5933 34.1696C29.1133 35.583 27.182 34.6118 26.613 32.9382C26.5113 32.6429 26.3506 32.3714 26.1408 32.1403C25.931 31.9091 25.6763 31.7232 25.3924 31.5937C24.1484 31.0227 22.684 30.614 23.2765 28.7192C23.7484 27.2086 25.1405 27.2462 26.3664 27.1394C27.3901 27.0494 28.2057 26.2305 28.2727 25.2051C28.4955 21.7918 31.1701 22.4537 29.7204 21.4809C29.5683 21.3796 29.4104 21.2872 29.2475 21.2042C26.9679 20.0359 23.6495 19.2646 21.3702 20.5339C21.2126 20.6219 21.0951 20.7675 21.0422 20.9402C20.9893 21.113 21.0051 21.2995 21.0864 21.4609C21.7092 22.6919 24.047 21.7267 25.0106 22.7458C26.9156 24.2382 25.1925 26.5496 23.1328 26.344C20.1127 25.7698 21.2663 29.3169 18.8721 29.8791C15.877 30.8234 15.4627 25.1844 15.4389 28.5509C15.4389 28.776 15.4317 29.001 15.4179 29.2254ZM26.2065 28.2755C25.0372 28.0899 23.6135 29.2445 24.8357 30.2458C25.5555 30.5777 26.4205 30.6015 27.0305 31.1594C27.6132 31.7376 27.7384 32.5364 28.006 33.2538C29.5837 35.0433 30.0997 32.3086 30.7808 31.2991C31.2652 30.7162 32.0595 30.5078 32.7837 30.4558C34.7316 29.8371 33.3561 26.7069 32.9058 25.3273C32.6169 23.7174 30.1886 22.1165 29.692 24.1317C29.6487 24.3142 29.6312 24.5019 29.64 24.6892C29.7148 26.6292 28.6466 28.4055 26.5632 28.3162C26.4436 28.3096 26.3245 28.296 26.2065 28.2755ZM23.2129 25.0904C24.0633 25.196 24.8172 24.6811 24.5809 23.9985C24.4733 23.6873 24.1953 23.4692 23.8717 23.4105C23.5801 23.3579 23.279 23.3435 22.977 23.3341C22.3992 23.3151 21.8328 23.1685 21.3182 22.9048C20.8036 22.641 20.3536 22.2667 20.0004 21.8085C19.3679 20.9936 19.346 21.3471 17.8963 22.5941C17.5286 23.0385 16.9652 23.5547 16.5581 24.1179C16.3334 24.4325 16.2032 24.8048 16.1827 25.191C16.1623 25.5772 16.2524 25.9613 16.4426 26.2979C17.071 27.428 17.1436 29.2232 18.8781 28.6754C20.5402 26.527 19.5322 25.3132 23.2129 25.0904ZM29.3502 12.4977C26.4931 12.0479 24.1155 16.3334 27.0001 15.1556C27.6001 15.6821 25.4153 16.151 27.0984 16.868C28.8056 17.5544 30.2403 15.8576 31.0296 14.5445C32.9878 12.7177 30.9504 12.6346 29.3502 12.4977ZM19.0223 10.7404C17.8544 10.6953 16.4441 10.9673 17.6243 12.3074C18.4036 13.6431 19.596 15.7326 21.4359 15.1951C22.6919 14.782 21.9242 14.2862 21.6237 13.5573C22.1905 13.3909 23.0361 14.9481 23.0997 12.8753C22.674 11.0526 20.5994 10.7962 19.0227 10.7404H19.0223ZM23.996 37.5637C26.5601 37.4499 22.577 36.8886 22.1808 35.9196C22.1633 35.8763 22.1451 35.8337 22.1238 35.7923C21.4096 34.404 21.4751 32.3108 19.1945 33.1134C16.1859 35.8365 21.8597 37.4903 23.996 37.5637Z" fill="#015404"/>
</svg>
