<svg width="49" height="49" viewBox="0 0 49 49" fill="none" xmlns="http://www.w3.org/2000/svg">
<circle cx="24.5" cy="24.5" r="24.5" fill="#2B2B2B"/>
<path d="M21.9979 5.08488C22.3176 5.05325 22.6549 5.02514 22.7533 5.01811C22.8482 5.01108 23.319 5.00406 23.7968 5.00054C24.2782 4.99703 24.9001 5.01108 25.1847 5.02865C25.4728 5.04974 25.9647 5.09894 26.2844 5.13759C26.6042 5.17624 27.1101 5.25355 27.4088 5.30978C27.7074 5.366 28.2134 5.47845 28.5331 5.55576C28.8529 5.63659 29.4607 5.8158 29.8859 5.95988C30.311 6.10044 30.9364 6.33237 31.2737 6.47996C31.611 6.62404 32.0959 6.84542 32.3454 6.97193C32.5948 7.09492 33.0165 7.31982 33.2765 7.47092C33.5365 7.61851 34.0178 7.92072 34.3481 8.13859C34.6784 8.35647 35.1352 8.67976 35.3671 8.85546C35.5989 9.03468 35.9854 9.34743 36.2279 9.55476C36.4703 9.75857 36.9446 10.2049 37.282 10.5457C37.6193 10.8831 38.0514 11.3434 38.2376 11.5648C38.4274 11.7862 38.7155 12.1411 38.8806 12.3555C39.0458 12.5698 39.3374 12.9704 39.5271 13.2515C39.7169 13.5327 39.9909 13.9579 40.135 14.2003C40.2826 14.4428 40.518 14.868 40.6655 15.1491C40.8131 15.4303 41.0134 15.8414 41.1153 16.0628C41.2136 16.2842 41.3718 16.6567 41.4631 16.8886C41.558 17.1205 41.6985 17.5 41.7793 17.732C41.8601 17.9639 42.0007 18.4207 42.0956 18.751C42.1869 19.0814 42.3204 19.6155 42.3872 19.9458C42.4575 20.2761 42.5523 20.8208 42.6015 21.1582C42.6507 21.4955 42.7104 21.9805 42.735 22.23C42.7631 22.5041 42.7807 23.1752 42.7807 23.8991C42.7807 24.6371 42.7596 25.2907 42.735 25.5683C42.7069 25.8178 42.6577 26.2536 42.6191 26.5347C42.5804 26.8158 42.4996 27.2797 42.4434 27.5713C42.3872 27.8595 42.2748 28.3514 42.1939 28.6607C42.1166 28.9699 41.9691 29.4759 41.8672 29.7852C41.7653 30.0944 41.5931 30.5688 41.4877 30.8394C41.3788 31.11 41.182 31.5668 41.0485 31.8585C40.915 32.1466 40.6972 32.5824 40.5672 32.8248C40.4371 33.0673 40.2334 33.4222 40.1174 33.6155C40.0015 33.8088 39.7485 34.2023 39.5517 34.494C39.355 34.7822 39.0563 35.2039 38.8841 35.4252C38.712 35.6466 38.3958 36.0367 38.1779 36.2862C37.9601 36.5357 37.4822 37.0347 37.1203 37.3931C36.7549 37.7515 36.2981 38.1767 36.1049 38.3384C35.9117 38.5 35.5146 38.8093 35.2265 39.0271C34.9349 39.245 34.4922 39.5578 34.2427 39.7194C33.9932 39.8846 33.5716 40.1411 33.3116 40.2957C33.0516 40.4468 32.521 40.7209 32.1346 40.9107C31.7481 41.0969 31.2035 41.3429 30.9224 41.4518C30.6413 41.5643 30.1353 41.747 29.798 41.8595C29.4607 41.9719 28.8599 42.1406 28.4629 42.239C28.0658 42.3374 27.465 42.4639 27.1277 42.5201C26.7904 42.5799 26.2915 42.6501 26.0209 42.6782C25.7504 42.7099 25.2198 42.752 24.8439 42.7731C24.4398 42.7977 23.853 42.8012 23.4209 42.7907C23.0168 42.7766 22.4441 42.745 22.156 42.7169C21.8644 42.6888 21.4462 42.6396 21.2249 42.6115C21.0035 42.5799 20.5749 42.5061 20.2762 42.4498C19.9776 42.3901 19.4786 42.2812 19.1694 42.2003C18.8602 42.123 18.3297 41.9684 17.9924 41.856C17.6551 41.7435 17.1316 41.5538 16.8329 41.4343C16.5342 41.3148 15.9405 41.0442 15.5153 40.8369C15.0902 40.626 14.528 40.3238 14.268 40.1692C14.008 40.0111 13.6215 39.7686 13.4072 39.628C13.1928 39.484 12.8134 39.2134 12.5639 39.0271C12.3109 38.8374 11.9244 38.5317 11.7031 38.3454C11.4817 38.1627 10.9722 37.6848 10.5752 37.2877C10.1782 36.8906 9.7179 36.4092 9.55276 36.2159C9.38762 36.0226 9.08897 35.6501 8.88869 35.3901C8.68842 35.1301 8.35463 34.6627 8.14733 34.3535C7.94354 34.0442 7.65191 33.5768 7.50434 33.3168C7.35326 33.0568 7.12488 32.628 6.99487 32.368C6.86487 32.108 6.65757 31.6652 6.53811 31.3841C6.41513 31.1029 6.23243 30.6461 6.13053 30.365C6.02864 30.0839 5.8881 29.6657 5.81782 29.4338C5.74755 29.2018 5.62106 28.7274 5.53322 28.3796C5.4489 28.0317 5.33295 27.4694 5.27673 27.1321C5.217 26.7947 5.14673 26.3027 5.11862 26.0427C5.087 25.7827 5.04484 25.2591 5.02375 24.8831C4.99916 24.4895 4.99213 23.878 5.00619 23.4423C5.01673 23.0276 5.05186 22.4267 5.07997 22.107C5.11159 21.7872 5.16781 21.3128 5.20646 21.0527C5.24511 20.7927 5.32592 20.3499 5.38214 20.0688C5.44187 19.7877 5.54376 19.3449 5.61052 19.0849C5.67728 18.8248 5.82134 18.3434 5.93026 18.0131C6.03567 17.6828 6.21486 17.1873 6.32729 16.9062C6.43973 16.625 6.62946 16.1823 6.74892 15.9222C6.8719 15.6622 7.0792 15.2405 7.21272 14.991C7.34975 14.7415 7.53948 14.4006 7.63786 14.2355C7.73624 14.0703 7.95057 13.733 8.11571 13.48C8.28084 13.2269 8.57599 12.8088 8.77275 12.5487C8.96951 12.2887 9.23654 11.9478 9.36654 11.7932C9.49654 11.6386 9.79169 11.3012 10.0271 11.0412C10.2625 10.7847 10.6701 10.3735 10.9301 10.1311C11.1901 9.88859 11.5871 9.53719 11.8085 9.35446C12.0298 9.16821 12.4198 8.866 12.6693 8.67976C12.9223 8.49351 13.3299 8.20536 13.5828 8.04371C13.8358 7.87855 14.2539 7.62203 14.5139 7.47092C14.7739 7.32333 15.2729 7.06329 15.6207 6.8911C15.9686 6.72243 16.4886 6.48699 16.7802 6.37102C17.0683 6.25506 17.5145 6.0899 17.764 6.00205C18.0135 5.91771 18.4281 5.78769 18.6775 5.7139C18.927 5.64361 19.3627 5.53116 19.6438 5.46791C19.9249 5.40114 20.4378 5.30275 20.7857 5.24301C21.1335 5.18679 21.6781 5.11299 21.9979 5.08488Z" fill="#111111"/>
<path d="M12.5914 26.5758C12.549 26.5758 12.5066 26.578 12.4642 26.578C11.5119 23.7231 11.5771 20.8933 12.7468 18.1048C13.9112 15.3293 15.7952 13.1942 18.5305 11.7983C18.3826 11.7516 18.3119 11.807 18.2413 11.8374C17.3846 12.2027 16.5443 12.6071 15.7984 13.1703C11.4358 16.4632 9.69851 20.8933 10.4106 26.2334C10.8617 29.6198 12.5044 32.4605 15.1527 34.663C17.564 36.6688 20.3634 37.6788 23.4922 37.7907C25.1794 37.8505 26.8221 37.582 28.443 37.1395C28.4984 37.1243 28.5572 37.1134 28.5898 37.045C28.5463 37.045 28.5104 37.0417 28.4756 37.045C26.3253 37.2656 24.214 37.0558 22.2278 36.2002C18.6098 34.6413 16.1648 32.0648 15.5745 28.0315C15.4006 26.8389 15.5451 25.6496 16.0224 24.5233C16.1018 24.3363 16.1779 24.1428 16.4008 23.9656C16.4008 24.1471 16.4008 24.2776 16.4008 24.408C16.4095 26.8204 17.177 28.9838 18.5718 30.9309C19.972 32.8856 21.8452 34.2543 24.0129 35.2436C25.599 35.9676 27.2765 36.3405 29.0083 36.4807C29.4703 36.5177 29.9183 36.5731 30.3781 36.3329C33.8222 34.538 36.2291 31.8539 37.4847 28.1608C37.9674 26.741 38.2349 25.2799 38.3381 23.7895C38.3838 23.1372 38.3968 22.4795 38.2794 21.8185C38.1849 21.8696 38.1925 21.9468 38.1751 22.0153C37.5967 24.2961 36.44 26.2377 34.581 27.676C31.8055 29.822 28.643 30.6667 25.1555 30.1307C22.8921 29.7829 20.9635 28.7925 19.4328 27.0509C17.1857 24.4928 16.7845 21.0009 18.4348 18.0254C19.4698 16.1588 21.0374 14.8858 22.9627 14.0193C23.0117 13.9976 23.0638 13.9791 23.1117 13.9552C23.1595 13.9313 23.2041 13.9008 23.2497 13.8736C20.7015 14.6357 18.7131 16.2023 16.9954 18.2429C17.0204 18.1548 17.0269 18.12 17.0389 18.0885C17.3161 17.3406 17.7695 16.7056 18.2782 16.0979C20.1003 13.9204 22.455 12.7441 25.2479 12.4528C27.0047 12.269 28.7224 12.5582 30.3944 13.1159C30.7314 13.2279 31.0652 13.3529 31.4468 13.4888C31.3989 13.4312 31.3902 13.4138 31.3772 13.4051C31.3152 13.3681 31.2522 13.3333 31.188 13.2996C29.6117 12.4788 27.9288 12.0559 26.16 11.9266C24.4086 11.7994 22.6953 11.9548 21.0276 12.5202C18.3978 13.4116 16.3486 15.0597 14.7831 17.3297C13.3643 19.3865 12.6436 21.6717 12.5936 24.1678C12.5773 24.9723 12.5914 25.7768 12.5914 26.5812V26.5758ZM26.1948 14.2889C25.6349 14.3476 25.1109 14.5314 24.5956 14.7423C24.0847 14.951 23.5998 15.213 23.1367 15.5109C22.6638 15.8153 22.2365 16.1773 21.8332 16.5687C21.4396 16.9503 21.0776 17.3601 20.7037 17.7515C22.1506 15.0641 24.575 13.8334 27.4428 13.2572C27.1373 13.2398 26.8373 13.2942 26.5372 13.3409C24.1847 13.7073 22.1811 14.7281 20.6232 16.5502C19.0186 18.4288 18.3641 20.5737 18.9023 23.0252C19.099 23.9243 19.485 24.7418 20.0264 25.4897C19.7089 24.8505 19.5491 24.1721 19.5263 23.4644C19.5035 22.7458 19.6067 22.0424 19.8318 21.3586C20.0959 20.5585 20.5145 19.7507 20.795 19.5246C20.4917 20.2552 20.259 20.9944 20.1786 21.7717C20.0111 23.4046 20.4199 24.8114 21.831 25.7855C22.7562 26.4236 23.8042 26.6552 24.9207 26.5845C26.1948 26.503 27.4026 26.1453 28.5843 25.6843C28.6419 25.6615 28.7278 25.6648 28.7365 25.555C28.4071 25.5398 28.0821 25.5311 27.7592 25.5071C26.3426 25.405 24.987 25.1092 23.8216 24.233C22.2061 23.0198 21.2309 21.4945 21.519 19.3822C21.7419 17.7504 22.4692 16.4056 23.8292 15.4304C24.5521 14.9119 25.3447 14.5422 26.1959 14.2868L26.1948 14.2889Z" fill="#F2F2F2"/>
</svg>
