<svg width="49" height="49" viewBox="0 0 49 49" fill="none" xmlns="http://www.w3.org/2000/svg">
<circle cx="24.5" cy="24.5" r="24.5" fill="#2B2B2B"/>
<path d="M22.6082 5.68693C22.928 5.6553 23.2653 5.62719 23.3636 5.62016C23.4585 5.61314 23.9293 5.60611 24.4072 5.60259C24.8885 5.59908 25.5104 5.61314 25.795 5.63071C26.0832 5.65179 26.5751 5.70099 26.8948 5.73964C27.2145 5.7783 27.7205 5.8556 28.0191 5.91183C28.3178 5.96805 28.8237 6.0805 29.1435 6.15781C29.4632 6.23864 30.0711 6.41785 30.4962 6.56193C30.9214 6.70249 31.5468 6.93442 31.8841 7.08201C32.2214 7.22609 32.7063 7.44747 32.9557 7.57398C33.2052 7.69697 33.6268 7.92187 33.8868 8.07297C34.1468 8.22056 34.6282 8.52277 34.9585 8.74064C35.2887 8.95852 35.7455 9.28181 35.9774 9.45751C36.2093 9.63673 36.5958 9.94948 36.8382 10.1568C37.0807 10.3606 37.555 10.8069 37.8923 11.1478C38.2296 11.4851 38.6618 11.9455 38.848 12.1668C39.0377 12.3882 39.3258 12.7432 39.491 12.9575C39.6561 13.1719 39.9477 13.5725 40.1375 13.8536C40.3272 14.1347 40.6013 14.5599 40.7453 14.8024C40.8929 15.0449 41.1283 15.4701 41.2759 15.7512C41.4235 16.0323 41.6237 16.4435 41.7256 16.6648C41.824 16.8862 41.9821 17.2587 42.0735 17.4906C42.1683 17.7226 42.3089 18.1021 42.3897 18.334C42.4705 18.5659 42.611 19.0228 42.7059 19.3531C42.7973 19.6834 42.9308 20.2176 42.9975 20.5479C43.0678 20.8782 43.1627 21.4229 43.2119 21.7602C43.2611 22.0976 43.3208 22.5825 43.3454 22.832C43.3735 23.1061 43.3911 23.7773 43.3911 24.5012C43.3911 25.2391 43.37 25.8928 43.3454 26.1704C43.3173 26.4199 43.2681 26.8556 43.2294 27.1367C43.1908 27.4179 43.11 27.8817 43.0538 28.1734C42.9975 28.4615 42.8851 28.9535 42.8043 29.2627C42.727 29.572 42.5794 30.078 42.4775 30.3872C42.3756 30.6965 42.2035 31.1709 42.0981 31.4414C41.9891 31.712 41.7924 32.1689 41.6589 32.4605C41.5253 32.7487 41.3075 33.1844 41.1775 33.4269C41.0475 33.6694 40.8437 34.0243 40.7278 34.2176C40.6118 34.4108 40.3588 34.8044 40.1621 35.0961C39.9653 35.3842 39.6667 35.8059 39.4945 36.0273C39.3223 36.2487 39.0061 36.6387 38.7883 36.8882C38.5704 37.1377 38.0926 37.6367 37.7307 37.9952C37.3653 38.3536 36.9085 38.7788 36.7153 38.9404C36.522 39.1021 36.125 39.4113 35.8369 39.6292C35.5452 39.8471 35.1025 40.1598 34.8531 40.3215C34.6036 40.4866 34.182 40.7432 33.922 40.8978C33.662 41.0489 33.1314 41.323 32.7449 41.5127C32.3584 41.699 31.8138 41.945 31.5327 42.0539C31.2516 42.1663 30.7457 42.3491 30.4084 42.4615C30.0711 42.574 29.4702 42.7426 29.0732 42.841C28.6762 42.9394 28.0754 43.0659 27.7381 43.1222C27.4007 43.1819 26.9018 43.2522 26.6313 43.2803C26.3607 43.3119 25.8302 43.3541 25.4542 43.3752C25.0502 43.3998 24.4634 43.4033 24.0312 43.3927C23.6272 43.3787 23.0544 43.3471 22.7663 43.319C22.4747 43.2908 22.0566 43.2416 21.8352 43.2135C21.6139 43.1819 21.1852 43.1081 20.8866 43.0519C20.5879 42.9921 20.089 42.8832 19.7798 42.8024C19.4706 42.7251 18.94 42.5705 18.6027 42.458C18.2654 42.3456 17.7419 42.1558 17.4433 42.0363C17.1446 41.9168 16.5508 41.6463 16.1257 41.4389C15.7005 41.2281 15.1383 40.9259 14.8783 40.7713C14.6183 40.6131 14.2318 40.3707 14.0175 40.2301C13.8032 40.086 13.4237 39.8154 13.1743 39.6292C12.9213 39.4394 12.5348 39.1337 12.3134 38.9475C12.0921 38.7647 11.5826 38.2868 11.1856 37.8897C10.7885 37.4927 10.3283 37.0112 10.1631 36.818C9.99797 36.6247 9.69932 36.2522 9.49905 35.9921C9.29877 35.7321 8.96498 35.2647 8.75768 34.9555C8.55389 34.6463 8.26227 34.1789 8.11469 33.9189C7.96361 33.6588 7.73523 33.2301 7.60523 32.9701C7.47522 32.71 7.26792 32.2673 7.14846 31.9861C7.02548 31.705 6.84278 31.2482 6.74088 30.967C6.63899 30.6859 6.49845 30.2678 6.42818 30.0358C6.3579 29.8039 6.23141 29.3295 6.14358 28.9816C6.05925 28.6337 5.9433 28.0715 5.88708 27.7341C5.82735 27.3968 5.75708 26.9048 5.72897 26.6448C5.69735 26.3847 5.65519 25.8611 5.63411 25.4851C5.60951 25.0915 5.60248 24.4801 5.61654 24.0444C5.62708 23.6297 5.66221 23.0288 5.69032 22.709C5.72195 22.3892 5.77816 21.9148 5.81681 21.6548C5.85546 21.3948 5.93627 20.952 5.99249 20.6709C6.05222 20.3897 6.15412 19.947 6.22087 19.6869C6.28763 19.4269 6.43169 18.9455 6.54061 18.6151C6.64602 18.2848 6.82521 17.7893 6.93764 17.5082C7.05008 17.2271 7.23981 16.7843 7.35927 16.5243C7.48225 16.2642 7.68955 15.8426 7.82307 15.5931C7.9601 15.3436 8.14983 15.0027 8.24821 14.8375C8.34659 14.6724 8.56092 14.335 8.72606 14.082C8.8912 13.829 9.18634 13.4108 9.3831 13.1508C9.57986 12.8907 9.84689 12.5499 9.97689 12.3953C10.1069 12.2406 10.402 11.9033 10.6374 11.6433C10.8729 11.3867 11.2804 10.9756 11.5404 10.7331C11.8004 10.4906 12.1975 10.1392 12.4188 9.95651C12.6402 9.77026 13.0302 9.46805 13.2797 9.28181C13.5326 9.09556 13.9402 8.80741 14.1932 8.64577C14.4462 8.4806 14.8643 8.22408 15.1243 8.07297C15.3843 7.92538 15.8832 7.66534 16.2311 7.49315C16.5789 7.32448 17.0989 7.08904 17.3906 6.97307C17.6787 6.85711 18.1249 6.69195 18.3744 6.6041C18.6238 6.51976 19.0384 6.38974 19.2879 6.31595C19.5373 6.24567 19.973 6.13322 20.2541 6.06996C20.5352 6.0032 21.0482 5.9048 21.396 5.84506C21.7439 5.78884 22.2885 5.71504 22.6082 5.68693Z" fill="black"/>
<path d="M19.1838 16.3779C19.4745 16.2082 19.9833 15.9657 20.3144 15.8364L20.9201 15.6101L33.4785 15.6021L33.4866 20.2491L33.1716 20.734C33.0021 21.0007 32.7355 21.3401 32.5821 21.4856C32.4287 21.6311 32.0733 21.9059 31.7826 22.0998C31.4918 22.2938 31.1203 22.5201 30.668 22.7545L29.8362 22.0271C29.3759 21.6311 28.8025 21.1138 28.1079 20.4835L28.8913 19.8612C29.3274 19.5217 29.6828 19.2065 29.6828 19.158C29.6828 19.1015 28.2856 19.0772 25.6689 19.0772C22.8423 19.0772 21.5662 19.1015 21.3643 19.1661C21.2109 19.2227 21.0009 19.3358 20.8959 19.4328C20.7909 19.5217 20.6779 19.7399 20.6375 19.9097C20.5809 20.1036 20.589 20.3218 20.6375 20.532C20.694 20.7502 20.8555 20.9926 21.1382 21.2836C21.3724 21.5179 21.7116 21.8331 21.8893 21.9867C22.0669 22.1402 22.5192 22.5443 22.8907 22.8757C23.2622 23.207 23.7145 23.6273 23.9002 23.8051C24.086 23.9829 24.5383 24.4031 24.9178 24.7345C25.2974 25.0658 25.7739 25.5023 26.3715 26.068L24.9178 27.1025L24.8802 27.129C23.472 28.1209 23.4626 28.1276 23.2864 27.9834C23.1815 27.9026 22.6969 27.4742 22.2123 27.0378C21.7277 26.6014 21.2674 26.1892 21.1947 26.1165C21.122 26.0437 20.7667 25.7124 20.3952 25.381C20.0237 25.0497 19.6845 24.7426 19.636 24.6941C19.5876 24.6456 19.1272 24.2253 18.6184 23.7566C18.0127 23.199 17.6331 22.7787 17.5201 22.5443C17.4232 22.3504 17.2616 21.9544 17.1728 21.6634C17.0759 21.3725 16.9628 20.8876 16.9224 20.5724C16.874 20.2006 16.8821 19.8127 16.9386 19.4409C16.9871 19.1257 17.1324 18.6408 17.2697 18.3499C17.4393 17.9862 17.6897 17.6548 18.0854 17.2588C18.4004 16.9436 18.893 16.5476 19.1838 16.3779Z" fill="#8418EE"/>
<path d="M25.1588 22.4715C25.3849 22.318 25.8049 22.019 26.1037 21.8088V21.8007C26.3944 21.5906 26.6609 21.4209 26.6852 21.4209C26.7094 21.4209 27.4766 22.0998 28.3892 22.9241C29.3019 23.7565 30.586 24.9284 31.2482 25.5345C32.3627 26.5448 32.4758 26.6822 32.7261 27.2156C32.8715 27.5388 33.0492 28.0561 33.1138 28.3713C33.1784 28.6864 33.2349 29.2037 33.2349 29.5189C33.2349 29.8421 33.1865 30.2866 33.1219 30.5129C33.0653 30.7311 32.9119 31.1191 32.7907 31.3615C32.6615 31.6201 32.3223 32.0485 31.9912 32.3717C31.5874 32.7678 31.1997 33.0506 30.6909 33.3173C30.2871 33.5274 29.8026 33.7537 29.6007 33.8265C29.2776 33.9396 28.4862 33.9558 16.6384 33.9719L16.6142 32.0808C16.5981 30.8362 16.6223 30.0361 16.6869 29.7452C16.7354 29.5027 16.8807 29.0986 17.0019 28.8562C17.1311 28.5975 17.4218 28.2258 17.7045 27.9672C17.9629 27.7247 18.4314 27.3691 18.7382 27.1751C19.0532 26.9812 19.3682 26.8357 19.4409 26.8519C19.5136 26.868 19.9658 27.2236 20.4504 27.6439C20.9269 28.0641 21.4841 28.5571 22.0495 29.0744L21.2257 29.7128C20.7734 30.0604 20.4181 30.3755 20.4423 30.4079C20.4585 30.4483 22.2433 30.4725 24.4077 30.4725C26.6125 30.4725 28.4942 30.4321 28.6719 30.3917C28.8496 30.3513 29.0999 30.2058 29.2372 30.0684C29.4472 29.8502 29.4795 29.7694 29.4795 29.3572C29.4795 29.0663 29.4311 28.8158 29.3503 28.6945C29.2776 28.5814 28.3246 27.6762 27.2263 26.6741C26.1198 25.6719 24.9003 24.5728 24.5046 24.2253C24.1089 23.8858 23.7858 23.5707 23.7858 23.5222C23.7858 23.4737 24.0039 23.2878 24.2704 23.0938C24.5288 22.908 24.9327 22.6251 25.1588 22.4715Z" fill="#05D2D7"/>
</svg>
