<?xml version="1.0" encoding="UTF-8" standalone="no"?>
<!-- Created with Inkscape (http://www.inkscape.org/) -->

<svg
   width="94.631165mm"
   height="16.933334mm"
   viewBox="0 0 94.631166 16.933334"
   version="1.1"
   id="svg427"
   inkscape:version="1.2.1 (9c6d41e410, 2022-07-14)"
   sodipodi:docname="tarmiiz - base.svg"
   xmlns:inkscape="http://www.inkscape.org/namespaces/inkscape"
   xmlns:sodipodi="http://sodipodi.sourceforge.net/DTD/sodipodi-0.dtd"
   xmlns="http://www.w3.org/2000/svg"
   xmlns:svg="http://www.w3.org/2000/svg">
  <sodipodi:namedview
     id="namedview429"
     pagecolor="#ffffff"
     bordercolor="#000000"
     borderopacity="0.25"
     inkscape:showpageshadow="2"
     inkscape:pageopacity="0.0"
     inkscape:pagecheckerboard="0"
     inkscape:deskcolor="#d1d1d1"
     inkscape:document-units="mm"
     showgrid="false"
     inkscape:zoom="0.7162458"
     inkscape:cx="-1745.909"
     inkscape:cy="136.12645"
     inkscape:window-width="2400"
     inkscape:window-height="1261"
     inkscape:window-x="2391"
     inkscape:window-y="-9"
     inkscape:window-maximized="1"
     inkscape:current-layer="layer1"
     showguides="true" />
  <defs
     id="defs424" />
  <g
     inkscape:label="Layer 1"
     inkscape:groupmode="layer"
     id="layer1"
     transform="translate(411.44716,43.308882)">
    <rect
       style="fill:#ffffff;stroke-width:0.0154388;stroke-linecap:square;stroke-miterlimit:0"
       id="rect600-6-4-9"
       width="123.38318"
       height="46.729485"
       x="-424.47363"
       y="-55.067028"
       ry="0.058864716" />
    <g
       id="g1668"
       inkscape:export-filename="tarmiiz_logo_358x64_black.png"
       inkscape:export-xdpi="96"
       inkscape:export-ydpi="96">
      <rect
         x="-411.44717"
         width="16.933332"
         height="16.933332"
         rx="2.1166666"
         fill="#332eae"
         id="rect157-4-89-4"
         y="-43.30888"
         style="stroke-width:0.264583" />
      <rect
         width="2.6458333"
         height="2.6458333"
         transform="matrix(4.4107699e-8,-1,-1,-4.33115e-8,0,0)"
         fill="#08d0dd"
         id="rect159-5-6-9"
         x="37.884911"
         y="403.11279"
         style="stroke-width:0.264583" />
      <rect
         width="2.6458333"
         height="2.6458333"
         transform="matrix(4.4107699e-8,-1,-1,-4.33115e-8,0,0)"
         fill="#08d0dd"
         id="rect161-3-9-0"
         x="34.97448"
         y="400.20236"
         style="stroke-width:0.264583" />
      <rect
         width="2.6458333"
         height="2.6458333"
         transform="matrix(4.4107699e-8,-1,-1,-4.33115e-8,0,0)"
         fill="#08d0dd"
         id="rect163-1-4-6"
         x="34.97448"
         y="403.11279"
         style="stroke-width:0.264583" />
      <rect
         width="2.6458333"
         height="2.6458333"
         transform="scale(-1,1)"
         fill="#d622ff"
         id="rect165-8-9-1"
         x="403.11279"
         y="-34.709927"
         style="stroke-width:0.264583" />
      <rect
         width="2.6458333"
         height="2.6458333"
         transform="scale(-1,1)"
         fill="#d622ff"
         id="rect167-9-5-7"
         x="403.11279"
         y="-31.799496"
         style="stroke-width:0.264583" />
      <rect
         width="2.6458333"
         height="2.6458333"
         transform="scale(-1,1)"
         fill="#d622ff"
         id="rect169-5-9-7"
         x="400.20236"
         y="-31.799496"
         style="stroke-width:0.264583" />
    </g>
    <g
       id="g1644">
      <path
         d="m -327.11571,-26.375549 v -1.87198 l 6.46906,-8.0821 v -0.1058 h -6.2566 v -2.44174 h 9.87478 v 2.01036 l -6.15844,7.94372 v 0.10581 h 6.3709 v 2.44173 z"
         fill="#ffffff"
         id="path171-3-6-0"
         style="fill:#000000;stroke-width:0.264583" />
      <path
         d="m -332.20656,-26.375549 v -12.50162 h 2.87496 v 12.50162 z"
         fill="#ffffff"
         id="path173-8-1-3"
         style="fill:#000000;stroke-width:0.264583" />
      <path
         d="m -330.92227,-43.308879 h -1.38007 v 1.37518 h 1.38007 z"
         fill="#d622ff"
         id="path175-0-8-1"
         style="stroke-width:0.264583" />
      <path
         d="m -330.92227,-41.819099 h -1.38007 v 1.37518 h 1.38007 z"
         fill="#d622ff"
         id="path177-5-4-4"
         style="stroke-width:0.264583" />
      <path
         d="m -329.42711,-41.819099 h -1.38007 v 1.37518 h 1.38007 z"
         fill="#d622ff"
         id="path179-1-3-0"
         style="stroke-width:0.264583" />
      <path
         d="m -337.29767,-26.375549 v -12.50162 h 2.87522 v 12.50162 z"
         fill="#ffffff"
         id="path181-9-5-4"
         style="fill:#000000;stroke-width:0.264583" />
      <path
         d="m -335.90782,-41.933699 v -1.37518 h -1.38006 v 1.37518 z"
         fill="#08d0dd"
         id="path183-6-7-3"
         style="stroke-width:0.264583" />
      <path
         d="m -334.41266,-40.443919 v -1.37518 h -1.38006 v 1.37518 z"
         fill="#08d0dd"
         id="path185-3-1-4"
         style="stroke-width:0.264583" />
      <path
         d="m -335.90782,-40.443919 v -1.37518 h -1.38006 v 1.37518 z"
         fill="#08d0dd"
         id="path187-3-4-3"
         style="stroke-width:0.264583" />
      <path
         d="m -357.15624,-26.489769 v -12.50159 h 2.82628 v 2.12429 h 0.14684 c 0.26141,-0.71623 0.69427,-1.27511 1.29884,-1.67664 0.60431,-0.40696 1.32583,-0.61045 2.16456,-0.61045 0.84931,0 1.56527,0.20619 2.14815,0.61857 0.58791,0.40696 1.00171,0.96314 1.24143,1.66852 h 0.1307 c 0.27755,-0.69453 0.74586,-1.24799 1.40494,-1.66037 0.66437,-0.4178 1.45097,-0.62672 2.36035,-0.62672 1.15437,0 2.09655,0.36357 2.82627,1.09064 0.72946,0.7271 1.09432,1.7879 1.09432,3.18238 v 8.39137 h -2.96492 v -7.93557 c 0,-0.77594 -0.2069,-1.34295 -0.62071,-1.70109 -0.41381,-0.36353 -0.92022,-0.5453 -1.51924,-0.5453 -0.71332,0 -1.27132,0.22246 -1.67428,0.66741 -0.39767,0.4395 -0.59637,1.01195 -0.59637,1.71733 v 7.79722 h -2.89957 v -8.05768 c 0,-0.64568 -0.19606,-1.16117 -0.58817,-1.54641 -0.38656,-0.38526 -0.89297,-0.57787 -1.51924,-0.57787 -0.42465,0 -0.81121,0.10853 -1.15993,0.32557 -0.34846,0.21161 -0.62601,0.51276 -0.83291,0.90342 -0.2069,0.38526 -0.31036,0.8356 -0.31036,1.35109 v 7.60188 z"
         fill="#ffffff"
         id="path189-8-9-9"
         style="fill:#000000;stroke-width:0.264583" />
      <path
         d="m -366.52699,-26.473469 v -12.50162 h 2.86703 v 2.0836 h 0.13044 c 0.22886,-0.72166 0.62097,-1.27784 1.17633,-1.66849 0.56092,-0.39611 1.20068,-0.59418 1.91929,-0.59418 0.16351,0 0.34581,0.008 0.54743,0.0244 0.2069,0.0109 0.37835,0.0299 0.51461,0.057 v 2.71029 c -0.12541,-0.0434 -0.32411,-0.0814 -0.59637,-0.11393 -0.2667,-0.038 -0.52546,-0.057 -0.77602,-0.057 -0.53896,0 -1.02368,0.11665 -1.45389,0.34996 -0.42466,0.22789 -0.75962,0.54531 -1.00462,0.95226 -0.24501,0.40696 -0.36751,0.87633 -0.36751,1.40806 v 7.3496 z"
         fill="#ffffff"
         id="path191-8-6-9"
         style="fill:#000000;stroke-width:0.264583" />
      <path
         d="m -375.36698,-26.514399 c -0.79508,0 -1.51104,-0.14111 -2.14816,-0.42326 -0.63182,-0.28757 -1.13268,-0.7108 -1.50309,-1.26968 -0.36487,-0.55888 -0.54716,-1.24799 -0.54716,-2.06732 0,-0.70538 0.1307,-1.28868 0.39211,-1.7499 0.26141,-0.46123 0.61807,-0.83019 1.06997,-1.10691 0.45191,-0.27673 0.96097,-0.48565 1.52744,-0.62672 0.57177,-0.1465 1.16258,-0.25231 1.77245,-0.31742 0.73501,-0.076 1.33138,-0.1438 1.78858,-0.20347 0.45746,-0.0651 0.78978,-0.1628 0.99669,-0.29302 0.21219,-0.13566 0.31855,-0.34454 0.31855,-0.6267 v -0.0488 c 0,-0.61314 -0.18256,-1.08791 -0.54742,-1.42433 -0.36486,-0.33642 -0.89032,-0.50461 -1.57639,-0.50461 -0.72416,0 -1.29857,0.15734 -1.72323,0.47204 -0.41936,0.31472 -0.70247,0.68641 -0.84957,1.11506 l -2.76067,-0.39068 c 0.21776,-0.75965 0.57706,-1.39449 1.07818,-1.90453 0.50086,-0.51549 1.11337,-0.90072 1.83753,-1.15575 0.72443,-0.26046 1.52479,-0.39068 2.40162,-0.39068 0.60431,0 1.20597,0.0705 1.80499,0.21161 0.59902,0.14108 1.14618,0.37441 1.64174,0.69998 0.49557,0.32012 0.89297,0.75692 1.19248,1.31038 0.30506,0.55345 0.45746,1.24528 0.45746,2.07547 v 8.36694 h -2.84242 v -1.71733 h -0.0982 c -0.17965,0.34727 -0.43285,0.67284 -0.75961,0.97668 -0.32121,0.29843 -0.72681,0.53989 -1.21682,0.72438 -0.48472,0.17907 -1.05384,0.26861 -1.70709,0.26861 z m 0.76782,-2.16501 c 0.59346,0 1.10807,-0.11666 1.54357,-0.34999 0.43577,-0.23873 0.77047,-0.55346 1.00463,-0.94411 0.23971,-0.39069 0.35957,-0.81664 0.35957,-1.27784 v -1.47317 c -0.0926,0.076 -0.25056,0.1465 -0.47387,0.21161 -0.21775,0.0651 -0.46276,0.12208 -0.73502,0.17093 -0.27225,0.0488 -0.54186,0.0922 -0.80883,0.13022 -0.2667,0.038 -0.49821,0.0705 -0.69426,0.0977 -0.44106,0.0597 -0.83582,0.15735 -1.18428,0.293 -0.34845,0.13565 -0.62336,0.32557 -0.82497,0.56975 -0.20135,0.23874 -0.30215,0.54804 -0.30215,0.92785 0,0.5426 0.1987,0.95226 0.59637,1.22898 0.3974,0.27676 0.90382,0.41511 1.51924,0.41511 z"
         fill="#ffffff"
         id="path193-9-8-3"
         style="fill:#000000;stroke-width:0.264583" />
      <path
         d="m -382.00988,-39.205779 v 2.27894 h -7.21228 v -2.27894 z m -5.43168,-2.99517 h 2.95677 v 11.73653 c 0,0.39611 0.0598,0.69995 0.17965,0.91157 0.12541,0.20619 0.28866,0.34726 0.49001,0.42322 0.20161,0.076 0.42492,0.11396 0.66992,0.11396 0.18521,0 0.35402,-0.0136 0.50642,-0.0407 0.15795,-0.0271 0.27781,-0.0515 0.3593,-0.0733 l 0.49821,2.30336 c -0.15795,0.0543 -0.38391,0.11396 -0.67786,0.17907 -0.28866,0.0651 -0.64241,0.10308 -1.06177,0.11396 -0.74057,0.0217 -1.40759,-0.0895 -2.00118,-0.33372 -0.59354,-0.24958 -1.06455,-0.63484 -1.41306,-1.15573 -0.34303,-0.52091 -0.51184,-1.17205 -0.50641,-1.95339 z"
         fill="#ffffff"
         id="path195-7-98-1"
         style="fill:#000000;stroke-width:0.264583" />
    </g>
  </g>
</svg>
