<svg width="852" height="213" fill="none" viewBox="0 0 852 213" xmlns="http://www.w3.org/2000/svg"><path fill="#000" d="M429.308 38.969h22.291V171h-22.291zM565.725 171l-3.772-36.008 4.458-12.518-4.458-12.345 3.772-36.18h22.977l-5.144 48.525L588.702 171zm6.859-48.526q-3.258 15.261-10.803 26.749-7.545 11.489-18.69 17.833-10.974 6.345-24.52 6.345-14.232 0-25.206-6.345-10.974-6.516-17.147-18.004t-6.173-26.578q0-15.261 6.173-26.577 6.173-11.49 17.147-17.833 10.974-6.516 25.206-6.516 13.546 0 24.52 6.344 11.145 6.345 18.69 17.833 7.716 11.317 10.803 26.749m-79.905 0q0 9.774 3.944 17.319 4.115 7.373 11.145 11.66 7.03 4.115 16.118 4.115 9.26 0 17.147-4.115 7.888-4.287 13.889-11.66 6.173-7.545 9.774-17.319-3.6-9.773-9.774-17.147-6.001-7.544-13.889-11.66-7.887-4.286-17.147-4.286-9.087 0-16.118 4.287-7.03 4.115-11.145 11.659-3.944 7.374-3.944 17.147m117.475-83.505h22.291v68.416l-3.429 6.344v18.005l3.429 7.201V171h-22.291zm13.375 83.505q3.258-15.432 10.802-26.749 7.545-11.488 18.519-17.833 11.145-6.345 24.691-6.344 14.232 0 25.206 6.516 10.974 6.345 17.147 17.833 6.173 11.316 6.173 26.577 0 15.09-6.173 26.578t-17.147 18.004q-10.974 6.345-25.206 6.345-13.545 0-24.691-6.345-10.974-6.344-18.519-17.833t-10.802-26.749m79.904 0q0-9.773-4.115-17.147-3.944-7.544-10.974-11.66-7.03-4.286-16.118-4.286t-17.147 4.287q-7.888 4.115-13.889 11.659-6.002 7.374-9.774 17.147 3.772 9.774 9.774 17.319 6.001 7.373 13.889 11.66 8.059 4.115 17.147 4.115t16.118-4.115q7.03-4.287 10.974-11.66 4.115-7.545 4.115-17.319m141.664 19.033q0 9.774-5.487 16.976-5.487 7.201-16.632 11.145-11.146 3.773-27.95 3.773-17.318 0-30.007-4.287-12.688-4.458-19.719-12.346-6.858-8.059-7.373-18.519h22.634q1.029 5.487 5.487 9.774 4.629 4.115 12.003 6.345 7.545 2.229 17.147 2.229 13.889 0 20.919-3.258 7.03-3.43 7.03-10.288 0-4.63-4.801-7.031-4.629-2.4-17.661-3.601l-19.033-1.714q-15.432-1.372-24.349-5.487-8.916-4.287-12.689-10.288-3.772-6.173-3.772-13.032 0-9.945 6.173-16.632t17.147-10.117q10.974-3.6 25.549-3.601 15.089 0 26.92 4.287 11.832 4.115 18.862 11.66 7.03 7.372 7.888 17.147h-22.634q-.686-3.944-4.116-7.545-3.258-3.773-10.116-6.173-6.688-2.572-18.005-2.572-12.002 0-18.861 3.086-6.687 3.087-6.687 9.088 0 3.772 4.115 6.516 4.115 2.572 15.261 3.601l24.52 2.229q14.746 1.372 22.976 5.316 8.403 3.771 11.832 9.773t3.429 13.546"/><path fill="#F6F6F6" stroke="#000" stroke-linecap="square" stroke-width="4.53" d="m167.285 82.388-23.741 60.699-23.227-60.699-1.027-2.695H92.662l-1.027 2.63-23.74 60.379-23.74-60.378-1.028-2.63H12.906l2.31 5.71 36.574 91.113 1.026 2.63H79.83l1.027-2.63 24.96-61.662 24.318 61.597 1.026 2.631h27.078l1.026-2.631 36.702-91.112 2.31-5.711h-29.9zm122.486 9.305 42.798-38.435V32.533H223.105v24.575h67.244l-41.258 38.37 5.198 17.517h14.244c22.201 0 35.419 7.571 35.419 20.148v.385c0 11.613-10.78 19.762-26.243 19.762-16.362 0-29.067-5.582-41.13-18.03l-.962-1.027-22.137 18.03 1.091 1.22c15.656 16.746 36.766 25.216 62.688 25.216 34.007 0 57.812-18.993 57.812-46.134v-.385c0-21.816-16.426-36.51-45.3-40.487Zm104.382 56.297h-27.88v27.88h27.88z"/><path fill="#F6F6F6" stroke="#000" stroke-linecap="square" stroke-width="4.568" d="m167.132 82.224-23.74 60.699-23.228-60.7-1.026-2.694H92.51l-1.027 2.63-23.74 60.379L44.001 82.16l-1.027-2.631h-30.22l2.31 5.71 36.573 91.113 1.027 2.631h27.013l1.027-2.631 24.959-61.661 24.318 61.597 1.027 2.631h27.077l1.027-2.631 36.702-91.113 2.31-5.71h-29.901zm122.487 9.305 42.797-38.435V32.37H222.953v24.575h67.244l-41.258 38.37 5.197 17.517h14.245c22.201 0 35.418 7.571 35.418 20.148v.384c0 11.614-10.779 19.763-26.243 19.763-16.362 0-29.066-5.582-41.129-18.03l-.962-1.027-22.137 18.03 1.091 1.219c15.656 16.747 36.766 25.217 62.688 25.217 34.007 0 57.812-18.993 57.812-46.134v-.385c0-21.816-16.426-36.51-45.3-40.487Zm104.413 56.328h-27.88v27.879h27.88z"/><path fill="#F6F6F6" stroke="#000" stroke-linecap="square" stroke-width="4.607" d="m166.957 82.069-23.741 60.699-23.227-60.7-1.027-2.694H92.334l-1.027 2.63-23.74 60.379-23.741-60.379-1.027-2.63H12.578l2.31 5.71 36.574 91.113 1.026 2.631h27.013l1.027-2.631 24.96-61.661 24.318 61.597 1.026 2.631h27.078l1.026-2.631 36.702-91.113 2.31-5.71h-29.901zm122.486 9.304 42.798-38.434V32.214H222.777V56.79h67.244l-41.258 38.37 5.198 17.517h14.244c22.201 0 35.419 7.571 35.419 20.147v.385c0 11.614-10.78 19.763-26.244 19.763-16.361 0-29.066-5.583-41.129-18.03l-.962-1.027-22.137 18.03 1.091 1.219c15.656 16.747 36.766 25.217 62.688 25.217 34.007 0 57.812-18.993 57.812-46.134v-.385c0-21.816-16.426-36.51-45.3-40.488Zm104.432 56.35h-27.879v27.879h27.879z"/><path fill="#F6F6F6" stroke="#000" stroke-linecap="square" stroke-width="4.645" d="m166.804 81.91-23.74 60.699-23.228-60.7-1.026-2.694H92.182l-1.027 2.63-23.74 60.379-23.741-60.379-1.027-2.63H12.426l2.31 5.71 36.573 91.113 1.027 2.631h27.013l1.026-2.631 24.96-61.662 24.318 61.598 1.027 2.631h27.077l1.027-2.631 36.702-91.113 2.31-5.71h-29.901zm122.487 9.304 42.797-38.434V32.055H222.625V56.63h67.243L248.611 95l5.197 17.517h14.245c22.2 0 35.418 7.571 35.418 20.147v.385c0 11.614-10.779 19.763-26.243 19.763-16.362 0-29.066-5.583-41.129-18.031l-.962-1.026L213 151.785l1.091 1.219c15.656 16.747 36.766 25.216 62.688 25.216 34.007 0 57.812-18.992 57.812-46.133v-.385c0-21.816-16.426-36.51-45.3-40.488Zm104.467 56.376h-27.879v27.879h27.879z"/><path fill="#F6F6F6" stroke="#000" stroke-linecap="square" stroke-width="4.678" d="m166.648 81.75-23.741 60.699L119.68 81.75l-1.027-2.695H92.025L91 81.686l-23.74 60.378-23.742-60.378-1.026-2.63H12.269l2.31 5.71 36.574 91.113 1.026 2.631h27.014l1.026-2.631 24.96-61.662 24.318 61.598 1.027 2.63h27.077l1.027-2.63 36.701-91.113 2.31-5.71h-29.9zm122.487 9.305 42.797-38.434V31.896H222.468V56.47h67.244l-41.257 38.37 5.197 17.516h14.244c22.201 0 35.419 7.572 35.419 20.148v.385c0 11.614-10.78 19.762-26.243 19.762-16.362 0-29.066-5.582-41.129-18.03l-.963-1.026-22.136 18.03 1.091 1.219c15.656 16.747 36.765 25.216 62.688 25.216 34.007 0 57.811-18.992 57.811-46.134v-.385c0-21.815-16.425-36.509-45.299-40.487Zm104.483 56.406h-27.88v27.879h27.88z"/><path fill="#F6F6F6" stroke="#000" stroke-linecap="square" stroke-width="4.716" d="m166.476 81.594-23.74 60.699-23.228-60.699-1.026-2.695H91.853l-1.026 2.63-23.74 60.379L43.344 81.53 42.32 78.9H12.097l2.31 5.71 36.574 91.113 1.027 2.63H79.02l1.026-2.63 24.96-61.662 24.318 61.597 1.027 2.631h27.077l1.027-2.631 36.701-91.112 2.31-5.711h-29.9zm122.487 9.305 42.797-38.434V31.739H222.296v24.575h67.244l-41.257 38.37 5.197 17.517h14.245c22.2 0 35.418 7.571 35.418 20.148v.385c0 11.613-10.779 19.762-26.243 19.762-16.362 0-29.066-5.582-41.129-18.03l-.963-1.027-22.136 18.03 1.091 1.22c15.656 16.746 36.766 25.216 62.688 25.216 34.007 0 57.812-18.993 57.812-46.134v-.385c0-21.816-16.426-36.51-45.3-40.487Zm104.498 56.431h-27.879v27.88h27.879z"/><path fill="#F6F6F6" stroke="#000" stroke-linecap="square" stroke-width="4.755" d="m166.336 81.43-23.741 60.7-23.227-60.7-1.027-2.694H91.713l-1.027 2.63-23.74 60.379-23.741-60.378-1.027-2.631H11.957l2.31 5.71L50.84 175.56l1.027 2.631H78.88l1.027-2.631 24.959-61.661 24.319 61.597 1.026 2.631h27.077l1.027-2.631 36.702-91.113 2.31-5.71h-29.901zm122.486 9.306L331.62 52.3V31.576H222.156v24.575H289.4l-41.258 38.37 5.198 17.517h14.244c22.201 0 35.418 7.571 35.418 20.148v.385c0 11.613-10.779 19.762-26.243 19.762-16.361 0-29.066-5.582-41.129-18.03l-.962-1.027-22.137 18.03 1.091 1.22c15.656 16.746 36.766 25.216 62.688 25.216 34.007 0 57.812-18.993 57.812-46.134v-.385c0-21.816-16.426-36.51-45.3-40.487Zm104.518 56.458h-27.879v27.879h27.879z"/><path fill="#F6F6F6" stroke="#000" stroke-linecap="square" stroke-width="4.793" d="m166.183 81.279-23.74 60.699-23.228-60.7-1.026-2.694H91.561l-1.027 2.63-23.74 60.379-23.741-60.379-1.027-2.63H11.804l2.31 5.71 36.574 91.113 1.027 2.631h27.013l1.026-2.631 24.96-61.661 24.318 61.597 1.027 2.631h27.077l1.027-2.631 36.702-91.113 2.309-5.71h-29.9zm122.487 9.304 42.797-38.434V31.424H222.004V56h67.243L247.99 94.37l5.197 17.517h14.245c22.2 0 35.418 7.571 35.418 20.147v.385c0 11.614-10.779 19.763-26.243 19.763-16.362 0-29.066-5.583-41.129-18.03l-.963-1.027-22.136 18.03 1.091 1.219c15.656 16.747 36.766 25.217 62.688 25.217 34.007 0 57.812-18.993 57.812-46.134v-.385c0-21.816-16.426-36.51-45.3-40.488Zm104.553 56.484h-27.879v27.879h27.879z"/><path fill="#F6F6F6" stroke="#000" stroke-linecap="square" stroke-width="4.832" d="m166.007 81.115-23.74 60.699-23.228-60.7-1.026-2.694H91.385l-1.027 2.63-23.74 60.379L42.876 81.05l-1.027-2.63H11.63l2.31 5.71 36.573 91.113 1.027 2.631h27.013l1.027-2.631 24.959-61.662 24.319 61.598 1.026 2.631h27.077l1.027-2.631 36.702-91.113 2.31-5.71h-29.901zm122.487 9.305 42.797-38.435V31.26H221.828v24.575h67.244l-41.258 38.37 5.197 17.517h14.245c22.201 0 35.418 7.571 35.418 20.147v.385c0 11.614-10.779 19.763-26.243 19.763-16.362 0-29.066-5.583-41.129-18.03l-.962-1.027-22.137 18.03 1.091 1.219c15.656 16.747 36.766 25.217 62.688 25.217 34.007 0 57.812-18.993 57.812-46.134v-.385c0-21.816-16.426-36.51-45.3-40.488Zm104.588 56.509h-27.879v27.879h27.879z"/><path fill="#F6F6F6" stroke="#000" stroke-linecap="square" stroke-width="4.87" d="m165.855 80.955-23.741 60.699-23.227-60.699-1.027-2.695H91.232l-1.026 2.631-23.74 60.378-23.742-60.378-1.026-2.63H11.476l2.31 5.71 36.574 91.113 1.027 2.631H78.4l1.026-2.631 24.96-61.662 24.318 61.598 1.027 2.63h27.077l1.027-2.63 36.701-91.113 2.31-5.71h-29.9zm122.487 9.305 42.797-38.434V31.1H221.675v24.575h67.244l-41.257 38.37 5.197 17.516h14.244c22.201 0 35.419 7.572 35.419 20.148v.385c0 11.614-10.78 19.762-26.243 19.762-16.362 0-29.066-5.582-41.129-18.03l-.963-1.026-22.136 18.03 1.091 1.219c15.656 16.747 36.766 25.216 62.688 25.216 34.007 0 57.812-18.992 57.812-46.134v-.385c0-21.815-16.426-36.509-45.3-40.487Zm104.604 56.535h-27.88v27.879h27.88z"/><path fill="#F6F6F6" stroke="#000" stroke-linecap="square" stroke-width="4.909" d="m165.699 80.796-23.741 60.699-23.227-60.699-1.027-2.695H91.076l-1.026 2.631-23.741 60.378-23.74-60.378-1.028-2.63H11.32l2.31 5.71 36.574 91.113 1.026 2.63h27.013l1.027-2.63 24.96-61.662 24.318 61.598 1.027 2.63h27.077l1.026-2.63 36.702-91.113 2.31-5.71h-29.9zM288.185 90.1l42.798-38.433V30.942H221.519v24.575h67.244l-41.257 38.37 5.197 17.516h14.244c22.201 0 35.419 7.572 35.419 20.148v.385c0 11.613-10.78 19.762-26.243 19.762-16.362 0-29.067-5.582-41.129-18.03l-.963-1.026-22.136 18.03 1.09 1.219c15.656 16.747 36.766 25.216 62.689 25.216 34.006 0 57.811-18.992 57.811-46.134v-.385c0-21.815-16.426-36.509-45.3-40.487Zm104.62 56.566h-27.879v27.88h27.879z"/><path fill="#F6F6F6" stroke="#000" stroke-linecap="square" stroke-width="4.947" d="m165.543 80.636-23.741 60.699-23.227-60.699-1.027-2.695H90.92l-1.027 2.63-23.74 60.379-23.741-60.378-1.027-2.63H11.164l2.31 5.71 36.573 91.113 1.027 2.63h27.013l1.027-2.63 24.96-61.662 24.318 61.597 1.026 2.631h27.077l1.027-2.631 36.702-91.112 2.31-5.711h-29.901zm122.486 9.304 42.798-38.433V30.782H221.363v24.574h67.244l-41.258 38.37 5.198 17.517h14.244c22.201 0 35.418 7.571 35.418 20.148v.385c0 11.613-10.779 19.762-26.243 19.762-16.361 0-29.066-5.582-41.129-18.03l-.962-1.027-22.137 18.03 1.091 1.22c15.656 16.746 36.766 25.216 62.688 25.216 34.007 0 57.812-18.993 57.812-46.134v-.385c0-21.816-16.426-36.51-45.3-40.487Zm104.655 56.592h-27.879v27.88h27.879z"/><path fill="#F6F6F6" stroke="#000" stroke-linecap="square" stroke-width="4.979" d="m165.39 80.48-23.74 60.699-23.228-60.7-1.026-2.694H90.768l-1.027 2.63L66 140.795 42.26 80.416l-1.027-2.631H11.012l2.31 5.71 36.573 91.113 1.027 2.631h27.013l1.026-2.631 24.96-61.661 24.318 61.597 1.027 2.631h27.077l1.027-2.631 36.702-91.113 2.309-5.71h-29.9zm122.487 9.304 42.797-38.434V30.625H221.211V55.2h67.243l-41.257 38.37 5.197 17.517h14.245c22.2 0 35.418 7.571 35.418 20.147v.385c0 11.614-10.779 19.763-26.243 19.763-16.362 0-29.066-5.582-41.129-18.03l-.962-1.027-22.137 18.03 1.091 1.219c15.656 16.747 36.766 25.217 62.688 25.217 34.007 0 57.812-18.993 57.812-46.134v-.385c0-21.816-16.426-36.51-45.3-40.488Zm104.674 56.614h-27.879v27.879h27.879z"/><path fill="#F6F6F6" stroke="#000" stroke-linecap="square" stroke-width="5.018" d="m165.214 80.32-23.74 60.7-23.228-60.7-1.026-2.694H90.592l-1.027 2.63-23.74 60.379-23.741-60.379-1.027-2.63H10.836l2.31 5.71 36.573 91.113 1.027 2.631h27.013l1.027-2.631 24.959-61.661 24.319 61.597 1.026 2.631h27.077l1.027-2.631 36.702-91.113 2.31-5.71h-29.901zm122.487 9.305 42.797-38.434V30.466H221.035v24.575h67.244l-41.258 38.37 5.197 17.517h14.245c22.201 0 35.418 7.571 35.418 20.147v.385c0 11.614-10.779 19.763-26.243 19.763-16.362 0-29.066-5.583-41.129-18.03l-.962-1.027-22.137 18.03 1.091 1.219c15.656 16.747 36.766 25.217 62.688 25.217 34.007 0 57.812-18.993 57.812-46.134v-.385c0-21.816-16.426-36.51-45.3-40.488Zm104.69 56.639h-27.879v27.879h27.879z"/><path fill="#F6F6F6" stroke="#000" stroke-linecap="square" stroke-width="5.056" d="m165.078 80.16-23.741 60.7-23.227-60.7-1.027-2.694H90.455l-1.027 2.63-23.74 60.379-23.74-60.379-1.028-2.63H10.7l2.31 5.71 36.574 91.113 1.026 2.631h27.013l1.027-2.631 24.96-61.662 24.318 61.598 1.026 2.631h27.078l1.026-2.631 36.702-91.113 2.31-5.71h-29.9zm122.486 9.305 42.798-38.434V30.306H220.898V54.88h67.244l-41.258 38.37 5.198 17.517h14.244c22.201 0 35.419 7.571 35.419 20.147v.385c0 11.614-10.78 19.763-26.243 19.763-16.362 0-29.067-5.583-41.13-18.031l-.962-1.026-22.137 18.03 1.091 1.219c15.656 16.747 36.766 25.216 62.688 25.216 34.007 0 57.812-18.992 57.812-46.133v-.385c0-21.816-16.426-36.51-45.3-40.488Zm104.71 56.669h-27.879v27.879h27.879z"/><path fill="#F6F6F6" stroke="#000" stroke-linecap="square" stroke-width="5.095" d="m164.902 79.996-23.741 60.699-23.227-60.699-1.027-2.694H90.279l-1.026 2.63-23.741 60.378-23.74-60.378-1.027-2.63H10.523l2.31 5.71 36.574 91.113 1.026 2.631h27.013l1.027-2.631 24.96-61.662 24.318 61.598 1.027 2.63h27.077l1.026-2.63 36.702-91.113 2.31-5.71h-29.9zm122.487 9.305 42.797-38.434V30.142H220.722v24.575h67.244l-41.257 38.37 5.197 17.516h14.244c22.201 0 35.419 7.572 35.419 20.148v.385c0 11.614-10.78 19.762-26.243 19.762-16.362 0-29.066-5.582-41.129-18.03l-.963-1.026-22.136 18.03 1.09 1.219c15.656 16.747 36.766 25.216 62.689 25.216 34.007 0 57.811-18.992 57.811-46.134v-.385c0-21.815-16.426-36.509-45.299-40.487Zm104.74 56.695H364.25v27.88h27.879z"/><path fill="#F6F6F6" stroke="#000" stroke-linecap="square" stroke-width="5.133" d="m164.75 79.837-23.741 60.699-23.227-60.699-1.027-2.695H90.127L89.1 79.773l-23.74 60.378-23.741-60.378-1.027-2.63H10.371l2.31 5.71 36.574 91.113 1.026 2.63h27.013l1.027-2.63 24.96-61.662 24.318 61.598 1.026 2.63h27.078l1.026-2.63 36.702-91.113 2.31-5.71H165.84zm122.486 9.305 42.798-38.434V29.983H220.57v24.574h67.244l-41.258 38.37 5.198 17.517h14.244c22.201 0 35.419 7.572 35.419 20.148v.385c0 11.613-10.78 19.762-26.244 19.762-16.361 0-29.066-5.582-41.129-18.03l-.962-1.026-22.137 18.03 1.091 1.219c15.656 16.747 36.766 25.216 62.688 25.216 34.007 0 57.812-18.992 57.812-46.134v-.385c0-21.815-16.426-36.509-45.3-40.487Zm104.776 56.721h-27.879v27.879h27.879z"/><path fill="#F6F6F6" stroke="#000" stroke-linecap="square" stroke-width="5.172" d="m164.613 79.687-23.741 60.699-23.227-60.7-1.027-2.694H89.99l-1.026 2.63-23.741 60.379-23.74-60.378-1.027-2.631H10.234l2.31 5.71 36.574 91.113 1.026 2.631h27.013l1.027-2.631 24.96-61.661 24.318 61.597 1.027 2.631h27.077l1.026-2.631 36.702-91.113 2.31-5.71h-29.9zM287.1 88.992l42.797-38.435V29.832H220.433v24.575h67.244l-41.257 38.37 5.197 17.517h14.244c22.201 0 35.419 7.571 35.419 20.147v.385c0 11.614-10.78 19.763-26.243 19.763-16.362 0-29.067-5.582-41.129-18.03l-.963-1.027-22.136 18.03 1.09 1.219c15.656 16.747 36.766 25.217 62.689 25.217 34.006 0 57.811-18.993 57.811-46.134v-.385c0-21.816-16.426-36.51-45.299-40.488Zm104.795 56.747h-27.879v27.879h27.879z"/><path fill="#F6F6F6" stroke="#000" stroke-linecap="square" stroke-width="5.21" d="M164.441 79.526 140.7 140.225l-23.227-60.7-1.027-2.694H89.818l-1.026 2.63L65.05 139.84 41.31 79.462l-1.027-2.631H10.062l2.31 5.71 36.574 91.113 1.026 2.631h27.013l1.027-2.631 24.96-61.661 24.318 61.597 1.027 2.631h27.077l1.027-2.631 36.701-91.113 2.31-5.71h-29.9zm122.487 9.304 42.797-38.434V29.671H220.261v24.575h67.244l-41.257 38.37 5.197 17.517h14.244c22.201 0 35.419 7.571 35.419 20.147v.385c0 11.614-10.78 19.763-26.243 19.763-16.362 0-29.066-5.583-41.129-18.03l-.963-1.027-22.136 18.03 1.091 1.219c15.656 16.747 36.765 25.217 62.688 25.217 34.007 0 57.811-18.993 57.811-46.134v-.385c0-21.816-16.426-36.51-45.299-40.488Zm104.811 56.773h-27.88v27.879h27.88z"/><path fill="#F6F6F6" stroke="#000" stroke-linecap="square" stroke-width="5.249" d="m164.285 79.362-23.741 60.699-23.227-60.7-1.027-2.694H89.662l-1.027 2.63-23.74 60.379-23.74-60.379-1.028-2.63H9.906l2.31 5.71L48.79 173.49l1.026 2.631H76.83l1.027-2.631 24.96-61.661 24.318 61.597 1.026 2.631h27.078l1.026-2.631 36.702-91.113 2.31-5.71h-29.9zm122.486 9.304 42.798-38.434V29.507H220.105v24.575h67.244l-41.258 38.37 5.198 17.517h14.244c22.201 0 35.419 7.571 35.419 20.147v.385c0 11.614-10.78 19.763-26.243 19.763-16.362 0-29.067-5.583-41.13-18.03l-.962-1.027-22.137 18.03 1.091 1.219c15.656 16.747 36.766 25.217 62.688 25.217 34.007 0 57.812-18.993 57.812-46.134v-.385c0-21.816-16.426-36.51-45.3-40.488Zm104.847 56.799h-27.88v27.879h27.88z"/><path fill="#F6F6F6" stroke="#000" stroke-linecap="square" stroke-width="5.287" d="m164.125 79.202-23.741 60.7-23.227-60.7-1.027-2.695H89.502l-1.027 2.631-23.74 60.379-23.741-60.379-1.027-2.63H9.746l2.31 5.71 36.574 91.113 1.026 2.631H76.67l1.027-2.631 24.96-61.662 24.318 61.598 1.026 2.631h27.078l1.026-2.631 36.702-91.113 2.31-5.71h-29.901zm122.486 9.305 42.798-38.434V29.348H219.945v24.575h67.244l-41.258 38.37 5.198 17.517h14.244c22.201 0 35.419 7.571 35.419 20.147v.385c0 11.614-10.78 19.762-26.244 19.762-16.361 0-29.066-5.582-41.129-18.03l-.962-1.026-22.137 18.03 1.091 1.219c15.656 16.747 36.766 25.216 62.688 25.216 34.007 0 57.812-18.992 57.812-46.133v-.385c0-21.816-16.426-36.51-45.3-40.488Zm104.862 56.829h-27.879v27.879h27.879z"/><path fill="#F6F6F6" stroke="#000" stroke-linecap="square" stroke-width="5.319" d="m163.972 79.042-23.74 60.699-23.228-60.699-1.026-2.695H89.35l-1.027 2.631-23.74 60.378-23.741-60.378-1.027-2.63H9.594l2.31 5.71 36.573 91.113 1.027 2.631h27.013l1.026-2.631 24.96-61.662 24.318 61.598 1.027 2.63h27.077l1.027-2.63 36.702-91.113 2.309-5.71h-29.9zm122.487 9.305 42.797-38.434V29.188H219.793v24.575h67.243l-41.257 38.37 5.197 17.516h14.245c22.2 0 35.418 7.572 35.418 20.148v.385c0 11.614-10.779 19.762-26.243 19.762-16.362 0-29.066-5.582-41.129-18.03l-.962-1.026-22.137 18.03 1.091 1.219c15.656 16.747 36.766 25.216 62.688 25.216 34.007 0 57.812-18.992 57.812-46.134v-.385c0-21.815-16.426-36.509-45.3-40.487Zm104.897 56.854h-27.879v27.88h27.879z"/><path fill="#F6F6F6" stroke="#000" stroke-linecap="square" stroke-width="5.358" d="m163.816 78.892-23.741 60.699-23.227-60.7-1.027-2.694H89.193l-1.026 2.63-23.741 60.379-23.74-60.378-1.027-2.631H9.437l2.31 5.71 36.574 91.113 1.026 2.631H76.36l1.027-2.631 24.96-61.661 24.318 61.597 1.027 2.631h27.077l1.027-2.631 36.701-91.113 2.31-5.71h-29.9zm122.487 9.305L329.1 49.762V29.037H219.636v24.575h67.244l-41.257 38.37 5.197 17.517h14.244c22.201 0 35.419 7.571 35.419 20.147v.385c0 11.614-10.78 19.763-26.243 19.763-16.362 0-29.066-5.582-41.129-18.03l-.963-1.027-22.136 18.03 1.09 1.219c15.657 16.747 36.766 25.217 62.689 25.217 34.007 0 57.811-18.993 57.811-46.134v-.385c0-21.816-16.426-36.51-45.299-40.487Zm104.916 56.876H363.34v27.88h27.879z"/><path fill="#F6F6F6" stroke="#000" stroke-linecap="square" stroke-width="5.396" d="m163.644 78.728-23.74 60.699-23.228-60.7-1.027-2.694H89.022l-1.027 2.63-23.74 60.379-23.741-60.378-1.027-2.631H9.265l2.31 5.71 36.574 91.113 1.027 2.631h27.013l1.026-2.631 24.96-61.661 24.318 61.597 1.027 2.631h27.077l1.027-2.631 36.701-91.113 2.31-5.71h-29.9zm122.487 9.305 42.797-38.435V28.873H219.464v24.575h67.244l-41.257 38.37 5.197 17.517h14.245c22.2 0 35.418 7.571 35.418 20.147v.385c0 11.614-10.78 19.763-26.243 19.763-16.362 0-29.066-5.582-41.129-18.03l-.963-1.027-22.136 18.03 1.091 1.219c15.656 16.747 36.766 25.217 62.688 25.217 34.007 0 57.812-18.993 57.812-46.134v-.385c0-21.816-16.426-36.51-45.3-40.488Zm104.932 56.906h-27.879v27.879h27.879z"/><path fill="#F6F6F6" stroke="#000" stroke-linecap="square" stroke-width="5.435" d="m163.488 78.569-23.741 60.699-23.227-60.7-1.027-2.694H88.865l-1.026 2.63-23.741 60.379-23.74-60.379-1.027-2.63H9.109l2.31 5.71 36.574 91.113 1.026 2.631h27.013l1.027-2.631 24.96-61.661 24.318 61.597 1.027 2.631h27.077l1.026-2.631 36.702-91.113 2.31-5.71h-29.9zm122.487 9.304 42.797-38.434V28.714H219.308V53.29h67.244l-41.257 38.37 5.197 17.517h14.244c22.201 0 35.419 7.571 35.419 20.147v.385c0 11.614-10.78 19.763-26.243 19.763-16.362 0-29.067-5.583-41.129-18.03l-.963-1.027-22.136 18.03 1.09 1.219c15.656 16.747 36.766 25.217 62.689 25.217 34.006 0 57.811-18.993 57.811-46.134v-.385c0-21.816-16.426-36.51-45.299-40.488Zm104.967 56.933h-27.88v27.879h27.88z"/><path fill="#F6F6F6" stroke="#000" stroke-linecap="square" stroke-width="5.473" d="m163.336 78.408-23.741 60.699-23.227-60.7-1.027-2.694H88.713l-1.027 2.63-23.74 60.379-23.741-60.379-1.027-2.63H8.957l2.31 5.71 36.573 91.113 1.027 2.631H75.88l1.027-2.631 24.959-61.662 24.319 61.598 1.026 2.631h27.077l1.027-2.631 36.702-91.113 2.31-5.71h-29.901zm122.502 9.304 42.797-38.434V28.553H219.171v24.575h67.244l-41.257 38.37 5.197 17.517H264.6c22.2 0 35.418 7.571 35.418 20.147v.385c0 11.614-10.779 19.763-26.243 19.763-16.362 0-29.066-5.583-41.129-18.03l-.963-1.027-22.136 18.03 1.091 1.219c15.656 16.747 36.766 25.217 62.688 25.217 34.007 0 57.812-18.993 57.812-46.134v-.385c0-21.816-16.426-36.51-45.3-40.488Zm104.967 56.959h-27.879v27.879h27.879z"/><path fill="#F6F6F6" stroke="#000" stroke-linecap="square" stroke-width="5.512" d="m163.175 78.248-23.74 60.699-23.228-60.699-1.026-2.695H88.553l-1.027 2.631-23.74 60.378-23.741-60.378-1.027-2.63H8.797l2.31 5.71 36.573 91.113 1.027 2.631H75.72l1.026-2.631 24.96-61.662 24.318 61.598 1.027 2.63h27.077l1.027-2.63L191.857 81.2l2.31-5.71h-29.901zm122.487 9.305 42.797-38.434V28.394H218.996v24.575h67.244l-41.258 38.37 5.197 17.516h14.245c22.201 0 35.418 7.572 35.418 20.148v.385c0 11.614-10.779 19.762-26.243 19.762-16.362 0-29.066-5.582-41.129-18.03l-.962-1.026-22.137 18.03 1.091 1.219c15.656 16.747 36.766 25.216 62.688 25.216 34.007 0 57.812-18.992 57.812-46.134v-.385c0-21.815-16.426-36.509-45.3-40.487Zm105.002 56.993h-27.879v27.879h27.879z"/><path fill="#F6F6F6" stroke="#000" stroke-linecap="square" stroke-width="5.55" d="m163.023 78.088-23.741 60.699-23.227-60.699-1.027-2.695H88.4l-1.026 2.631-23.74 60.378-23.742-60.378-1.026-2.63H8.644l2.31 5.71 36.574 91.113 1.026 2.63h27.014l1.026-2.63 24.96-61.662 24.318 61.598 1.027 2.63h27.077l1.027-2.63 36.701-91.113 2.31-5.71h-29.9zm122.502 9.305 42.798-38.434V28.234H218.859v24.574h67.244l-41.258 38.37 5.198 17.517h14.244c22.201 0 35.419 7.572 35.419 20.148v.385c0 11.613-10.78 19.762-26.243 19.762-16.362 0-29.067-5.582-41.13-18.03l-.962-1.026-22.137 18.03 1.091 1.219c15.656 16.747 36.766 25.216 62.688 25.216 34.007 0 57.812-18.992 57.812-46.134v-.385c0-21.815-16.426-36.509-45.3-40.487Zm105.022 57.018h-27.879v27.88h27.879z"/><path fill="#F6F6F6" stroke="#000" stroke-linecap="square" stroke-width="5.589" d="m162.847 77.934-23.74 60.699-23.228-60.7-1.026-2.694H88.225l-1.027 2.63-23.74 60.379L39.716 77.87l-1.027-2.631H8.469l2.31 5.71 36.573 91.113 1.027 2.631h27.013l1.026-2.631 24.96-61.661 24.318 61.597 1.027 2.631H153.8l1.027-2.631 36.702-91.113 2.309-5.71h-29.9zm122.487 9.305 42.797-38.435V28.08H218.668v24.575h67.243l-41.257 38.37 5.197 17.517h14.245c22.2 0 35.418 7.571 35.418 20.147v.385c0 11.614-10.779 19.763-26.243 19.763-16.362 0-29.066-5.582-41.129-18.03l-.962-1.027-22.137 18.03 1.091 1.219c15.656 16.747 36.766 25.217 62.688 25.217 34.007 0 57.812-18.993 57.812-46.134v-.385c0-21.816-16.426-36.51-45.3-40.487Zm105.069 57.036h-27.88v27.879h27.88z"/><path fill="#F6F6F6" stroke="#000" stroke-linecap="square" stroke-width="5.621" d="m162.695 77.774-23.741 60.699-23.227-60.7-1.027-2.694H88.072l-1.026 2.63-23.741 60.379-23.74-60.378-1.027-2.631H8.316l2.31 5.71L47.2 171.902l1.026 2.631H75.24l1.027-2.631 24.96-61.661 24.318 61.597 1.027 2.631h27.077l1.026-2.631 36.702-91.113 2.31-5.71h-29.9zm122.487 9.304 42.797-38.434V27.92H218.515v24.575h67.244l-41.257 38.37 5.197 17.517h14.244c22.201 0 35.419 7.571 35.419 20.147v.385c0 11.614-10.78 19.763-26.243 19.763-16.362 0-29.067-5.582-41.129-18.03l-.963-1.027-22.136 18.03 1.09 1.219c15.656 16.747 36.766 25.217 62.689 25.217 34.007 0 57.811-18.993 57.811-46.134v-.385c0-21.816-16.426-36.51-45.299-40.488Zm105.088 57.063h-27.879v27.879h27.879z"/><path fill="#F6F6F6" stroke="#000" stroke-linecap="square" stroke-width="5.659" d="m162.539 77.615-23.741 60.699-23.227-60.7-1.027-2.694H87.916l-1.027 2.63-23.74 60.379L39.408 77.55l-1.027-2.63H8.16l2.31 5.71 36.573 91.113 1.027 2.631h27.013l1.027-2.631 24.96-61.662 24.318 61.598 1.026 2.631h27.078l1.026-2.631 36.702-91.113 2.31-5.71h-29.901zm122.486 9.305 42.798-38.435V27.76H218.359v24.575h67.244l-41.258 38.37 5.198 17.517h14.244c22.201 0 35.419 7.571 35.419 20.147v.385c0 11.614-10.78 19.763-26.243 19.763-16.362 0-29.067-5.583-41.13-18.03l-.962-1.027-22.137 18.03 1.091 1.219c15.656 16.747 36.766 25.217 62.688 25.217 34.007 0 57.812-18.993 57.812-46.134v-.385c0-21.816-16.426-36.51-45.3-40.488Zm105.104 57.092H362.25v27.879h27.879z"/><path fill="#F6F6F6" stroke="#000" stroke-linecap="square" stroke-width="5.698" d="m162.382 77.454-23.74 60.699-23.228-60.699-1.026-2.694H87.76l-1.027 2.63-23.74 60.379L39.251 77.39l-1.027-2.63H8.004l2.31 5.71 36.573 91.113 1.027 2.631h27.013l1.027-2.631 24.959-61.662 24.318 61.598 1.027 2.63h27.077l1.027-2.63 36.702-91.113 2.31-5.71h-29.901zm122.487 9.305 42.797-38.434V27.6H218.203v24.575h67.244l-41.258 38.37 5.197 17.516h14.245c22.201 0 35.418 7.572 35.418 20.148v.385c0 11.614-10.779 19.762-26.243 19.762-16.362 0-29.066-5.582-41.129-18.03l-.962-1.026-22.137 18.03 1.091 1.219c15.656 16.747 36.766 25.216 62.688 25.216 34.007 0 57.812-18.992 57.812-46.134v-.385c0-21.815-16.426-36.509-45.3-40.487Zm105.124 57.118h-27.88v27.879h27.88z"/><path fill="#F6F6F6" stroke="#000" stroke-linecap="square" stroke-width="5.736" d="m162.23 77.294-23.741 60.699-23.227-60.699-1.027-2.695H87.607l-1.026 2.631-23.74 60.378L39.098 77.23l-1.026-2.63H7.85l2.31 5.71 36.574 91.113 1.027 2.63h27.013l1.026-2.63 24.96-61.662 24.318 61.598 1.027 2.63h27.077l1.027-2.63 36.701-91.113 2.31-5.71h-29.9zm122.487 9.305 42.797-38.434V27.44H218.05v24.574h67.244l-41.257 38.37 5.197 17.517h14.244c22.201 0 35.419 7.572 35.419 20.148v.385c0 11.613-10.78 19.762-26.243 19.762-16.362 0-29.066-5.582-41.129-18.03l-.963-1.026-22.136 18.03 1.091 1.219c15.656 16.747 36.766 25.216 62.688 25.216 34.007 0 57.812-18.992 57.812-46.134v-.385c0-21.815-16.426-36.509-45.3-40.487Zm105.154 57.144h-27.879v27.88h27.879z"/><path fill="#F6F6F6" stroke="#000" stroke-linecap="square" stroke-width="5.775" d="m162.054 77.139-23.74 60.699-23.228-60.7-1.026-2.694H87.432l-1.027 2.63-23.74 60.379-23.741-60.378-1.027-2.631H7.676l2.31 5.71 36.573 91.113 1.027 2.631h27.013l1.026-2.631 24.96-61.661 24.318 61.597 1.027 2.631h27.077l1.027-2.631 36.702-91.112 2.31-5.711h-29.901zm122.487 9.305 42.797-38.435V27.284H217.875V51.86h67.243l-41.257 38.37 5.197 17.517h14.245c22.2 0 35.418 7.571 35.418 20.148v.385c0 11.613-10.779 19.762-26.243 19.762-16.362 0-29.066-5.582-41.129-18.03l-.962-1.027-22.137 18.03 1.091 1.22c15.656 16.746 36.766 25.216 62.688 25.216 34.007 0 57.812-18.993 57.812-46.134v-.385c0-21.816-16.426-36.51-45.3-40.487Zm105.174 57.17h-27.879v27.879h27.879z"/><path fill="#F6F6F6" stroke="#000" stroke-linecap="square" stroke-width="5.813" d="m161.902 76.98-23.741 60.699-23.227-60.7-1.027-2.694H87.279l-1.026 2.63-23.741 60.379-23.74-60.378-1.027-2.631H7.523l2.31 5.71 36.574 91.113 1.026 2.631h27.013l1.027-2.631 24.96-61.661 24.318 61.597 1.027 2.631h27.077l1.026-2.631 36.702-91.113 2.31-5.71h-29.9zm122.487 9.304 42.797-38.434V27.125H217.722V51.7h67.244l-41.257 38.37 5.197 17.517h14.244c22.201 0 35.419 7.571 35.419 20.147v.385c0 11.614-10.78 19.763-26.243 19.763-16.362 0-29.066-5.582-41.129-18.03l-.963-1.027-22.136 18.03 1.09 1.219c15.656 16.747 36.766 25.217 62.689 25.217 34.007 0 57.811-18.993 57.811-46.134v-.385c0-21.816-16.426-36.51-45.299-40.488Zm105.189 57.197h-27.879v27.879h27.879z"/><path fill="#F6F6F6" stroke="#000" stroke-linecap="square" stroke-width="5.852" d="m161.742 76.82-23.741 60.699-23.227-60.7-1.027-2.694H87.119l-1.026 2.63-23.741 60.379-23.74-60.379-1.028-2.63H7.363l2.31 5.71 36.574 91.113 1.026 2.631h27.013l1.027-2.631 24.96-61.661 24.318 61.597 1.027 2.631h27.077l1.026-2.631 36.702-91.113 2.31-5.71h-29.9zm122.486 9.304 42.798-38.434V26.965H217.562V51.54h67.244l-41.257 38.37 5.197 17.517h14.244c22.201 0 35.419 7.571 35.419 20.147v.385c0 11.614-10.78 19.763-26.243 19.763-16.362 0-29.067-5.583-41.129-18.03l-.963-1.027-22.136 18.03 1.09 1.219c15.656 16.747 36.766 25.217 62.688 25.217 34.007 0 57.812-18.993 57.812-46.134v-.385c0-21.816-16.426-36.51-45.3-40.488Zm105.225 57.222h-27.879v27.879h27.879z"/><path fill="#F6F6F6" stroke="#000" stroke-linecap="square" stroke-width="5.89" d="m161.609 76.656-23.741 60.699-23.227-60.7-1.027-2.694H86.986l-1.026 2.63-23.741 60.379-23.74-60.379-1.027-2.63H7.23l2.31 5.71 36.574 91.113 1.027 2.631h27.012l1.027-2.631 24.96-61.661 24.318 61.597 1.027 2.631h27.077l1.027-2.631 36.701-91.113 2.31-5.71h-29.9zm122.487 9.304 42.797-38.434V26.801H217.429v24.575h67.244l-41.257 38.37 5.197 17.517h14.244c22.201 0 35.419 7.571 35.419 20.147v.385c0 11.614-10.78 19.763-26.243 19.763-16.362 0-29.066-5.583-41.129-18.03l-.963-1.027-22.136 18.03 1.09 1.219c15.656 16.747 36.766 25.217 62.689 25.217 34.007 0 57.811-18.993 57.811-46.134v-.385c0-21.816-16.426-36.51-45.299-40.488Zm105.244 57.257h-27.879v27.879h27.879z"/><path fill="#F6F6F6" stroke="#000" stroke-linecap="square" stroke-width="5.929" d="m161.433 76.496-23.74 60.699-23.228-60.699-1.026-2.694H86.811l-1.027 2.63-23.74 60.378-23.741-60.378-1.027-2.63H7.054l2.31 5.71 36.574 91.113 1.027 2.631h27.013l1.026-2.631 24.96-61.662 24.318 61.598 1.027 2.63h27.077l1.027-2.63 36.702-91.113 2.309-5.71h-29.9zm122.487 9.305 42.797-38.434V26.642H217.254v24.575h67.243l-41.257 38.37 5.197 17.516h14.245c22.2 0 35.418 7.572 35.418 20.148v.385c0 11.614-10.779 19.762-26.243 19.762-16.362 0-29.066-5.582-41.129-18.03l-.963-1.026-22.136 18.03 1.091 1.219c15.656 16.747 36.766 25.216 62.688 25.216 34.007 0 57.812-18.992 57.812-46.134v-.384c0-21.816-16.426-36.51-45.3-40.488Zm105.276 57.282h-27.88v27.879h27.88z"/><path fill="#F6F6F6" stroke="#000" stroke-linecap="square" stroke-width="5.961" d="m161.281 76.34-23.741 60.7-23.227-60.7-1.027-2.695H86.658l-1.026 2.63-23.741 60.379-23.74-60.378-1.027-2.63H6.902l2.31 5.71 36.574 91.113 1.026 2.63h27.013l1.027-2.63 24.96-61.662 24.318 61.597 1.027 2.631h27.077l1.026-2.631 36.702-91.112 2.31-5.71h-29.9zm122.487 9.305 42.797-38.434V26.486H217.101V51.06h67.244l-41.257 38.37 5.197 17.517h14.244c22.201 0 35.419 7.572 35.419 20.148v.385c0 11.613-10.78 19.762-26.243 19.762-16.362 0-29.067-5.582-41.129-18.03l-.963-1.026-22.136 18.03 1.09 1.219c15.656 16.746 36.766 25.216 62.689 25.216 34.006 0 57.811-18.992 57.811-46.134v-.385c0-21.815-16.426-36.51-45.299-40.487Zm105.295 57.3h-27.879v27.879h27.879z"/><path fill="#F6F6F6" stroke="#000" stroke-linecap="square" stroke-width="5.999" d="m161.125 76.185-23.741 60.699-23.227-60.7-1.027-2.694H86.502l-1.027 2.63-23.74 60.379-23.741-60.378-1.027-2.631H6.746l2.31 5.71 36.574 91.113 1.026 2.631H73.67l1.027-2.631 24.96-61.661 24.318 61.597L125 172.88h27.078l1.026-2.631 36.702-91.113 2.31-5.71h-29.901zm122.486 9.305 42.798-38.435V26.33H216.945v24.575h67.244l-41.258 38.37 5.198 17.517h14.244c22.201 0 35.419 7.571 35.419 20.147v.385c0 11.614-10.78 19.763-26.244 19.763-16.361 0-29.066-5.582-41.129-18.03l-.962-1.027-22.137 18.03 1.091 1.219c15.656 16.747 36.766 25.217 62.688 25.217 34.007 0 57.812-18.993 57.812-46.134v-.385c0-21.816-16.426-36.51-45.3-40.487Zm105.311 57.33h-27.879v27.879h27.879z"/><path fill="#F6F6F6" stroke="#000" stroke-linecap="square" stroke-width="6.038" d="m160.953 76.026-23.741 60.699-23.227-60.7-1.027-2.694H86.33l-1.027 2.63-23.74 60.379-23.74-60.378-1.028-2.631H6.574l2.31 5.71 36.574 91.113 1.026 2.631h27.013l1.027-2.631 24.96-61.661 24.318 61.597 1.026 2.631h27.078l1.026-2.631 36.702-91.113 2.31-5.71h-29.9zm122.486 9.304 42.798-38.434V26.171H216.773v24.575h67.244l-41.258 38.37 5.198 17.517h14.244c22.201 0 35.419 7.571 35.419 20.147v.385c0 11.614-10.78 19.763-26.243 19.763-16.362 0-29.067-5.583-41.13-18.03l-.962-1.027-22.137 18.03 1.091 1.219c15.656 16.747 36.766 25.217 62.688 25.217 34.007 0 57.812-18.993 57.812-46.134v-.385c0-21.816-16.426-36.51-45.3-40.488Zm105.347 57.356h-27.88v27.879h27.88z"/><path fill="#F6F6F6" stroke="#000" stroke-linecap="square" stroke-width="6.076" d="m160.793 75.86-23.741 60.7-23.227-60.7-1.027-2.694H86.17l-1.027 2.63-23.74 60.379-23.741-60.379-1.027-2.63H6.414l2.31 5.71 36.573 91.113 1.027 2.631h27.013l1.027-2.631 24.96-61.661 24.318 61.597 1.026 2.631h27.077l1.027-2.631 36.702-91.113 2.31-5.71h-29.901zm122.486 9.305 42.798-38.434V26.006H216.613v24.575h67.244l-41.258 38.37 5.198 17.517h14.244c22.201 0 35.418 7.571 35.418 20.147V127c0 11.614-10.779 19.763-26.243 19.763-16.361 0-29.066-5.583-41.129-18.03l-.962-1.027-22.137 18.03 1.091 1.219c15.656 16.747 36.766 25.217 62.688 25.217 34.007 0 57.812-18.993 57.812-46.134v-.385c0-21.816-16.426-36.51-45.3-40.488Zm105.381 57.382h-27.879v27.879h27.879z"/><path fill="#F6F6F6" stroke="#000" stroke-linecap="square" stroke-width="6.115" d="m160.636 75.701-23.74 60.7-23.228-60.7-1.026-2.694H86.014l-1.027 2.63-23.74 60.379-23.741-60.379-1.027-2.63H6.258l2.31 5.71L45.14 169.83l1.027 2.631H73.18l1.026-2.631 24.96-61.662 24.318 61.598 1.027 2.631h27.077l1.027-2.631 36.702-91.113 2.31-5.71h-29.901zm122.487 9.305 42.797-38.434V25.847H216.457v24.575H283.7l-41.257 38.37 5.197 17.517h14.245c22.2 0 35.418 7.571 35.418 20.147v.385c0 11.614-10.779 19.763-26.243 19.763-16.362 0-29.066-5.583-41.129-18.031l-.962-1.026-22.137 18.03 1.091 1.219c15.656 16.747 36.766 25.216 62.688 25.216 34.007 0 57.812-18.992 57.812-46.133v-.385c0-21.816-16.426-36.51-45.3-40.488Zm105.397 57.416h-27.879v27.879h27.879z"/><path fill="#F6F6F6" stroke="#000" stroke-linecap="square" stroke-width="6.153" d="m160.484 75.546-23.741 60.699-23.227-60.699-1.027-2.695H85.861l-1.026 2.631-23.741 60.378-23.74-60.378-1.027-2.63H6.105l2.31 5.71 36.574 91.113 1.027 2.63h27.012l1.027-2.63 24.96-61.662 24.318 61.598 1.027 2.63h27.077l1.027-2.63 36.701-91.113 2.31-5.71h-29.9zm122.487 9.304 42.797-38.433V25.692H216.304v24.575h67.244l-41.257 38.37 5.197 17.516h14.244c22.201 0 35.419 7.572 35.419 20.148v.385c0 11.613-10.78 19.762-26.243 19.762-16.362 0-29.066-5.582-41.129-18.03l-.963-1.026-22.136 18.03 1.09 1.219c15.656 16.747 36.766 25.216 62.689 25.216 34.007 0 57.811-18.992 57.811-46.134v-.385c0-21.815-16.426-36.509-45.299-40.487Zm105.416 57.434h-27.879v27.88h27.879z"/><path fill="#F6F6F6" stroke="#000" stroke-linecap="square" stroke-width="6.192" d="m160.328 75.39-23.741 60.7-23.227-60.7-1.027-2.695H85.705l-1.027 2.631-23.74 60.379-23.74-60.379-1.028-2.63H5.95l2.31 5.71 36.574 91.113 1.026 2.631h27.013l1.027-2.631 24.96-61.662 24.318 61.598 1.026 2.631h27.078l1.026-2.631 36.702-91.113 2.31-5.71h-29.9zm122.502 9.3 42.797-38.433V25.532H216.164v24.574h67.244l-41.258 38.37 5.197 17.517h14.245c22.201 0 35.418 7.571 35.418 20.148v.385c0 11.613-10.779 19.762-26.243 19.762-16.362 0-29.066-5.582-41.129-18.03l-.962-1.027-22.137 18.03 1.091 1.22c15.656 16.746 36.766 25.216 62.688 25.216 34.007 0 57.812-18.993 57.812-46.134v-.385c0-21.816-16.426-36.51-45.3-40.487Zm105.436 57.46h-27.879v27.879h27.879z"/><path fill="#F6F6F6" stroke="#000" stroke-linecap="square" stroke-width="6.23" d="m160.175 75.226-23.74 60.699-23.228-60.7-1.026-2.694H85.553l-1.027 2.63-23.74 60.379-23.741-60.378-1.027-2.631H5.797l2.31 5.71 36.573 91.113 1.027 2.631H72.72l1.026-2.631 24.96-61.661 24.318 61.597 1.027 2.631h27.077l1.027-2.631 36.702-91.113 2.31-5.71h-29.901zm122.487 9.304 42.797-38.434V25.371H215.996v24.575h67.244l-41.258 38.37 5.197 17.517h14.245c22.201 0 35.418 7.571 35.418 20.147v.385c0 11.614-10.779 19.763-26.243 19.763-16.362 0-29.066-5.582-41.129-18.03l-.962-1.027-22.137 18.03 1.091 1.219c15.656 16.747 36.766 25.217 62.688 25.217 34.007 0 57.812-18.993 57.812-46.134v-.385c0-21.816-16.426-36.51-45.3-40.487Zm105.467 57.486H360.25v27.879h27.879z"/><path fill="#F6F6F6" stroke="#000" stroke-linecap="square" stroke-width="6.262" d="m160.015 75.067-23.74 60.699-23.228-60.7-1.026-2.694H85.393l-1.027 2.63-23.74 60.379-23.741-60.378-1.027-2.631H5.637l2.31 5.71 36.573 91.113 1.027 2.631H72.56l1.026-2.631 24.96-61.661 24.318 61.597 1.027 2.631h27.077l1.027-2.631 36.702-91.113 2.309-5.71h-29.9zm122.487 9.304 42.797-38.434V25.212H215.836v24.575h67.243l-41.257 38.37 5.197 17.517h14.245c22.2 0 35.418 7.571 35.418 20.147v.385c0 11.614-10.779 19.763-26.243 19.763-16.362 0-29.066-5.583-41.129-18.03l-.962-1.027-22.137 18.03 1.091 1.219c15.656 16.747 36.766 25.217 62.688 25.217 34.007 0 57.812-18.993 57.812-46.134v-.385c0-21.816-16.426-36.51-45.3-40.488Zm105.483 57.516h-27.88v27.879h27.88z"/><path fill="#F6F6F6" stroke="#000" stroke-linecap="square" stroke-width="6.301" d="m159.863 74.907-23.741 60.699-23.227-60.7-1.027-2.694H85.24l-1.026 2.63-23.741 60.379-23.74-60.379-1.027-2.63H5.484l2.31 5.71 36.574 91.113 1.026 2.631h27.013l1.027-2.631 24.96-61.662 24.318 61.598 1.027 2.631h27.077l1.026-2.631 36.702-91.113 2.31-5.71h-29.9zm122.487 9.304 42.797-38.434V25.052H215.683v24.575h67.244l-41.257 38.37 5.197 17.517h14.244c22.201 0 35.419 7.571 35.419 20.147v.385c0 11.614-10.78 19.763-26.243 19.763-16.362 0-29.067-5.583-41.129-18.03l-.963-1.027-22.136 18.03 1.09 1.219c15.656 16.747 36.766 25.217 62.689 25.217 34.006 0 57.811-18.993 57.811-46.134v-.385c0-21.816-16.426-36.51-45.299-40.488Zm105.502 57.541h-27.879v27.879h27.879z"/><path fill="#F6F6F6" stroke="#000" stroke-linecap="square" stroke-width="6.339" d="m159.707 74.752-23.741 60.699-23.227-60.699-1.027-2.695H85.084l-1.027 2.631-23.74 60.378-23.741-60.378-1.027-2.63H5.328l2.31 5.71 36.574 91.113 1.026 2.63h27.013l1.027-2.63 24.96-61.662 24.318 61.598 1.026 2.63h27.078l1.026-2.63 36.702-91.113 2.31-5.71h-29.901zm122.502 9.305 42.797-38.434V24.898H215.543v24.574h67.243l-41.257 38.37 5.197 17.517h14.245c22.2 0 35.418 7.572 35.418 20.148v.385c0 11.613-10.779 19.762-26.243 19.762-16.362 0-29.066-5.582-41.129-18.03l-.962-1.026-22.137 18.03 1.091 1.219c15.656 16.747 36.766 25.216 62.688 25.216 34.007 0 57.812-18.992 57.812-46.134v-.385c0-21.815-16.426-36.509-45.3-40.487Zm105.522 57.562h-27.879v27.88h27.879z"/><path fill="#F6F6F6" stroke="#000" stroke-linecap="square" stroke-width="6.378" d="m159.535 74.592-23.741 60.699-23.227-60.699-1.027-2.695H84.912l-1.027 2.63-23.74 60.379-23.74-60.378-1.028-2.63H5.156l2.31 5.71L44.04 168.72l1.026 2.63H72.08l1.027-2.63 24.96-61.662 24.318 61.597 1.026 2.631h27.078l1.026-2.631 36.702-91.112 2.31-5.711h-29.9zm122.486 9.305 42.798-38.435V24.737H215.355v24.575h67.244l-41.258 38.37 5.198 17.517h14.244c22.201 0 35.419 7.572 35.419 20.148v.385c0 11.613-10.78 19.762-26.243 19.762-16.362 0-29.067-5.582-41.129-18.03l-.963-1.027-22.137 18.031 1.091 1.219c15.656 16.746 36.766 25.216 62.688 25.216 34.007 0 57.812-18.992 57.812-46.134v-.385c0-21.816-16.426-36.51-45.3-40.487Zm105.554 57.593h-27.88v27.879h27.88z"/><path stroke="#000" stroke-linecap="square" stroke-width="6.416" d="m159.379 74.43-23.741 60.7-23.227-60.7-1.027-2.694H84.756l-1.027 2.63-23.74 60.379-23.741-60.378-1.027-2.631H5l2.31 5.71 36.573 91.113 1.027 2.631h27.013l1.027-2.631 24.96-61.661 24.318 61.597 1.026 2.631h27.077l1.027-2.631 36.702-91.113 2.31-5.71h-29.901zm122.486 9.307 42.798-38.435V24.577H215.199v24.575h67.244l-41.258 38.37 5.198 17.517h14.244c22.201 0 35.418 7.571 35.418 20.148v.384c0 11.614-10.779 19.763-26.243 19.763-16.361 0-29.066-5.582-41.129-18.03l-.962-1.027-22.137 18.03 1.091 1.219c15.656 16.747 36.766 25.217 62.688 25.217 34.007 0 57.812-18.993 57.812-46.134v-.385c0-21.816-16.426-36.51-45.3-40.487Zm105.588 57.618h-27.879v27.879h27.879z"/></svg>